<?xml version="1.0" encoding="UTF-8"?>
<svg id="Layer_1" xmlns="http://www.w3.org/2000/svg" version="1.1" viewBox="0 0 329.5 322.1">
  <!-- Generator: Adobe Illustrator 30.2.1, SVG Export Plug-In . SVG Version: 2.1.1 Build 1)  -->
  <path d="M257.4,101.5c.3-.4.6-.9.9-1.3-.3-.7-.7,1-.9,1.3Z"/>
  <path d="M135.4,246s0,0,0,0c0,0,0,0,0,0Z"/>
  <path d="M135.4,246.1s0,0,0,0c0,0,0,0,0,0Z"/>
  <path d="M135.4,246s0,0,0,0c0-.1,0-.3,0,0Z"/>
  <path d="M179.5,226.6c0,.2.6.2.3,0,0,0-.2,0-.3,0Z"/>
  <path d="M84.4,91.8c.2.5.5,1,.6,1.3-.1-.4-.2-1-.4-1.4-.2-.4-.5-.8-.7-1.2-.2-.4-.3-.7-.5-1.2.2.4.2.8.3,1.2.2.4.4.8.6,1.2Z"/>
  <path d="M81.1,84.3c.2.4.5.8.7,1.2.2.4.2.9.4,1.3.2.4.5.8.7,1.2.2.4.4.9.6,1.3-.2-.4-.2-.9-.4-1.4-.2-.4-.5-.8-.7-1.2-.2-.4-.3-.9-.5-1.3-.2-.4-.4-.9-.5-1.3-.2-.5-.3-.9-.5-1.3-.3-.6-.7-1.1-.8-1.2,0,.4.3.9.4,1.4.1.4.3.8.5,1.3Z"/>
  <path d="M142.5,260.2s0,0,0,0c0,0,0,0,0,0Z"/>
  <path d="M143.1,227.9s0,0,0,0h0s0,0,0,0Z"/>
  <path d="M143.2,227.8c.3-.6-.2-.6,0,0h0Z"/>
  <path d="M142.5,260.2s0,0,0,0c0,0,0,0,0,0Z"/>
  <path d="M114.8,197.8c-.2,0-.5.1-.7.2.2,0,.4-.1.7-.2Z"/>
  <path d="M246.9,150c0,0,.2-.1.3-.2-.2.1-.5.2-.7.4.1,0,.3,0,.4-.2Z"/>
  <path d="M195.8,208.7s0,0-.1,0c.5.5.5.3.1,0Z"/>
  <path d="M181.7,250.7s0,0,0,0c0,0,0,.1,0,.1,0,0,0-.1,0-.2Z"/>
  <path d="M183.2,235.2c-.6-.7-1-1.1-1.1-1.2,0,0,0,0,0,0,0,0,0,.1.2.2.3.4.8.7,1.1,1Z"/>
  <path d="M113.5,120.4c-.2-.2-.3-.3-.5-.5.2.2.4.3.5.5Z"/>
  <path d="M113.5,120.4c.1.1.3.3.4.4,0,0,0,0,0,0,0,0,0,0,0,0-.1-.1-.3-.3-.4-.4Z"/>
  <path d="M107.4,114.1s0,0,0,0c0,0,0,0,0,0,0,0,0,0,0,0Z"/>
  <path d="M114.8,197.8c.3,0,.6-.2.8-.3.2,0,.3-.2.5-.3-.2,0-.4.2-.6.3-.2.1-.5.2-.7.3Z"/>
  <path d="M259.4,128.7c-.3.4-.5.9-.9,1.3-.4.4-.7.7-1.1,1.1-.4.4-.8.7-1.2,1-.4.4-.7.7-1.1,1.1-.4.3,0-.2.6-1,.3-.3.6-.8,1-1.2.3-.4.7-.8,1-1.1.4-.4.7-.8,1.1-1.1.4-.4.9-.7,1.2-1,.6-.7.7-1.1-.1-.5-.2.3-.6.7-1,1.2-.3.3-.7.7-1,1.1-.3.4-.6.8-1,1.2-.4.4-.9.6-1.2,1-.4.4-.6.9-.9,1.3-.7.7-1.3,1-1.4.8,0-.1.5-.5,1-1.3.2-.3.3-.8.6-1.3-.1.8,1.2-.3.4-.2-.5,0-1.1,0-1.6.2-.5.2-.9.8-1.3,1-.6.3-1.3.4-1.6.2-.2-.2-.4-.8-.3-1.6,0,.2-.3.5-.7.7.2-.2-.1-.6-.6-.4-.2-.7-.5-.5-1-.1-.3.2-.7.5-1,.9-.3.4-.6.7-.9,1.1-.3.4-.5.9-.8,1.1-.6.4-.9.8-1.8,1-.2-.2.3-.7.9-1.4.3-.4.6-.8,1-1.3.4-.4.8-.8,1.1-1.2.4-.5.7-.9.9-1.3.3.2.9.1.8-.3-.9,0-.2-.5,0-1,.2-.2.5-.7.8-1.2.2-.4.5-.8.8-1.2.3-.4.5-.8.8-1.2.3-.4.7-.7,1-1.1.3-.4.5-.9.7-1.3.3-.4.4-.9.7-1.3.3-.4.6-.8.8-1.2.3-.4.7-.8.9-1.2.3-.5.4-1,.6-1.4.4-.9.6-1.1,0-.7-.2.2-.6.5-1,1-.3.3-.6.7-.9,1.1-.2.3-.6.5-.9.9.2-.3.3-.7.5-1,.2-.4.6-.8.8-1.2.3-.5.6-1,.6-1.3,0-.4-.4-.6-1.2,0,0-.1-.3.6-.8,1.3-.3.4-.7.8-1,1.2-.3.5-.5.9-.8,1.4-.3.5-.6.9-.8,1.2.2-.5.3-.8.4-1.3.2-.4.4-.9.6-1.3.2-.4.5-.8.8-1.2.3-.4.4-.9.7-1.3.3-.4.5-.8.8-1.2.3-.4.5-.8.8-1.2.3-.4.5-.8.8-1.2.3-.4.7-.8.9-1.2-.3.3-.8.7-1.1,1.2-.3.4-.5.9-.8,1.3-.5.8-1,1.3-1,1.2,0,0,.4-.4.9-1.3.2-.4.4-.8.5-1.1.2-.4.2-.7.4-1.1-.3.3-.6.5-1,.9-.3.3-.6.7-.9,1.1-.3.4-.7.6-1.1.9-.3.4-.5.8-.8,1.2-.4.4-.9.3-1.3,0-.2.4-.4.8-.6,1.1-.2.4-.7.6-.9,1-.3.4-.4.8-.6,1.1-.3.4-.4.8-.6,1.1.1-.5.2-.9.3-1.3.2-.6.4-.9.6-1.2.4-.5.8-.7.9-1.1,0-.3-.3-.7-.6-1.3.3-.5.6-.9.8-1.3.3-.5.5-.9.7-1.3.3-.5.4-.9.7-1.3.3-.5.6-.8.8-1.2.3-.4.5-.9.8-1.3.3-.4.4-.9.6-1.4.3-.4.6-.8.9-1.2.3-.4.6-.7.9-1.2.3-.4.4-.9.7-1.4.2-.3.5-.6.7-.9,0-.5,0-.9.1-1.3.2-.5.5-.9.6-1.3.3-.9.5-.9,0-.2-.2.3-.5.6-.9,1.1-.2.3-.6.6-.9,1.1.1.4-.2.8-.7,1.4-.3.4-.7.8-1,1.2-.4.4-.6,1-.9,1.3-.6.7-.9,1,0,.8-.3.5-.5.9-.8,1.1-.4.3-.9.3-1.3.6-.4.2-.6.6-1,1-.3.3-.5.6-.8,1.1-.2.3-.5.7-.7,1.2-.1.4-.4.8-.5,1.3-.2.5-.2.9-.3,1.4-.1.5,0,.9-.2,1.4-.1.4-.4.7-.6,1.1-.1-.5,0-.9.4-1.3.3-.5.6-.9.4-1.3.2-.4.3-1,.4-1.5,0-.5.1-1,.1-1.6,0-.5-.2-1-.2-1.6,0-.5,0-1.1.1-1.6.1-.5,0-1,.2-1.5.2-.5.7-.8.9-1.3.2-.5,0-1.1.2-1.5.2-.5.5-.9.7-1.4.1-.5.3-1,.3-1.5,0-.5-.1-1.1-.2-1.6-.2.5-.5,1.1-.7,1.7-.2.6-.5,1.1-.7,1.6-.1,0,.2-.6.5-1.5.2-.5.4-1.1.6-1.5.3-.9.3-1.6-.2-1,0,0-.2.2-.4.4.1-.3.3-.6.3-.9.1-.5-.1-1-.9-1.1-.2.4-.3,1-.5,1.4-.2.4-.7.8-.9,1.2-.2.4-.3,1-.5,1.4-.2.5-.5.9-.7,1.4-.3-.5-.6-1-.8-1.3-.4-.6-.8-1-.8-1.3,0-.3.5-.5,1.2-1,0-.5,0-1.1,0-1.6,0-.5.1-1,.3-1.5.2-.5.6-.8.8-1.3.1-.3.2-.7.3-1-.2.4-.5.7-.6,1.1-.2.5-.4.9-.7,1.4-.6.7-.3.2,0-.6.2-.4.2-.9.4-1.3-.3.5-.7.8-.9,1.3-.2.5-.4,1-.6,1.5-.2.5-.5.9-.7,1.4.1-.5.4-.7.5-1.2.2-.5.1-1,.3-1.4.2-.4.6-.8.8-1.2.2-.4.3-.9.6-1.3.2-.4.4-.9.6-1.3.2-.4.6-.8.8-1.2.2-.4.5-.8.8-1.2.2-.4.3-1,.5-1.4.2-.4.4-.9.6-1.3.2-.5.5-1,.6-1.5-.3.4-.7.9-.9,1.3-.2.4-.4.9-.6,1.3-.2.4-.4.9-.6,1.3-.2.4-.5.8-.7,1.2-.2.4-.4.8-.6,1.3-.2.4-.6.8-.8,1.2-.2.4-.5.8-.7,1.2-.2.4-.3.9-.5,1.3-.2.4-.5.7-.7,1.1,0-.4.1-.8.3-1.4.2-.4.5-.9.7-1.4.2-.4.7-.8.9-1.2.2-.4.5-.9.7-1.4.2-.5.5-.9.7-1.4.2-.5.4-1,.5-1.4.2-.5.5-1,.6-1.5-.3.2-.8.6-1.1,1.1-.2.4-.4.8-.7,1.3-.2.4-.4.9-.6,1.4-.2.4-.5.8-.8,1.3-.2.4-.5.9-.7,1.3-.2.4-.4.9-.6,1.4-.2.4-.4.7-.7,1.2-.3-.6-.5-.2-.8.4-.2.3-.4.7-.6,1.1-.2.4-.4.8-.5,1.2-.2.6-.3,1.1-.4,1.3-.2.5-.7.9-.9,1.3-.3.6-.5,1-.8,1.3-.6.8-.6.8-.8.3-.1-.3-.2-.8-.2-1.5,0-.5-.2-1-.1-1.6,0-.5,0-1,.1-1.6,0-.5.4-1,.4-1.5,0-.5,0-1.1,0-1.6,0-.6.3-1.1.3-1.5,0-.4-.2-.9,0-1.5,0-.5.3-1,.4-1.5.1-.5.3-1,.3-1.5.1-.8.1-1.2-.3-1.2.2.4-.6.7-.5,1.4,0-.2-.4-.4-.6-.1-.7.4-.3,1.7-1.2,1.1,0-.1,0-.7.1-1.1.1-.4.3-.6.8-.3-.5-.3-.7-.9-.7-1.5,0-.5.2-1,.3-1.6.1-.6.1-1.1.1-1.6-.3-.9-.3-.5-.3.2,0,.4-.2.9-.3,1.4,0,.5,0,1,0,1.5-.1.7-.5,1-.9.8,0,0-.1.1-.1.2,0-.1,0-.3,0-.5,0-.4-.3-1-.3-1.6,0-.5.1-1.1.1-1.6,0-.6.1-1.1.2-1.6,0-.7,0-1.3.1-1.6-.1-.9-.2-1.4-.3-1.6-.2-.2-.2.5-.3,1.4,0,.5-.4,1-.4,1.5,0,.5,0,1.1,0,1.5,0,.6-.1,1.2-.2,1.5-.2.5-.5.5-.7-.7-.4.5.7,1.4-.1,1.5-.3-1-.3-.9-.3-.5,0,.3.2.9.1,1.1.2.1.5.7.6,1.3,0,.5,0,1,0,1.5,0,.2,0,.4,0,.6,0-.4-.2-.9-.3-1.3,0-.5,0-1,0-1.4,0-.5-.4-.9-.4-1.4,0-.5-.3-.9-.4-1.4,0-.5,0-1-.1-1.4-.1-.5-.3-.9-.4-1.3-.1-.5-.2-.9-.4-1.4-.2-.4-.4-.7-.6-1.1,0,.4.2.6.3,1.1.2.6.2,1,.1,1.1,0,0-.2,0-.9-.6-.5-.1-.7-.5-1-.9-.2-.3-.3-.8-.5-1.2-.2-.4-.4-.8-.5-1.3-.1-.4-.2-.9-.3-1.3-.2-.4-.6-.7-.8-1.1-.2-.1-.7-1.2-.9-1.2.2.4.5.9.7,1.4.2.4.6.8.8,1.3.2.4.4.9.6,1.4.2.5.3.9.5,1.4.2.5.4.9.5,1.4-.6.4-.6,1.2-.8,1.7-.2.3-.4-.4-.7-1.1-.3-.9-.4-1.8-.4-1.1.1.3,0,.8.2,1.2.1.5.2,1,.2,1.2,0,.3,0,.2-.3-.8,0-.1,0-.2,0-.4-.1,0-.2,0-.2,0-.2-.4-.5-1-.3-1.4-.5-.7-.5-.1-.8-1.5.2-.6-.4-.7-.3-1.2.1-.2,0-.5-.1-.7-.3-.5-.6-1-.7-1.5-.1-.5-.2-.9-.7-1.3-.5-.3-.3.3,0,.9.2.5.7,1,.7,1.2,0,.4.2.9.3,1.3.1.4.1.9.3,1.3.1.4.3.8.4,1.3.1.4.2.9.3,1.3.1.4.5.8.6,1.2-.1-.1-.5-.6-.7-1.2-.2-.4-.4-.8-.6-1.2-.2-.4-.3-.8-.5-1.2-.2-.5-.2-1-.4-1.3-.4-.6-1-.9-1.2-.4.2.3.5.8.8,1.3.2.4.5.8.7,1.3.2.4.1,1,.3,1.4.1.4.3.9.4,1.4.1.5.3.9.4,1.4.1.5.2,1,.3,1.4.1.5.3.9.4,1.4,0,.5.3.9.4,1.4,0,.5.2,1,.3,1.4,0,.5,0,1,0,1.5,0,.5.3,1,.4,1.4,0,.7-.1,1.2-.1,1.4,0,.2,0,0-.3-1.2,0-.4-.2-.9-.3-1.4-.2-.4-.3-.9-.4-1.5,0-.5-.2-1-.3-1.5,0-.5,0-1.1,0-1.5-.1-.7-.4-1-.7-1.2,0,.5,0,.9.1,1.3,0,.5.3.9.4,1.4.1.5,0,1,0,1.5.1.5.2.9.3,1.4.1.5.3.9.4,1.4,0,.5.2,1,.3,1.4,0,.5.3.9.3,1.4,0,.5,0,1,.1,1.5,0,.5,0,1,0,1.5,0,.5-.2,1-.3,1.5-.1.5-.4.9-.6,1.4-.1.5-.2,1-.4,1.4-.2.5-.3,1-.5,1.4,0,.4-.2.7-.4,1.1-.1.3-.5.6-.7.9-.2.3,0,.6-.3.9-.1.4-.5.6-.6.7-.2.5-.3,1.1-.6,1.5-.1.2-.3.4-.4.6-.2.4-.6.8-.8,1.2-.2.4-.4.9-.7,1.3-.3.4-.5.8-.8,1.2-.3.4-.8.7-1.1,1-.3.4-.7.7-1,1.1-.3.4-.5.9-.8,1.3-.3.4-.8.6-1.2.9-.4.3-.8.6-1.1,1-.4.3-.7.7-1.1,1-.4.3-.7.7-1,1.1-.4.3-.8.6-1.1,1-.4.3-.7.6-1.1.9s-.8.5-1.2.7c-.4.3-.7.7-1.1,1-.4.3-.9.4-1.3.6-.4.3-.8.5-1.2.7-.4.3-.7.7-1.1.9-.4.2-.9.4-1.3.7-.4.2-.8.6-1.2.8-.4.2-.9.5-1.3.7.4-.2.8-.6,1.3-.9.4-.3.7-.6,1.2-.9.4-.3.9-.4,1.4-.7.4-.3.8-.6,1.2-.9.4-.3.7-.7,1.1-1,.4-.3.9-.4,1.3-.7.4-.3.8-.6,1.2-.9.4-.3.7-.8,1-1.1.4-.4.9-.6,1.2-.9.5-.5.8-1,.8-1.3-.3.4-.7.7-1,1.1-.4.3-.8.6-1.2.9-.4.3-.8.6-1.2.9-.4.3-.7.7-1.1,1-.4.3-.9.5-1.3.8-.4.3-.9.4-1.4.6-.4.3-.8.6-1.2.8-.4.3-.9.5-1.3.7-.4.2-.8.6-1.2.8-.4.2-.9.4-1.3.6-.4.2-.7.7-1.2.9-.4.2-1,.3-1.4.5-.4.2-.8.6-1.3.8-.4.2-.9.4-1.3.6-.4.2-.9.5-1.3.7-.4.2-.9.4-1.3.7-.4.2-.8.6-1.3.8-.4.3-.9.4-1.3.7-.4.3-.8.6-1.2.8-.4.3-.8.6-1.2.9-.4.3-.8.7-1.1.9-.4.3-.8.6-1.2.9-.4.3-.7.7-1,1-.4.4-.6.8-.9,1.2-.3.4-.6.8-.9,1.2-.3.4-.8.7-1,1.1-.3.4-.6.9-.8,1.3-.3.4-.3,1-.5,1.4-.2.5-.5.9-.7,1.3-.2.5-.5.9-.7,1.3-.2.5-.4.9-.5,1.4-.1.5-.2,1-.3,1.5,0,.5,0,1,0,1.5,0,.5-.2,1-.1,1.5,0,.5,0,1,.1,1.5,0,.5.2,1,.3,1.5.1.5.3,1,.5,1.4.2.5.3,1,.5,1.4.2.5.6.9.8,1.3.2.5.3,1,.5,1.4.2.5.5.9.7,1.4.2.5,0,1,0,1.5,0,.5,0,1,0,1.4-.1.5-.2.9-.5,1.4-.2.4-.5.8-.9,1.2-.3.3-.9.5-1.3.9,0,.7-1.6.3-1.3.2-1.3.8-1.7.7-1.5.4.2-.2.7-.6,1.2-1.2-1.1.9-1.4.9-1.5.7,0-.2,0-.4-1.2.5.5-.4,1-.8,1.2-1.1.4-.6,0-1-.7-1.1-.4,0-1,0-1.5,0-.5.1-1.1.4-1.6.6.5-.4.9-.8,1.1-1,.8-.8.8-1,.4-.9-.3,0-.8.3-1.3.6-.4.3-.8.5-1.2.9-.2.1-.4.3-.5.3.3-.3.6-.9.8-1.3-1.1.6-1.4.9-.6-.2-1,.6-1.1.8-1.4.8.7-.4.6-.6-.2-.5.5-.2.9-.3,1.3-.4,1-.4,1.3-.8,1-.9-.2,0-.7,0-1.5,0-.4,0-.8,0-1.3,0,0,0,0,0,0,0,.4,0,.9-.4,1.2-.4-.5,0-1,.2-1.4.2-.6,0-1.1-.1-1.4-.2-.8,0-.7-.2.2-.4.3-.1.7-.4,1.3-.5.4-.1.8-.2,1.3-.3-.5,0-1.1-.1-1.5-.1-.6,0-1.2.2-1.5.3-.7,0-.7.1.5-.3.4-.1.9-.4,1.5-.6-.6,0-1.3,0-1.7,0-1.1,0-1.6,0-.7-.3.3-.1.8-.3,1.5-.6-.5,0-.8.3-1.2.4-.4,0-1,0-1.4,0,.8-.3,1.1-.6,1.3-.7.3-.2-.3-.1-1.2.1-.4.1-.9.3-1.4.4-.5.2-1.1.4-1.5.5.3-.3.7-.7,1-1,.3-.3.7-.6,1-1-.4.3-.8.7-1.1.9-.4.3-.7.6-1,.9-.4.3-.8.5-1.2.7-.5.4-1,.5-1.3.6-.3,0-.2-.2.3-1.1.2-.3.5-.8.8-1.2-.3.3-.8.7-1.1,1-.3.3-.8.5-1.1.8-.5.4-.8.8-1,.9-.3.1-.2-.3.4-1.1.2-.3.5-.6.8-1-.4.5-.9.7-1.2,1-.6.5-.9.9-1.2,1.1-.5.4-.8.5-1.2,1-.2.3-.8.7-1.2,1.3.3-1,.2-.7-.2,0-.3.3-.6.7-1,1.1-.4.4-.8.6-1.2.5.3-.6.7-1.2,1.1-1.8-.2.1-.7.5-1,.9-.4.5-.6,1-.4.3.5-.7-.2-.9-1-.6-.4.1-.9.6-1.4.8-.6.2-1.1.2-1.5.3-.4-.3-1-.4-1.3-.7-.4-.4-.7-.8-.9-1.2-.2-.5-.3-1-.3-1.5,0-.5.3-.9.4-1.4.1-.5.3-.9.5-1.3.2-.4.4-.9.6-1.3.3-.4.5-.9.7-1.3.3-.4.3-1,.5-1.4.2-.5.6-.8.7-1.3.1-.5,0-1,0-1.5,0-.5.3-1,.3-1.5,0-.5-.3-1-.3-1.4,0-.5,0-1,0-1.4,0-.5-.3-.9-.4-1.4,0-.5.1-1,0-1.5-.1-.5-.4-.9-.5-1.4-.1-.5-.2-1-.4-1.4-.2-.5-.4-.9-.6-1.3-.2-.4-.6-.8-.8-1.2-.2-.4-.4-.9-.7-1.3-.3-.4-.5-.9-.8-1.2-.3-.4-.6-.7-.9-1.1-.3-.4-.6-.8-.9-1.1-.3-.3-.6-.7-1-1-.4-.3-.7-.7-1-1-.4-.3-.8-.5-1.2-.8-.4-.3-.8-.6-1.2-.9-.4-.3-.8-.5-1.2-.8-.4-.3-.9-.4-1.3-.7-.5-.2-.8-.5-1.3-.7-.4-.2-.9-.4-1.3-.6-.4-.2-.9-.4-1.3-.6-.4-.2-.9-.3-1.3-.6-.4-.2-.8-.6-1.2-.8-.4-.2-.9-.3-1.3-.6-.4-.2-.9-.4-1.3-.7-.4-.2-.8-.6-1.2-.8-.4-.3-.8-.5-1.3-.7-.4-.3-.7-.7-1.1-1-.4-.3-.9-.3-1.3-.6-.4-.3-.7-.6-1.1-.9-.4-.3-.8-.5-1.2-.8-.4-.3-.7-.7-1.1-1-.4-.3-.7-.6-1.1-.9-.4-.3-.8-.5-1.2-.8-.4-.3-.9-.5-1.2-.8.3.3.6.6,1,.9.3.3.6.8.9,1.1.4.3.7.6,1.1.9.4.3.9.3,1.3.6.4.3.7.6,1.1.9.4.3.8.5,1.2.7.4.3.7.6,1.1.8.4.3.7.6,1.1.8.4.3.8.5,1.2.8.4.3.8.7,1.2.9-.4-.2-1-.5-1.4-.7-.4-.2-.8-.5-1.2-.8-.4-.3-.7-.7-1.1-1-.4-.3-.8-.5-1.3-.8-.4-.3-.9-.4-1.3-.7-.4-.3-.8-.5-1.2-.8-.4-.3-.8-.6-1.2-.8-.4-.3-.9-.5-1.3-.8-.4-.3-.6-.8-1-1.1-.4-.3-.8-.6-1.1-.9-.4-.3-.8-.6-1.1-.9-.4-.3-.8-.6-1.1-.9-.4-.3-.7-.7-1-1.1-.3-.3-.7-.7-1.1-1-.3-.4-.7-.7-1-1.1-.3-.4-.7-.7-1-1.1-.3-.4-.6-.8-.9-1.2-.3-.4-.6-.8-.8-1.2-.3-.4-.6-.8-.9-1.2-.2-.4-.5-.9-.7-1.3,0,0,.4,0,.5,0,.3.3.6.7,1,1.1.3.3.4.9.7,1.3.3.4.6.7.9,1.1.2.3.5.5.8.8-.3-.4-.7-.7-1-1.1-.3-.4-.5-.8-.8-1.2-.3-.4-.5-.9-.8-1.3-.3-.4-.6-.8-.8-1.2-.3-.4-.5-.9-.7-1.3-.3-.4-.5-.8-.8-1.3-.4-.4-.1.1.2.6.3.5.6,1,.1.7-.4.2-.2.1-.5-.4-.3-.4-.2-.4,0-.7-.4-.3-.4-.8-.9-.8-.3-.4-.6-.9-.8-1.3-.2-.4-.3-.9-.5-1.4-.2-.5-.2-1-.4-1.5-.1-.5-.4-.9-.5-1.4,0-.5,0-1-.1-1.5,0-.5,0-1,0-1.5,0-.5-.2-1-.2-1.5,0-.5.2-1,.2-1.5,0-.5,0-1,0-1.5,0-.5,0-1,.1-1.5,0-.5,0-1,0-1.5,0-.5.4-1,.4-1.5,0-.5.1-1,.2-1.5,0-.5.4-1,.5-1.4.1-.5,0-1.1,0-1.5.1-.5.6-.9.7-1.4.1-.5.2-1,.3-1.5.1-.5.2-1.1.3-1.5.2-.6.4-1.1.5-1.4,0,0,0-.1,0-.2-.2.3-.4.7-.7,1.3-.2.4-.4.8-.7,1.3-.2.4-.5.7-.7,1.2,0-.3,0-.8.2-1.1.1-.4.4-.9.5-1.3.2-.6.3-1.2.2-1.4-.9-.1-.7,1.2-1,1.7-.2.9,0,0-.2.6.2.6-.3,1.4-.5,1.6.2.4-.4.7-.4,1.1-.6,0-.2-.5,0-1.3.3-.6.7-1.2.6-1.5-.2.6-.5,1-.7,1.3-.5,1-.9,1.1-1,.8,0-.3,0-.8,0-1.5,0-.5,0-1,.2-1.5.1-.5.3-1,.5-1.5.2-.5.3-1.1.5-1.5.2-.3.5-.7.7-1-.2.3-.5.7-.7,1-.2.4-.6.9-.8,1.3-.2.4-.3.9-.5,1.4-.2.5-.2,1-.4,1.4-.2.8-1.1.4-1.6,1.3-.6.7-.5.2-.3-.4.1-.4.3-.9.3-1.2.1-.3,0-.7,0-.8-.2.4-.4.9-.6,1.3-.2.4-.2.9-.3,1.4-.1.4-.4.9-.6,1.3-.1.5,0,1-.1,1.4,0,.5-.2.9-.3,1.4,0,.5-.2.9-.3,1.4,0,.5-.2.9-.3,1.4,0,.5,0,1,0,1.4,0,0,.2.5,0,.7,0-.5-.2-1-.2-1.5,0-.5.2-1,.2-1.4,0-.5.1-1,.2-1.4,0-.5,0-1,0-1.5-.3,1.5-.6.5-.5-.3-.3,1-.3,1.1-.4.6,0-.3-.3-.7-.3-1.2,0-.4,0-.9,0-1.2,0-.6,0-1-.1-1.4-.2-1.1-.5-1.3-.7-.9,0,.3-.2.8-.2,1.4,0,.4.3.9.3,1.4,0,.5,0,.9.2,1.4,0,.5-.2,1.1-.2,1.7,0,.7,0,1.3-.3,1.6-.3,0-.4.3-.2.5-.3,0-.4-.7,0-.9-.3-.1-.5-.6-.3-.9-.3-.3-.5-.9-.4-1.4,0-.3,0-.7-.1-1.2,0-.5,0-1,0-1.2,0-.4-.2-.4-.3.6,0,.4.1,1,.2,1.5.1.5.2,1.1.2,1.5,0,.6-.1,1-.6,1.3.8-.3.7.9.9,1.4.1.4-.4.1-.7.3-.3-.5-.3-.7-.8-1-.5-.5-.8.4-.8-.5-.2-.7,0-.8,0-1.7-.7-.8-1.1-.6-1,0,0,.3.3.8.5,1.4.1.4,0,1,.1,1.5.1.5.5.9.6,1.3.2.7.2,1.2.1,1.4,0,.4.1.9.2,1.3,0,.5,0,1-.2,1.3.6.3,0,.2,0,.5-.2.2.2.5.4.2,0,.3.1.7.2,1,0,.6-.5.2-.9-.7-.2-.4-.4-.9-.6-1.4-.2-.4-.5-.9-.7-1.4-.2-.5-.3-1-.5-1.5-.2-.5-.3-1-.5-1.5-.2-.5-.4-1-.6-1.4-.3-.6-.6-1.1-.8-1.4.1.4.2,1,.3,1.5.1.4.5.8.7,1.3.2.4.2.9.3,1.4.2.4.5.8.6,1.3.2.4.2.9.4,1.4.2.4.4.9.6,1.3.2.4.4.9.6,1.3.2.5.3.9.5,1.4.1.5.2.9.3,1.3-.2-.4-.2-.8-.4-1.3-.2-.4-.5-.8-.7-1.2-.2-.4-.2-.9-.4-1.4-.2-.4-.3-.9-.5-1.3-.2-.4-.4-.9-.5-1.3-.2-.4-.2-.9-.4-1.3-.2-.4-.4-.9-.6-1.2-.2-.4-.5-.7-.8-1.1,0,1,0,1.2.2,1.7.1.3.3.8.7,1.6.3,1.2.3,1.8.2,1.8,0,0-.1-.9-.5-1.7.1.5.1.9.2,1.3,0,.5-.2.9-.6.9,0,.4-.3,0-.7-1-.2-.4-.2-1-.4-1.5-.2-.5-.6-.9-.8-1.4-.2-.5-.4-1-.6-1.5-.3-.6-.4-1.1-.6-1.4.2.5.2.9.4,1.3.2.5.5.9.6,1.3.2.5.2,1,.4,1.4.2.5.4,1,.5,1.3.3.9.5,1.3.5,1.4,0,.1-.6-.2-1.1-1-.2-.3-.4-.8-.6-1.3-.2-.4-.3-.9-.6-1.3-.2-.4-.4-.9-.6-1.3-.2-.4-.5-.8-.7-1.2-.2-.4-.2-1-.4-1.4-.2-.4-.5-.8-.6-1.3-.2-.4-.3-.9-.4-1.4-.4-.9-.8-1.3-1-1.3.2.4.2.9.4,1.4.1.4.6.8.7,1.3.1.5,0,.9.1,1.4.2.4.5.8.7,1.3.2.4.4.9.6,1.3.2.4.3,1,.5,1.4.2.5.6.9.8,1.3.2.6.3,1.1.3,1.5,0,.5-.6.7-1.2.8,0,.4-.2.9-.1,1.5,0,.4.2.9.3,1.4,0,.5.2.9.3,1.4.1.5.4.9.5,1.3.1.5.2,1,.3,1.4.2.9.4,1.2,0,.9-.2-.3-.3-.7-.4-1.1-.1-.4-.4-.8-.6-1.1-.2-.4-.3-.7-.7-.9,0,.2.2.7.5,1.3.2.5.2,1.1.4,1.5.3.7.3,1-.4,0,0-.4,0-1.1-.3-1.7-.3-.6-.9-1-1.1-1.2-.3-.2-.4-.1-.1,1.2.1.5.2,1,.4,1.4.2.5.3,1,.4,1.4.2.6.3,1,.2,1.4-.2.3-.5.7-1.3.6-.4,0-.8-.2-1.4-.4-.1.2-.2.4-.2.6,0,0,0-.1,0-.2-.2-.4-.5-.7-.9-1.1-.2.3-.3.8-.1,1.4.1.4.5.8.8,1.2.2.4.3,1,.5,1.3.4.8.8,1.1.2.6-.3-.3-.7-.6-1.1-1.1-.3-.4-.5-.9-.7-1.4-.3-.5-.4-1-.7-1.4-.5-.9-.9-1.4-.9-1,0,.2.2.7.4,1.5.2.4.3.8.5,1.3.2.4.6.7.8,1.1.2.4.2,1,.5,1.4.3.4.8.6,1,1,.3.4.5.8.7,1.2.3.4.4.9.7,1.2.3.4.6.8.8,1.1.3.5.5.8.6,1.1-.2-.2-.5-.5-.8-.8-.4-.4-.7-1-.9-1.1-.2,0-.2.3.1,1.3.1.3.2.7.4,1.2-.5-.3-.6-.4-1-.9-.6-.1.7.9.9,1,.3.7.4,1.1.4,1.2,0,.2-.4-.2-.8-.8-.3-.3-.8-.6-1-.9.2.4.5.8.8,1.2.2.4.6.7.8,1.1.2.4.2.9.5,1.3.2.4.5.7.7,1.1-.3,0-.4-.5-.8-1-.2-.3-.6-.7-.8-1.1-.2-.4-.4-.8-.6-1.2-.2-.4-.5-.8-.8-1.1-.2-.4-.4-.9-.6-1.2-.4-.6-.9-.9-1.2-.8,0,.2.4.8.7,1.4.2.4.4.9.6,1.3.2.5.6.9.8,1.3.4.8.5,1.3,0,.6-.3-.4-.5-.9-.8-1.4-.2-.5-.5-1-.7-1.4-.3-.5-.8-.7-1.3-.8-.3,0,.1.7-.1.4,0,0-.2.2-.1.3.3.4.5.4.2.7.3.3.6.6.8,1.1.2.4.5.7.7,1.2.2.4.4.8.6,1.2.2.4.3.8.4,1.2,0,0,0,0,0,0-.3-.4-.4-.9-.7-1.3-.3-.4-.6-.8-.9-1.2-.3-.4-.7-.7-.9-1.2-.3-.4-.4-.9-.6-1.4-.2-.4-.5-.8-.8-1.3-.2-.4-.4-.9-.7-1.3-.2-.4-.5-.8-.7-1.2,0,.4.3.7.5,1.3.2.4.4.8.6,1.3.2.4.5.8.8,1.2.3.4.4.9.6,1.3.3.4.6.8.8,1.2.3.4.5.9.7,1.3.3.4.7.8.9,1.1.4.6.6,1,.5,1.2-.4-.2-.8-.4-1.1-.8-.2-.4-.3-.9-.5-1.3-.2-.4-.4-.9-.6-1.3-.2-.4-.3-.7-.7-1,0,1,.7,1.3-.6,1-.1.6-.6.3-1.1-.4-.3-.4-.4-.9-.7-1.3-.3-.5-.7-1.1-1-1.3,0,.4.3,1.1.7,1.7.3.4.7.9,1,1.3.3.5.7.9.9,1.4.3.6.4,1.1.3,1.6.1.1.5.3.6.4-.2.8-.8.7-1.4,0-.3-.3-.6-.9-.9-1.5-.4.1-1,.2-1.2-.3-.2-.5-.4-1.1-.6-1.6-.3-.5-.6-.9-.9-1.4-.3-.5-.5-1-.8-1.5-.2-.3-.3-.6-.5-1-.1,0-.3,0-.4,0,0,.6.2,1.1.4,1.6.2.5.5.9.8,1.4.3.4.6.9.9,1.3.3.4.7.8.9,1.3.2.2.5.7.9,1.2.3.4.4.9.7,1.3.3.4.7.7,1,1.1.3.4.3,1,.6,1.4.3.4.7.8,1,1.2.3.4.4,1,.7,1.4.3.4.8.7,1,1.1.3.5.5,1,.7,1.3.4.6.8,1,.9,1.2.1.4-.3.3-1.1-.6-.6-1-.4.4-1.1.8.4-.2.6.4.2.2-.5.3-.6.8-.7,1.2,0,.4.1.8.4,1.3.2.4.5.7.9,1.1.3.3.8.5,1.1.8.4.3.8.5,1.2.5-.8,0-1.2.2-1.5.3-.5.2-.3.6,0,1.4.1.4.4.9.5,1.5.1.4.2,1,.2,1.6.5,0,.8.4,1.2.7.4.4.7.7,1.2.8,0,0,0,.1,0,.2,0,0,0,0,0,0-.6-.5-.7.3-1.1-.3-.3.6-1.8,0-.6.5-.3,0,0,.4.2.5-.2,0-.6.1-.7.1-.2.1-.3-.4-.5-.1.7.6-.3,0-.4.4.5.3.3.1,0,.6.1.2.5-.4.3-.6,1.1-.2,1,.2,1.4.3.2,0,.5.1,1.4-.1.3.7-.4.8-1.3.8-.7,0-1.2-.3-1.7-.2.3.3.8.3,1.6.3.6,0,1.3,0,1.8,0,.1,0,.3,0,.2,0-.7.3.1.5.5.7,0,0,0,0,0,0-.6,0-1.2-.2-1-.5-.4,0-1,.3-1.4.3-.4,0-.9-.1-1.3-.2-.5,0-.9-.3-1.3-.5-.4.3-.7.2-1-.1-.4-.3-.8-.4-1.1-.5-.2,0-.3,0-.5,0,.4.2.9.6,1,1,.4.3.8.7,1.4.9.5.2,1.1.3,1.7.5.6.2,1.1.3,1.6.6,0,.1-.5,0-1.1-.2-.4,0-.9,0-1.3,0-.5-.1-.9-.4-1.2-.5-.4-.2-.8-.5-1.3-.7-.4-.2-1-.5-1.4-.7.2.3.9.7,1.4,1,.8.3,1.4.7.4.9-.4-.2-.8,0-.9-.4-.5,0,0,1.1-.5,1.1,0,0,0,.2.1.2-.2,0-.8-.1-.6.3.7.5.3.3-.6.1-.4-.1-1-.2-1.5-.4-.6-.2-1.1-.5-1.4-.6-.6-.2-1.1-.2-1.5-.3-1-.3-1.3-.4-1.3-.3,0,.1.4.4,1.2.8.4.2.9.3,1.4.5.5.2.9.3,1.4.5.5.2,1,.3,1.4.4.5.1,1,.4,1.4.4.5.3,1,.5,1.3.7.6.4,1,.6,1.3.8.9.6.5.7-.3.7-.4,0-.9-.3-1.5-.2-.5,0-1.1.2-1.6.4.5,0,1.1,0,1.5,0,.5,0,.9.2,1.3.3.5,0,.9.2,1.2.4.4.2.6.5.7,1,.9.4,1.6.5,1.7.6.2.2-.7.2-1.6,0-.3-.1-.8-.6-1.4-.8-.5-.2-1.1-.2-1.5-.3-.7-.1-.8-.1.2.5.8.4.4.3-.4.3-.4,0-.8,0-1.3,0-.4,0-.9,0-1.3,0-.5,0-1.1.2-1.4.3.4,0,.9.2,1.4.3.4,0,.8.2,1.2.4.4.1.9.1,1.3.3.4.2.8.3,1.2.5.6,0,1.2,0,1.8.2.7.1,1.1.4,1.6.8,0,.6.2,1.6,1,1.1.4.3.8.9,1.1,1.5.3.5.5,1.1.8,1.5.4.5.8.8,1.4.6-.2.7-.4,1.2-.3,1.6.1.5.7.7,1.1,1.1.4.3.8.6,1.2,1,.6.8,0,.3-.6,0-.4-.2-.9,0-.7.9,0,.3.4.6.6,1.2.4.3.7.6.9.9,0,0,0,0,0,0,0,0,0,0,0,0,0,0,0,0,0,.1.4.5.3.9-.2,1.2-.3.2-.7.3-1.4.3-.3,0-.3.6,0,.5-.4.2.2,1.1.5.8.6-.5.2-.8,1.2-.5-.2.3,0,.5.3.7-.6,0-1.2-.2-1.5,0-.3.2-.4.9,0,1.5.4,0,1-.4,1.5-.4.5,0,1,.3,1.4.3.5,0,1-.2,1.4-.3,1,0,1.1.2.6.4.3,0,.7,0,1,0,.5,0,1.1-.4,1.6-.5.1.5-.3.8-.9,1-.4,0-.8,0-1.3,0-.4,0-.9,0-1.4,0-.5,0-.9,0-1.4,0-.6,0-1.1.1-1.4.3,1.4.5.1.5.8,1.7-.5.2-.9.2-1.5.3-.6.1-.9.4-1.3.7.4,0,.7,0,1.2,0,.4,0,.9,0,1.3-.2.4,0,.9-.1,1.3-.1.4,0,.7,0,1.2.1-.1.6.3.5.8.5.4,0,.8,0,1.2,0,.5,0,1,0,1.3.2-.1.3-.7.5-1.4.7-.4,0-1,0-1.5,0-.5,0-1,0-1.5.1-.5,0-1,.2-1.5.3-.5,0-1,.4-1.5.5-.5.1-1.1,0-1.5.2-.5.2-1,.5-1.3.8,0,0,.2.2.2.2.5,0,1-.1,1.5-.2.5,0,1-.1,1.4-.2.5,0,1,0,1.5-.1.5,0,.9-.3,1.4-.4.5,0,1,0,1.5,0,.5,0,1-.2,1.5-.2.1,0,.2,0,.4,0,.6-.1,1.2,0,1.6,0,1-.2,1.5-.5,1.4-.3,0,.1-.5.4-1.3.8-.2.3-.3.7-.7.9-.3.5.6-.3.7-.4.8-.2,1.3-.3,1.6-.3.7,0,.2.5-.6.9-.4.2-.9.6-1.4.8.2,0,.8-.3,1.5-.5.5-.1,1-.6,1.5-.7.6-.1,1.2,0,1.6,0,.8-.1,1.1-.2,0,.3-.4.1-.8.4-1.3.5-.4,0-.9.1-1.4.2-.5,0-.9.2-1.3.3-.5.1-1,0-1.4.2-.4.2-.9.4-1.3.7.1.2.8.3,1.6.3.5,0,1-.2,1.5-.2.9,0,1.6.3.9.6-.5.2-1.2,0-1.8.1-.7,0-1.3.2-1.4.8,0,.4.5.5,1.2.5.4,0,.9,0,1.4-.1.5,0,1,0,1.4,0,.6,0,1.1-.1,1.4-.2.4,0,.2,0-1,.4-.4.1-1,.2-1.5.3.5-.6-.2-.3-.3,0-.6.2-1.1.5-1.6.6-.6,0-1.1,0-1.7,0-.5,0-1,.2-1.6.4.4.1.9,0,1.5,0,.5,0,1.1,0,1.5-.1.6,0,1.2-.4,1.4,0,1.5-.3,0,.8.9,1.6-.5.2-1,.4-1.5.6-.5.2-1,.4-1.5.8.5,0,1-.2,1.5-.3.5-.1,1,0,1.5-.2.5-.1.9-.4,1.4-.5.6,0,1.1.1,1.5.2.9.2,1.2.5,1.3.7.6,0,1.3.3,1.9.4,0,0,.2-.2.2-.2.2,0,.4.1.6.1.3,0,.6,0,1,0,0,0,0,0,0,0,.5-.2,1.1-.2,1.7-.3.5-.1,1.1-.3,1.7-.3.5,0,1.1-.1,1.7-.1.4-.3.8-.5,1.2-.8.4-.3.9-.5,1.3-.7.5-.3,1-.4,1.4-.6.6-.2,1.1-.4,1.4-.2.8-.5,1.3-.6,1.6-.7.5-.2.3.2.6,1.3,0,.4-.3.8-.7,1.1-.4.3-.9.5-1.2.7-.2.4-.2.8-.2,1.2,0,.4.2.7.7.8-.2.4-.5.7-.7,1.2-.2.5-.3,1-.1,1.4.3-.3.5-.6.8-1,.2-.4.6-.7.8-1.1.2-.4.3-.9.5-1.2.2-.4.6-.7.9-1,.3-.3.4-.6.8-.8,0,.6-.1,1-.4,1.5-.3.5-.6.9-.9,1.4-.3.5-.5.9-.6,1.5.6-.7.8-1.2,1.4-1.2-.1-.9-.5-.6.3-.5-.2.9.2.7.6-.5,0,.6-.1,1.1-.6,1.5-.4.3-1,.4-1.5.7-.5.3-.9.7-1.2,1.1-.8.7-.2.5.6,0,.5-.3,1.1-.8,1.3-1,.8-.6.6-.1.3.5-.3.5-.9,1.1-.9,1.1,0,.6.6.8.9,1,.5.3,1.1.6.4,1-.2.2-.7.2-1.3.5.1.2.6,0,1.3-.2.4-.2.9-.2,1.3-.4.5-.2,1-.5,1.3-.6-.3.3-.7.6-1.1.8-.4.2-.8.2-1.2.4-.4.2-.8.4-.9.8.2.3.8,0,1.5-.3.5-.2,1-.3,1.5-.6.6-.3,1.1-.7,1.3-.7-.4.3-.7.6-1.1.8-.4.2-.9.4-1.3.7-.4.2-.9.2-1.4.4-.3.1-.5.3-.7.5.2-.1.5-.2.7-.3.4-.2.9-.2,1.3-.4.9,0,.9.2.6.5-.2.2-.6.5-1,.8-.4.3-.5.6-.9.8.4,0,.8-.1,1.4-.5.4-.3.8-.6,1.3-.9.5-.3,1-.4,1.4-.6.5-.1.9-.2,1.4,0-.4.3-.8.4-1.3.7-.4.2-.8.7-1.2,1-.5.2-.9.4-1.4.6-.4.3-.9.4-1.3.7-.4.3-.9.7-1.2,1.1.5-.1,1-.5,1.4-.7.4-.2.9-.3,1.3-.5.4-.2.9-.4,1.3-.7.4-.2.9-.3,1.3-.6.4-.3.6-.8,1-1,.4-.3.8-.5,1.2-.7.4-.3.9-.3,1.3-.5.4-.2.8-.5,1.2-.7.4-.2.8-.6,1.2-.8.4-.2.9-.1,1.3-.2.1.5-.5.5-1.2.7-.6.2-1.2.4-1.5.7-.9-.7-.3,1.3,0,.2.4-.3.5.2,1.4.7-.2.5-.6.8-.9,1-.4.3-.7.3-.3-.7-.6-.3-.4.2-1.1-.5.2.5.6.9.8,1.3.4.5.4.9-.7.6-.3.3.1.7.4.7,0,0,0,.1,0,.2,0,0-.1.2-.3.4.4.4.4-.7.8-.3.7-.3-.1-.5.2-.8.6.8-.1.6-.6,1.1,0,.5.4.9.8,1.2.4.3.8.4,1.1.8.2.3.2.7,0,1.3,0,.5,0,1.1,0,1.6-.1.5-.3,1-.5,1.5-.2.5-.4.9-.6,1.4-.2.5-.4.9-.7,1.4-.2.5-.4,1-.6,1.4-.2.5-.1,1.1-.3,1.6-.2.5-.5.9-.6,1.4-.1.5-.3,1.1-.4,1.6.2-.4.6-.9.8-1.3.3-.4.3-.9.6-1.3.2-.4.4-.8.6-1.2.2-.4.5-.7.7-1.1.2-.4.3-.8.5-1.2.2-.4.3-.8.6-1.2.3-.9.7-2,.8-1.5.4-.2.8-.4,1.3-.7.4-.3.8-.6,1.2-.9.4-.3.8-.5,1.2-.8.4-.3.8-.5,1.2-.8.5-.3.8-.6,1.3-.7.5-.1.9-.1,1.4.1-1.6.6,0,.7-.7,1.4-.1-.2-.8-.4-1,.3.1.2.4,0,.5.2,0,.3,0,.8-.3,1.4-.2.4-.3.9-.5,1.4,0,.2-.2.4-.4.5,0,0,0-.2.1-.2,0-.3-.2-.3-1,.4,0,.2-.2.7-.5,1.3-.2.4-.3.9-.6,1.3-.2.4-.4.9-.6,1.3-.3.5-.5.9-.7,1.2-.3.6-.3.8.5.2.6-.9.8-1.1.7-.9,0,.2-.4.6-.7,1.1-.2.5-.5.9-.4,1.1.3-.4.6-.8.8-1.2.3-.4.6-.8.8-1.3.2-.3.4-.5.6-.7-.2.3-.3.6-.5.9-.2.5-.5.9-.8,1.3-.3.5-.3.9-.5,1.3.4.1.8,0,1.3-.3.3-.3.5-.8.8-1.3.2-.4.4-.9.6-1.3.2-.4.7-.7.9-1.2,0-.2.1-.4.2-.5,0,.2,0,.3,0,.4,0-.1.3,0,.4,0-.3.8-.8,1.7-.7,2,.3.6.7-.2.3-.3,0,0,.3-.4.4-.8.7.5-.1.8.3,1.4.3-.3.2-1.5.5-.8,0,0,.3,0,.4-.1,0,0,0,0,0,0,0,0,0,.1,0,0,0,0,0,0,0,0,.1.2.4-.1.7-.7.2-.4.2-.9.4-1.3.3-.6.7-1,.8-1.1-.1.4-.5.9-.8,1.4-.2.5-.4,1-.6,1.5-.3.7-.6,1.3-.6,1.5,0,.7.4.4.7-.3.2-.4,0-.9.3-1.4.2-.4.6-.8.8-1.2.3-.5.3-.9.5-1.2-.1.4-.2.8-.3,1.2-.2.4-.5.7-.7,1.1-.2.4-.2.9-.4,1.3-.2.4-.4.8-.5,1.2.5-.9,1-1.1,1.1-1.2.1-.2-.3.5-.7,1.4-.2.5-.5,1.1-.7,1.5.4-.5.8-.9,1.1-1.2.8-.8,1-1,.4-.3-.2.3-.4.7-.9,1.2.4.7.7.5,1.1,0,.3-.4.6-.8.9-1.3.3-.5.7-1.1,1-1.3-.2.5-.7.9-.9,1.3-.3.5-.3,1-.6,1.4-.3.4-.6.8-.9,1.2-.3.4-.4.8-.7,1.2.3-.3.6-.6.9-1.1.3-.4.5-.9.7-1.3.2-.5.4-1,.6-1.4.3-.6.6-.9,1-1.1-.2.4-.4.7-.7,1.1-.3.4-.7.8-.8,1.2.3.1.5-.9.5-.3,0,.5-.9.6-.7,1.2.3.8-.1,1.2-.3,1.9-.2.2-.5.8-.7,1.3-.2.6-.4,1.2-.2,1.3.2-.2.5-.8.5-.2-.1.6-.2,1-.2,1.3,0,.7,0,.7.4,0,.2-.3.4-.6.7-1.2,0-.3.2-.8.4-1.2.2-.4.5-.8.6-1.1.2-.4.3-.4-.2.6,0,.8.3.5.8-.1.2-.3.3-.9.6-1.4.2-.3.4-.5.7-.8-.2.5,0,1,.6,1.4,0,.4-.2.8-.4,1.2-.1.4-.4.8-.5,1.2-.2.4-.2.8-.4,1.3-.1.4-.1.9-.2,1.4-.4.3-.5.8-.7,1.2,0-.3-.5,0-.3,0,.4,0,.7-.3.9-.8.2-.4.2-.9.4-1.3.2-.6.4-1.1.6-1.1,0-.6.3-1,.4-1.4.2-.7.4-1.2.6-1.3.4-.2.7.3,1.1.8.2.4.6.7.8,1.2.1.4.2,1,.2,1.5,0,.5,0,1,0,1.5,0,.5,0,1,0,1.5-.1.5-.5.9-.8,1.2-.8.3-.5,1.1-.9,1.8,0,0,0,0,0,.1,0,0,0,0-.1,0,0,0,0,0,0,0,0,0,0,0,0,0-.3,0-.7.1-.7.5-.1.6-.6.5-.6,1.2.2.6.1,1.1,0,1.6-.2.5-.3,1-.5,1.5,0,.3-.3.5-.4.7-.3.7-.3-.1-.5,0,0,.4-.1.9-.2,1.3-.1.4-.3.8-.5,1.2-.2.4-.3.9-.6,1.2-.3.4-.4.9-.5,1.3-.4.6-.7,1.1-1.1,1.7-.3.2-.2,1.2-.7,1-.7-.5,1.1.8-.9.9.7,0,.6.2.2.6-.3.4-.9.7-1,.8-.2.4-.2.9-.5,1.4-.2.4-.5.8-.7,1.3-.3.4-.5.8-.8,1.2-.3.4-.7.7-.9,1.1-.3.4-.6.8-.8,1.2-.3.4-.4.9-.6,1.3-.3.4-.6.8-.8,1.2,0,.3.5-.2,1.1-.9.3-.4.4-.9.7-1.3.3-.4.7-.8.9-1.2.4-.5.7-1,.9-1.2,0-.2.3-1,.8-1.7.6-.8,1.3-1.6,1.2-1.1.3-.5.7-.5,1.2-.8.3-.2.7-.4,1.2-.8-.2.5-.5.8-.8,1.2-.3.4-.6.8-1,1.1,0,.4-.2.9-.1,1.4,0,.6.3,1.2-.3,1.3,0,.5,0,1-.3,1.7-.2.6-.7,1.1-.8,1.6.2-.2.6-.9.9-1.4.4-.7.8-1.4,1-.9,0,.4-.2.8-.4,1.2-.2.4-.3.8-.6,1.2-.2.4-.6.6-.8,1-.2.4-.4.8-.5,1.2,0,.1.2.3.2.5-.1.6-.6,1-.9,1.6-.2.5-.2,1.2-.5,1.7.1.2.3,0,.8-.9.2-.3.3-.9.5-1.5,0,.4,0,1-.3,1.5-.2.4-.6.9-.8,1.2-.3.5-.2.9.7.6-.2,1.2,0,1.3.4,1,.3-.3.8-.7,1.1-1.2.3-.4.6-1,.9-1.4.5-.8.9-1.6.8-1.5,0-.9.7.3,1.2-.3-.1.5-.3.8-.2.9,0,0,.4-.6.7-1.4.2-.4.5-.9.7-1.3.2-.5.4-1.1.6-1.5.5.3.5,1,.2,1.5-.2.4-.6.9-.6,1.4,0,.4,0,.9.5,1.4-.2.5-.2,1-.4,1.4-.2.5-.5.9-.8,1.3-.2.5-.3,1-.5,1.4-.2.4-.6.8-.8,1.3,0,.6.6.5.9,0,.3-.3.3-.9.3-1.1.3-.3.7-.6.9-1,.2-.4.3-.8.6-1.2.2-.4.4-.8.6-1.2.2-.4.4-.8.5-1.2.4-.4.7-.8,1-1.1.3-.4.8-.6,1.1-1,.3-.4.5-.9.7-1.3.3-.4.6-.8.8-1.3.2-.4.6-.8.8-1.3.2-.4.2-1,.5-1.4.3-.4.6-.8.9-1.2.3-.4.6-.7.9-1.1-.3.4-.4.8-.7,1.2-.2.4-.6.8-.8,1.2-.2.4-.3.9-.6,1.3-.2.4-.4.8-.6,1.3-.2.4-.6.8-.8,1.2-.2.4-.4.8-.7,1.3-.2.4-.4.9-.6,1.3-.2.4-.6.7-.8,1.1-.3.4-.4.9-.7,1.2.2.6.4,1.1.4,1.6,0,.6,0,1.1,0,1.7,0,0,0,0,0,0,.3-.6.8-1,1.2-1,.3,0,.6.6.9,1.4.4-1.3.5.7.6-.2.6.2,1.1.6,1.5.7.6.2,1.2.2,1.6.3.8.1,1.3-.1,1.5-.3.5-.4.5-1.2,1-1.3.3,0,.8,0,1.6.5.9.3.8.8.8,1.2,0,.5-.4,1,.4,1.3-.2.8.9.2,1.3.3.5.1.4-.4.5-.6.1-.5.5-.7.9-.8.4,0,.7,0,1-.4.2.7.1,1.4.6,1.9.1.2,0,1.2.4,1.3.2-.3,0-1.1-.3-1.3,0-.7.1-1.2.1-1.5,0-1.1,0-1.1.7-.5.1.6.2,1.2.2,1.8,0,.6-.2,1.3,0,1.8.3.3.2-.7.1-.9,0-.5.1-1,.1-1.5,0-.5-.1-1-.2-1.5,0-.5,0-1-.1-1.5,0-.5-.2-1-.3-1.5.3.2.5.8.6,1.4,0,.4.3.9.3,1.5,0,.5,0,1,0,1.5,0,.5,0,1,0,1.5,0,.5.1,1,.1,1.5,0,.6.2,1,.2,1.4.4-.2.3-.9.4-1.6.1-.9.2-1.6.7-1,0,.6.2,1.2.2,1.7.1.6.2.9,1.1.3,0-.6,0-1,.1-1.4.2-1.1.4-1.1.5-.5,0,.3.2.8.2,1.4,0,.4-.2.9-.3,1.4,0,0,.1,0,.2,0,0-.8,0-1.3.2-1,.1.1.4.4.7,1.1,0-.6,0-1.2.1-1.6,0-.8.2-1.3.3-1.5.1-.5.3,0,.6.9.2.4,0,1.1.3,1.6.2.5.6,1,.8,1.4,0-.4,0-.9,0-1.4,0-.4,0-.9,0-1.3,0-.4.2-.9.2-1.4,0-.4-.1-.9,0-1.4.1.4.2.9.3,1.4,0,.5,0,.9.1,1.4,0,.5.1.9.2,1.4,0,.5.2,1,.3,1.4.1.5.4.9.6,1.2,0-.2,0-.7-.1-1.4,0-.4-.4-.9-.4-1.4,0-.5.1-1,0-1.5,0-.6-.4-1-.5-1.4-.1-.8,0-1,.3.1.5.9.4-.6.3-1,.5.3.9.8,1,1.3.1.5.2,1,.2,1.6,0,.5-.1,1.1-.2,1.6,0,.6,0,1.1,0,1.6,0,.6,0,1.1.4,1.5,0,0,0,0,0,0,0-.1,0-.2,0-.3,0,0-.1,0,0,0-.2-.2-.3-.5-.2-.9.1-.4.2-.7.3-1.1.1-.4.1-.8.3-1.1,0-.2,0-.3,0-.4,0-.3.3-.6.5-.8,0,0,0,0,0,0,0,0,0-.2,0-.2,0,0,.1,0,.1,0,0-.1.3-.2.3-.3,0-.2,0-.4.1-.6,0-.3,0-.4-.1-.5,0,.6-.4-.2-.1-.6.1-.2.4-.4,1,0,.5,0,.8.2,1.1.6.2.3.2.8.3,1.3,0,.4.3.8.4,1.2.1.5.2.9.4,1.2.1.1.2.2.3.2,0-.5,0-.9,0-1.4,0-.5.3-1,.3-1.4,0-.3-.2-.7-.2-1,0,0,0-.2,0-.2-.1-.4-.2-.6-.2-.7.4,0,.8-.4,1.2-.6.4-.1,1,0,1.4-.3.4-.2.9-.5,1.2-.8.4-.3.7-.8.8-1.2.1-.4-.2-.9-.5-1.4.6-.3,1.2-.4,1.6-.6.6-.3.8-.6.8-1.3,0-.4.1-.9-.2-1.7,0-.4-.1-.9-.2-1.4,0-.4-.3-.9-.4-1.3,0-.4-.2-.7-.3-1.1.1.4.4.8.5,1.2.1.5.4.9.6,1.3.1.5.2.9.3,1.4.1.4.1.9.3,1.4,0,.4.3.6.6.7,0-.5.3-1,.3-1.5,0-.2-.2-.4-.3-.6-.1-.2-.4-.3-.5-.6,0-.1.1-.3.2-.4,0,0-.3-.1-.3-.2,0-.3.4-.5.7-.4,0-.1.3-.4.4-.3.2,0,.2.2.3.4.2.4.5.7.8,1.1.2.4.6.7.8,1.1,0,0,.1.2.1.2.2-.5,0-1-.2-1.5-.1-.4-.3-.9-.5-1.4-.2-.4-.6-.8-.8-1.3-.2-.5-.3-1-.3-1.4,0-.2,0-.4.1-.5.5.4.9.6,1.1.5.1-.2,0-.7-.2-1.2-.3-.5-.5-.9-.7-1.3-.5-1.1-.6-1.1-.2-.7.2.2.7.5,1.1,1,.3.3.3.9.6,1.3.3.4.7.6,1,1,.3.4.3.9.6,1.3.3.4.7.7.9,1.1.3.5.7.9.9,1.2-.2-.4-.6-.9-.8-1.3-.2-.5-.5-1-.6-1.4-.2-.8-.1-1.1.5-.4.2.3.6.6,1,1.2-.3-.5-.6-1.7.2-1.2.3.4.6.6.8.8.3.2.5.4.8.7-.2-.3-.6-.5-.9-.9-.2-.4-.2-.9-.3-1.3-.3-.7-.5-1,0-.7.3.4.6.7.8,1.2.3.4.6.8.8,1.2.3.4.5.8.8,1.2.3.4.5.9.7,1.3.3.4.7.7.9,1.1.3.4.6.8.9,1.1.6.5,1.1.6,1,0,0-.3-.2-.7-.5-1.2.5.5.8.9,1.1,1.1.6.4.4,0-.1-.9-.2-.4-.6-.8-.9-1.2-.3-.4-.7-.8-1-1.2.3,0,.8.4,1.1.9.3.4.4.9.6,1.3.3.4.8.7,1.1,1,.4.4.6.6.6-.3,0-.3-.3-.8-.6-1.4-.2-.4-.6-.7-1-1.2-.3-.4-.5-.9-.8-1.3-.3-.4-.6-.8-.9-1.2-.4-.5-.8-.8-1.1-1.1-.6-.7-.6-1,.2-.3.6-.1.8.3,1.3.8.3.3.8.7,1.4.9.2,0-.3-.4-1-1.1-.3-.4-.5-.9-.8-1.3-.4-.5-1-1-.9-1.3,0-.3.6-.5,1.5-.3.1-.2-.4-.5-.9-1.1-.4-.4-.7-.9-1-1.2-.1-.1-.2-.2-.3-.3,0,0,.2.1.3.2.2.2.5.6.8,1,.3.3.7.6,1,.9.3.4.5.7.8.9-.2-.5-.5-.9-.9-1.4-.4-.5-.7-1-1.1-1.4-.8-1-.7-1.2-.3-.8.2.2.5.7.9,1.2.3.3.6.8.9,1.2.3.4.8.7,1.1,1,.4.4.8.8,1,1-.3-.4-.5-.8-.8-1.2-.3-.4-.4-1-.7-1.4-.3-.4-.7-.7-1.1-1.1-.3-.4-.8-.6-1.2-.9-.4-.4-.6-.9-.9-1.2-.4-.3-.8-.6-1.2-.9-.4-.3-.7-.7-1.1-1-.4-.4-.8-.6-1.2-1-.3-.4-.6-.9-.9-1.2-.2,0-.8-.3-1.4-.8-.4-.3-.5-1-.9-1.4-.4-.4-.9-.7-1.2-1.1-.6-.7-.9-1.3-.7-1.3-.2-.3-.5-.6-.7-1-.3-.4-.6-.7-.9-1.1-.3-.4-.5-.8-.8-1.2-.3-.4-.5-.9-.8-1.2-.3-.5-.5-.9-.6-1.3-.2-.6-.3-1.3,0-1.5.2.3.3,0,.1-.4.4,0,.8-.2,1,0,.5-.8.6.8,1.1.5,1.6,0-.6-.3,1.1-.2-1-.4,1.4.1,1.5,0,.7.7.2-1.1,1.8.3.3.2.3-.5.7,0,.4,0,.4.2.9.8-.4-.6-.2-1.6.3-.6,0-.2,0-.7.4-.5.3.7.9-.5,1.1.5-.2.6-.3.5.3.9-.1-.3-.3-.6.1-.7.2-.4.4.3.6.3.1-.4.5-.6.3-1,.5.6.5-.4,1,.2-.3.3-.8,0-.8.6.3-.3,1.1-.4,1.5-.4.3-.5.9,0,1.3.2.7-.3.4-.7-.5-1-.8.1-1.2,0-1.4-.4-.2-.4,0-1.2-.5-1.4-.3.2,0-.4.2,0,0,.1.6.3.5,0-.8-.8-.1-.7.3-.8.2-.1-.3-.4.1-.4.5,0,.4.4.5.7.2,0,.2-.1.2-.4,0-.6-.7-.2,0-.6-.4,0-1-.3-.8-.7,0-.6-1.6-.4-.7-1.3-.3-.3-.8.1-.9-.7-.4-.6-1.1-.6-1-1.4-.2-.3-1.9-.8-.8-.6.3.4.6,0,0,0-.5-.2.2-.4.2-.7-.5-.7-1,.5-1.6-.3-.2,0-1.3-.8-.6-.5,0-.1,0-.4-.1-.4-.5-.3.4-.5.5-.5-.5-.8-.4-.9,0-.9.3,0,.7.2,1.1.5,0-.3-.5-.7-.8-1.1-.3-.4-.4-.5.7.2-.3.6.6.5.6.8.7.2.7.9,1.3.8.5-.3-.1-.7.4-.9.7-.2-.2-.3.3-.5.5.7.7,1.1.9,1.3.5.6.3,0-.3-.9-.3-.4-.6-.9-.9-1.3.1-1.1.3-1,.8-.5.3.3.8.8,1.4,1.2-.1-.5-1-1-.8-1.6,0-.2,0-.4-.3-.4-.4.2-.7-.3-.9-.8-.2-.4-.4-.7-.5-1.1.5-.3-.4-.3-.4-.5.1,0,.2,0,.2-.2-.5-1,.5.2.5.3,0,.2.4.7.9,1.2.3.3.7.6,1,1,.3.3.8.6,1.1.9.4.4.7.7.9,1,.5-.2.4-.6,0-1.1-.3-.3-.6-.7-1-1.1-.4-.3-.8-.6-1.1-.9-.5-.5-.6-1-.5-1.3,0,0-.6-.3-1.1-.8-.3-.3-.4-.8-.7-1.1-.3-.4-.7-.7-.9-.9-.3-.4-.4-.5.5.2,0-.6.5-.5,1,0,.3.3.6.6,1,1,.3.3.6.7.9,1,.4.4.8.7,1,1-.2-.4-.6-.7-.8-1.1-.2-.4-.4-.8-.7-1.1-.2-.4-.5-.8-.7-1.1.5.1.9.5,1.4.9.8.6,1.4,1.1.9.8-.2-.2-.7-.3-1.3-1,.1.3.4.6.8,1.1.2.3.6.6.9,1,.3.4.4.9.7,1.2.3.4.7.6,1,1,.4.4.7.8.9,1,.5.5.8.6.4-.3.3-.2-.7-.8-.8-1.2.4.4.8.9,1,1.1.9.8.9.6.5,0-.2-.3-.6-.7-.9-1.2.4.4.8.7,1.1.9.5.4.9.6,1.2.6,0-.3-.4-.8-.9-1.4-.3-.4-.7-.8-1.1-1.2-.4-.4-.6-1-.9-1.4-.6-.8-1-1.2-.4-1,.4.2.8.5,1.1.7-.1-.1-.3-.3-.4-.5.3,0,.7-.6.3-.5-.6-.4-.9-.6-1.2-.8-.8-.7-.2-.6.2-.8.3-.1.4-.4-.2-1.2-.2-.3-.7-.6-1.1-1,.4.4,1,.5,1.4.9.4.4.5,1,.7,1.4.3.4.6.8.8,1.3.2.5.2,1,.4,1.5.2.5.3,1,.4,1.5.1.5.4.9.6,1.5.2.5.3,1,.5,1.5.3,0,.7,0,.8.4.3.5.6,1,1,1.5-.2-.3-.2-.7-.3-1.1-.1-.4-.3-.7-.3-1.1,0,0-.3-.1-.4-.3-.2-.4,0-.9-.2-1.4-.2-.4-.4-.8-.6-1.2-.2-.4-.5-.8-.7-1.2-.1-.4-.1-.9-.2-1.4,0-.4-.1-.9-.2-1.4-.1-.3,0-.4,0-.4,0-.2,0-.5,0-.7,0-.4,0-1,0-1.5.1-.5.3-1,.5-1.4.2-.5.3-1,.5-1.4.4-.6.7-1,1-1.1-.8.8.5-.1,1,0,.5,0,.9,0,1.3.3.4.2.7.4,1.2.5-.3-.3-.7-.6-1.1-.9-.5-.4-.9-.8-.5-1.1.6,0,1.2.9,1.7.3.1-.2.3-.2.5-.3-.5-.2.4-1,.2-1.5-.1-.4-.9.3-1-.3.7,0,1.1-.2,1.5-.2.8,0,.7,0-.5-.3-.4-.1-.8-.4-1.4-.6-.4-.6,1.2-.3,1.4.5,0-.6.7-.2,1.5.1.7.4,1.6.7,1.7.5-.3-.4,1.1,0,1.7.1.4,0-.8-.3-.9-.2-.6-.3-1-.6-1.2-.7-.6-.3-.1-.1.7,0,.4,0,.9.2,1.4.3-.7-.3-1.2-.4-1.5-.6-1.1-.5-.8-.3.1,0,.4.1,1,.1,1.6.3.5.2,1,.6,1.5.8.3-.2-.4-.5-1.1-.9-.6-.3-1.3-.8-1.5-.9.4-.2,1,.1,1.5.4.5.3,1,.7,1.4.4,0-.5-.7-.8-1.4-1.1-.6-.2-1.1-.3-1.3-.7.5.2.8.2,1.2.4.4.2.9.3,1.4.4.4.2.8.6,1.2.8.4.2.9.2,1.4.4-.5-.3-.9-.5-1.2-.7-.5-.3-.9-.4-1.1-.8-.1-.3-.2-.8-.1-1.4.4-.1.4-.8,0-.5-.2-.6.2-.3.8,0,.4.2.9.2,1.3.4.5.2.9.3,1.1,0-.2-.4-.6-.6-1.1-.8-.5-.2-1.2-.4-1.4-.7,0-.2-.3-.3-.5-.6.2,0-.2-.5-.4-.4-.7.3-1.3-1.7-.8-.7.5.5-.2-.5,0-.5.4,0,.9-.4.6.2-.2.1,0,.5.2.3.4-.2.7,1.1,1.2,1.4-.3-.6-.6-1.1-.7-1.4-.3-1,0-1.1.6-.7.3.2.4.8.7,1.3.2.4.7.7.9,1.2.8.6.6-.1.2-.9-.3-.7-.7-1.2-.8-1.4.6,0,.8-.7,1.1-1.2.2-.4.4-.6,1,.4.4.6.1-.5-.2-.6,0-.2.3-.8.7-1.1.3-.3.7-.6,1-.8.4-.2,1.1-.2,1.4,0-.4-.6.1-.8.4-1.4.1-.7-1-.5.6-.9.3.3.7.6,1.1.8.4.2.9.5,1.3.4.3,0,.6-.5.7-1.1-.9-.5-1.5-1-.4-1.4.3-.5-.9.2-1,.3,0-.6.6-.8.7-.9.2-.1,0-.3-.8-.7.5,0,.9-.2,1.3-.3.7-.1,1.1-.2,1.3-.3.3-.2-.2-.3-1-.4-.4,0-.8-.3-1.2-.4,0-.3.9,0,1.6-.3.6-.2,1-.6,0-1.3.8-.5-1.1,0-1.4-.1,0-.5.2-.6.7-.6.4,0,.8.1,1.2.1.2-.4.7-.4,1.4-.4.5,0,1-.2,1.5-.2.6,0,1.1,0,1.3-.4-.3-.3-.6-.6-.9-.8-.4-.2-.8-.3-1.2-.5-.4-.2-.6-.3-1-.4.4,0,.7,0,1.1.2.4.2.8.5,1.1.7.5.3.9.7,1.1.6.8,0-.4-.8-.7-1,.4-.3.6-.4.6-.4.2.1.4.2.4.2.1,0,0-.2-.3-.5.5.3,1.1.6,1.5.7-.3-.4-1-.7-1.5-1.1-.5-.3-.9-.6-1.4-.9-.5-.3-1-.6-1.4-.9.5,0,1-.1,1.5-.2.5-.1,1-.3,1.4-.4.5-.1,1-.3,1.4-.4.5-.1,1-.1,1.5-.2.5-.1.9-.5,1.4-.6.5-.1,1-.3,1.4-.5.5-.2,1.1,0,1.5-.2.5-.2,1-.4,1.4-.6.5-.2.9-.6,1.3-.8.5-.2.9-.5,1.3-.7.8.1.9-.8,1.2.3,0,0,.3,0,.3,0,.1-.6.2-1,.8-1.4.5.2.7-.5,1.2-.5-.4-.4-.5.1-.7-.5-.1-.5,0-1,.2-1.5.2-.4.5-.8.9-1.3.3-.4.9-.6,1.2-1,.3-.4.5-.9.8-1.4.8.3.2-.9.9-1.1.4-.2.3.5.5.1.2-.4.2-1-.4-.6.8-.9.6-1.1.2-.9-.4.2-.9.9-.9,1.1-.6.6-1,.8-1.2.9-.5.2-.4-.5.2-1.2.3-.4.9-.6,1.3-.9.4-.5.8-.8,1.2-.8.7,0,1.4.4,1.6,0,.1-.2.1-.7,0-1.6.1-.4.4.2.6-.2.2-.3.2-.3.5-.2.7.4.2-.2.2-.7.9.4-.4-.5.1-1-.7-.4-.7-.7-.5-.9.2-.2.6-.4,1-.7.6-.8-1.1-.2-1.4,0,.3-.2.2-.5,0-.4,0,.3-.4.8-1,1-.5.2-1.1.2-1.5.2-.7.1-.9.2.2-.3.4-.2.7-.6,1.2-.9.4-.2.9-.4,1.4-.6.4-.3.8-.7,1.2-.9.4-.3.8-.4,1.2-.6-.5,0-.9.4-1.5.6-.6.3-1.1.2-1.5-.3-.3-.1-1.3,1.2-1.5.6,0,0,.1,0,.2-.1-.5.1-.7,0-.2-.5.5,0,1.1-.2,1.5-.5-.1.2-.4.5-.7.6.2,0,.4-.2.6-.2.6-.3,1.2-.5,1.4-.6.3,0,.1,0-1,0,.3-.2.6-.5,1.1-.4.7,0,.5-1.3-.2-.4-.3,0-.7.6-1.3.9-.8.4-1.6.7-1.5.4.5-.5-.1-.8-.5-.3-.3-.2-.5,0-.1.2,0,.2-.6.3-.8.5.6-.3.7-1.2.4-1.5-.4-.3.2-.5.5-.2.6,0-.5.7.2.5.5-.4.1-.4.7-1,.2.2,0,.3.3.3.2-.5.5-.8.8-1.2.3-.4.7-.7,1.1-1,.4-.3.8-.6,1.2-.8.4-.2.9-.4,1.3-.6.4-.2.8-.5,1.2-.8.4-.3.7-.5.9-.9-.5.2-.8.3-1.2.5-.6.3-1.1.5-1.4.6.3-.2.9-.4,1.6-1-.3.2-.8.3-1.3.6-.4.3-.7.7-1,1-.5.3-1,.5-1.4.6.2-.3.5-.9.8-1.3.3-.4.6-.7.9-1.1.3-.4.8-.6,1.1-1,.3-.4.7-.7,1-1.1.3-.4.5-.8.9-1.2.3-.4.5-.8.8-1.2.3-.4.7-.7,1-1.1.3-.4.7-.7,1-1.1.3-.4.6-.8.9-1.2.3-.4.4-.9.6-1.3.3-.4.6-.8.8-1.2.2-.5.4-.8.6-1.3-.3.3-.6.6-1,.9-.3.3-.7.6-1,1-.3.3-.6.7-.9,1-.3.3-.5.8-.8,1.1-.3.3-.8.5-1.1.9-.3.3-.6.7-.9,1-.3.3-.4.9-.8,1.2-.3.3-.7.6-1,.9-.4.3-.8.5-1.1.8.2-.4.3-.8.5-1.2.2-.4.4-.8.7-1.1.3-.4.5-.7.8-1,.3-.3.6-.6,1-.9.4-.2.7-.5,1.1-.7.3-.4.6-.7.9-1.1.3-.4.6-.7.9-1.1.3-.3.6-.7.9-1,.3-.3.7-.7,1-1,.3-.3.5-.8.9-1.1.3-.4.8-.6,1.1-.9.3-.4.4-.8.7-1.2.3-.4.5-.6.7-1-.4.4-.5.7-.9,1.1-.3.4-.9.5-1.3.9ZM252.1,121.1s0,0,0,0c0,0,0,0,0,0ZM249.3,127.1c-.2.2-.4.4-.7.5,0,0,.3-.3.7-.5ZM248.5,127.7s-.1.1-.1,0c0,0,0,0,.1,0ZM247.6,100.6c0,.2-.1.4-.3.6,0-.2.1-.4.3-.6ZM78.1,108.6c-.3-.4-.5-.8-.6-1.3,0-.2-.1-.5-.1-.7,0,.1,0,.2.1.3.2.4.7.8,1,1.2.3.5.7,1,.8,1.4-.5-.2-.9-.6-1.1-.9ZM81.7,142.6s.1,0,.1,0c0,0-.2,0-.1,0ZM81.9,144.2s0,0,0,0c0,0,0,0,0,0ZM82.3,144.7c0,0-.2-.2-.2-.2.1,0,.4.2.2.2ZM82.3,145c0,0,0,0,.1,0,0,0,0,0-.1,0ZM83.4,145c0-.1.4.2,0,0,0,0,0,0,0,0ZM83.5,145.8c-.1-.3,0-.3.2-.3,0,.1-.1.2-.2.3ZM83.5,145.2c0,0,.2,0,.3,0,0,.4-.1.2-.3,0ZM103.3,109.2c0-.1-.1-.2-.2-.4,0-1,.3-.1.6.4-.2-.2-.4-.2-.4,0ZM118.9,191.9c.3-1.1,0-.1.2-.2,1.7-.6-.8,1.4-.2.2ZM118.9,193.8c-.5.2-1.1.4-1.3.6,0-.4.4-.7.9-.9.5-.2,1-.4,1.1-.7.4.3,0,.7-.7,1ZM119.8,192.5c-.2,0-.6.4-1,.7-.5.4-1,.7-1,.6,0-.1.6-.6,1.1-1,.6-.5,1.2-.8.9-.3ZM119.3,195.7s0,0,0,0c0,0,0,0,.1,0,.5-.2,1-.5,1.4-.5-.4.2-1,.3-1.5.5ZM121,194.5c-.3,0,0,0,.1-.1.1,0,0,0-.1.1ZM121.3,194.6s0,0,.1,0c0,0,0,0-.1,0ZM129,194.4c.4.2-.4.2-.6.3.2-.1.4-.2.6-.3ZM129.1,194.7c0,.2-.4.3-.5.2.2,0,.3-.1.5-.2ZM127.4,195.4c.2,0,.3-.2.4-.2-.2,0-.3.4-.4.2ZM127.5,195.5c.9-.8.6.1.2.6-.1.1,0-.5-.2-.6ZM126.8,197.8c.2-.4.6-.8.8-1.1.1.2.6.9.9.5,0-.5,0-.4.4-.3-.3.4-.6.7-.9,1-.3.3-.6.6-.8,1.1-.5,0-.6-.7-.3-1.2ZM128.2,200c-.2,1.4-.9-.4-1.1-.7.6-.3,1.7-2,1.2-.9.4-.8,1.2-.8.4.2-.4.3-1.6,1.6-.6,1.5ZM133.1,209c0,.2,0,.5-.1.7,0-.2,0-.4.1-.7ZM133.7,209.1c0,.2-.2.4-.3.6,0-.2.1-.4.2-.6.2-.5.3-1,.5-1.3,0,.4-.2.8-.4,1.4ZM135.4,207.9c-.1.3-.3.6-.4.9,0-.4,0-.8.2-1.2.2-.5.5-.8.6-1.3,0,0,0,.2,0,.3-.1.4-.2.8-.4,1.2ZM136.1,205.2c0,0,0,.2,0,.3,0-.2,0-.4.1-.6,0,0-.1.1-.2.2.3-.8.3-1.3.3-1.4.1-.2,0,.6-.2,1.5ZM140.3,211.9c.1-.3.1-.2.2,0,0,0-.2,0-.2,0ZM142.9,215.2c-.3.3-.6.5-.9.8.2-.4.3-.9.6-1.2.4-.6.7-1,.9-1,0,.5-.1.9-.5,1.4ZM188.6,250.7c.6.5,1,.8,1.2,1,.5.4-.1.1-.9-.6-.3-.3-.8-.7-1.2-1.1.2.1.5.3.8.7ZM177.9,247.1c0,.3,0,.8,0,1.1,0-.4,0-.8,0-1.1ZM192.7,208.7c-.8-1.2-1-1.5-.7-1.2.2.2.6.7,1.1,1.3-.2-.2-.4-.2-.4,0ZM199.5,198.8c.2,0,.5.5.5.5-.2,0-.4-.4-.5-.5ZM200.3,198.2c-.2-.2-.4-.3-.6-.4.2.1.7.2.6.4ZM202.3,194.9c-.8-.2.4,0,.6.2-.2,0-.4-.2-.6-.2ZM203.5,195.3c-.2-.1-.6,0-.7-.4.2.1.9,0,.7.4ZM204.3,195.6c.3-.4.7,0,1,.2.1.3-.8-.1-1-.2ZM206.6,191.7c.7-.6.8-.1.9.6-.3-.2-.6-.4-.9-.6ZM209.9,191.2c.6.4.1.2-.3,0-.2-.4,0-.2.3,0ZM209.1,194.3c.1.1-.2,0-.1,0,0,0,0,0,.1,0ZM209.3,186.9c0-.2,0-.1.1,0,0,0,0,0-.1,0ZM211.3,186.6s0,0,0-.1c0,0,.1.1,0,.1ZM211,185.4c.1.3.3.8-.2.8-.5-.7.7-1.6.9-.6-.4.2-.4-.7-.7-.2ZM215.3,185.8c-.3.2-.9.2-1.6.3-.4.1-.9.3-1.2.2-.3,0-.6-.4-.5-1.1.6,0,1.2.4,1.7.2.3-.6.9-.9,1.3-.8.6,0,1,.8.2,1.2ZM216.5,185.2c0-.2-.8-.9-.4-.8,0-.1.6.7.4.8ZM216.7,185.2c-.1-.3-.3-.5-.4-.8.3.3,1.2.7.4.8ZM218.6,183.9c-.3-.2,0,0,.2,0,.1,0-.1,0-.2,0ZM223.7,177.2c-.4.2-.5-.5-.7,0-.7.1-1.1,0-1.2-.2-.2-.3.2-.8,1-.5.3.1.6.4,1,.8ZM225.8,174.5c.3.2.5.4.7.5-.1,0-.3-.2-.7-.5ZM225.8,174c-.3-.1-.6-.3-.9-.4.3,0,.6.2.9.4ZM235.6,88.6c-.4.2-.5,0-.6-.4.2,0,.8-.1.6.4ZM241.9,161.4c-.2-.6.1-.5.6-.5-.2.1-.4.3-.6.5ZM249.2,141c-1,.5-1.1,1-.5,0,.3-.1,0-.3,0,0,0,0,0,0,0,0-.5-.2,1.1-.7.5,0ZM249.3,131.8c.1-.2,0-.2.3-.1,0,0,.1,0,.2,0-.3.2-.6.4-.5.2ZM249.3,140.9c0-.2.4-.6.6-.4-.2.2-.4.3-.6.4ZM250,140.3c0-.1.1-.1.2-.2,0,0-.1.1-.2.2Z"/>
  <path d="M245.5,93.8c.2-.4.3-.8.4-1-.2.3-.3.7-.4,1Z"/>
  <path d="M246.4,93c0,.1-.2.3-.2.5,0,.1,0,.3-.1.4,0,0,.1-.2.2-.3,0-.2.1-.4.2-.6Z"/>
  <path d="M246.4,93c.1-.2.2-.4.3-.8-.2.3-.3.5-.3.8Z"/>
  <path d="M256.6,101.9c-.1.2-.2.4-.2.6.3-.4.7-.7,1-1-.2-.5-.5,0-.7.5Z"/>
  <path d="M245.5,93.8c0,.1-.1.3-.2.5,0,0,0,.1,0,.2,0,0,0,0,0,0,0-.2.2-.4.2-.5Z"/>
  <path d="M111.7,118.8c.2.2.4.4.7.6-.2-.2-.5-.4-.7-.6Z"/>
  <path d="M91,88.2s0,0,0,0c0,0,0,0,0,0,0,0,0,0,0,0Z"/>
  <path d="M102.1,78.1s0,0,0,0c.4-.8.2-.7,0,0Z"/>
  <path d="M91.2,88.2c0,0-.1,0-.2,0,.2.3.5,0,.2,0Z"/>
  <path d="M90.3,172.2c-.1,0-.2,0-.3,0,.2,0,.4,0,.6,0,.1,0,.2,0,.3,0-.2,0-.4,0-.6,0Z"/>
  <path d="M74.9,144.3c0,0-.1,0-.2-.1-.5-.2-.8,0,.2.1Z"/>
  <path d="M89,172.4c-.5,0-1,.3-1.5.3-.6,0-1.2,0-1.5,0,0,0-.8,0-1.6,0-.6,0-1.2,0-1.5,0,.5,0,.9.2,1.4.2.5,0,1,.2,1.5.2.5,0,1-.2,1.5-.2.5,0,1-.1,1.5-.2.4,0,.7-.2,1.1-.3-.3,0-.6,0-.9,0Z"/>
  <path d="M111.7,118.8c-.1,0-.2-.2-.3-.3,0,0-.1,0-.2-.1,0,0,0,0,.1.1.1.1.3.2.4.3Z"/>
  <path d="M108.5,115.4c.3.4.6.7,1,1,.3.4.6.8.9,1.1.3.3.6.6.9.8-.3-.3-.6-.6-.9-.9-.3-.4-.6-.8-.9-1.1-.3-.4-.6-.8-.9-1.2-.3-.3-.7-.6-1-.9,0,0,0,0,.1.1.3.4.6.7.9,1.1Z"/>
  <path d="M256.3,102.5s0,0,0,0c0,0-.1.2-.2.3,0,0,0,0,0,0,.1,0,.2-.2.3-.4Z"/>
  <path d="M100.1,74.7c.2-.3.1-.5-.1-.1-.2.3-.4.5-.6.7.2-.3.5-.4.7-.6Z"/>
  <path d="M93.1,85.3c0-.1.2-.3.3-.5,0,.1-.2.3-.3.5Z"/>
  <path d="M254.5,120.7s.5-.5.7-1.1c0-.6-.6.9-.7,1.1Z"/>
  <path d="M168.7,25.6c1.1,2.1,3.5,4.7,5.3,6.3.1,0,.2.1.4.2,0,0,0,0,0,0,.4,0,1.1-.2,1.2-1.4,0-.4,0-.9,0-1.4,0-.9,0-1.9.1-2.8v-.8c.1-1.2.2-2.4.3-3.6.6.7,1.3,1.5,1.6,1.6.3.1.7,0,.8-.3v-.3c.2-.1.2-.2.2-.4v-.4c0-.1-.1-.2-.2-.3h-.1c-1.5-1.7-1.9-2.3-2-2.6.1-.2.6-.8,2.3-2.2h.1c0-.2.2-.3.2-.4v-.4c.2-.1.2-.2.1-.4v-.3c-.2-.3-.5-.5-.9-.4-.3,0-1.1.8-1.8,1.4,0-1.2,0-2.4.1-3.6v-.8c.1-.9.2-1.9.3-2.8,0-.5,0-.9.1-1.4,0-.3,0-.6,0-.9-.2-.4-.5-.7-1-.7-.1,0-.3,0-.4.1-2,1.4-4.7,3.7-6,5.6,0,0-.2.2-.4.4-.4.4-.9.9-1,1.5,0,.8.8,1.2,1.3,1.5.1,0,.3.2.4.2.3.2.5.5.8.8.2.2.3.4.5.5.4.4.7.7,1.1,1.1.2.2.5.4.7.6l.2.2-.3.2c-.3.2-.5.4-.8.6-.3.2-.6.4-.8.6-.3.2-.5.4-.8.7-.3.3-.7.6-1,.8,0,0-.2.1-.4.2-.6.2-1.4.5-1.5,1.3,0,.6.4,1.1.8,1.6.1.2.3.3.3.4ZM171,14.6c0,0-.2,0-.2,0,0,0-.2-.1-.3-.2.7-.8,3.5-3.4,3.9-3.7,0,0,0,0,.1-.1.1-.1.2-.2.3-.3,0,.3,0,.7,0,1,0,.7,0,1.4,0,2,0,.1,0,.3,0,.4,0,.2-.1.5,0,.8,0,.2,0,.5,0,.7,0,.6,0,1.2,0,1.9v.9c-.4-.3-.7-.6-1-.9-.7-.8-1.5-1.6-2.5-2.3ZM170.2,23.7c0,0,.2,0,.2,0,1-.6,1.9-1.3,2.7-1.9.3-.3.7-.6,1-.8v.9c0,.8-.1,1.4-.3,2.2v.4c0,.3,0,.5,0,.8,0,.1,0,.3,0,.4,0,.7-.1,1.4-.2,2,0,.3,0,.6,0,1,0-.1-.2-.2-.3-.4,0,0,0,0-.1-.1-.4-.3-2.8-3.2-3.4-4.1.1,0,.3-.2.3-.2Z"/>
  <path d="M251.8,64.2c.6,0,1.3,0,2.1-.2.4,0,.9,0,1.1,0,.4,0,.9,0,1.4,0,.9,0,1.9,0,2.8,0,.2,0,.3,0,.4-.2,0,0,.2-.1.3-.2.2,0,.4-.2.6-.4h0c.2-.3.2-.5.1-.8v-.2c-.1,0-.2-.1-.2-.2-.6-.5-1.5-.4-2.1-.2-.1,0-.3,0-.4,0-.3,0-.7,0-1.1,0-.3,0-.5,0-.8,0-.2,0-.5,0-.7,0-.1,0-.3,0-.4,0h-1c-.4,0-.7,0-1,.2,0,0,0,0,0,0,.8-.8,1.3-1.3,1.5-1.7,0,0,.2-.1.2-.2l.2-.2s0,0,0,0l.3-.4.2-.2c.4-.4.8-.8,1.2-1.2.4-.4.8-.8,1.2-1.2,0,0,0,0,0-.1.2.1.4.3.5.4.6.5,1.1.9,1.6,1.4l.3.4s0,0,0,0h.1c.2.3.4.5.7.6.2.1.4.2.5.3l.2.2c.1.1.3.2.4.2.1,0,.6,0,.9-.3.4-.5.2-1.2-.2-1.5-.9-.8-1.3-1.1-1.5-1.2,0,0-.2-.2-.3-.3-.1-.2-.3-.3-.3-.4.3.2.5.4.8.6.1.1.2.2.4.3,0,0,0,0,.1.1.5.5,1.8,1.6,2.6.7.1-.1.2-.3.2-.5,0-.3-.3-.5-.3-.6l-1.3-1.1-1-.9-1.2-1.2-.5-.5s0,0,0,0c.3-.2.6-.5.8-.9.4-.4.8-.8,1.2-1.2.4-.4.8-.8,1.3-1.3.1-.1.2-.2.3-.4,0-.1.2-.2.3-.3.2-.2.5-.5.7-.7l.3-.3c0,0,0,0,.1-.2,0,0,0,0,.2-.2,0,.3,0,.5,0,.6,0,.1,0,.3,0,.5,0,.2,0,.5,0,.8,0,.4,0,.9,0,1.4l.2,1.6c0,.5,0,.9.2,1.4,0,.2.1.4.2.6,0,.1.1.2.1.3,0,.1,0,.3.1.4.1.2.3.3.5.4h0c.2.2.6.1.8,0,.3-.4.3-1,.2-2.1,0-.3,0-.5,0-.6,0,0,0-.1,0-.2,0,0,0-.2,0-.4,0-.2,0-.5-.1-.9v-1c0-.3,0-.5-.1-.8,0-.2,0-.5,0-.7,0-.1,0-.2,0-.3,0-.3,0-1.3,0-1.6,0,0,0-.2,0-.2v-.2c0-.5,0-1.2-.5-1.7,0-.1-.2-.2-.4-.2h-.2c-.2,0-.4,0-.5.2-.1.1-.3.3-.4.5-.4.5-.8.9-1.2,1.1,0,0-.1,0-.2.1l-2.4,2.6c-.2.2-.2.4-.2.5-.1.1-.3.3-.5.4-.1,0-.2.2-.3.2,0,0-.1.1-.2.2,0,.1-.2.2-.4.4-.1.1-.3.2-.4.3v.2c-.2,0-.2,0-.2,0l-.2.3-.7.6s0,0,0,0l-3.1,3.4c0,0-.1.2-.2.3-.1,0-.2,0-.3.2,0,0-.1.2-.1.3,0,0,0,0,0,0-.1,0-.4.1-.5.3-.2.2-.4.5-.6.8-.2.2-.4.5-.6.7l-.9,1-.4.5s0,0,0,0l-.2.3h-.1c0,.2-.2.2-.3.3-.1,0-.3.2-.5.4l-.5.6c0,0-.1.1-.2.2-.1.1-.3.3-.4.4,0,0-.1.2-.1.3,0,.4,0,.8.4,1.2.3.3.9.4,1.6.4ZM259.4,55.1s0,0,.1.1c.3.2.5.5.8.8l-.7-.6c-.1-.1-.2-.2-.3-.3h0Z"/>
  <path d="M317.4,134.3s0,0,0,0c0-.4-.4-.7-.9-.6-.1,0-.3,0-.4,0-.5,0-.9.1-1.3.3h-.3c-.4.2-.8.3-1.2.4l-6.7,1s0,0,0,0c-.1,0-.3,0-.4,0h-1.1c-.3.2-.5.2-.8.3-.2,0-.4.1-.6.1-.5,0-1,.1-1.5.2-.5,0-1,0-1.5.2l-1.3.3h-.5c0,0-.2,0-.3,0h-.1s-.2,0-.2,0c0,0-.1,0-.2,0h-.1c-.2,0-.4.1-.5.2-.1,0-.2,0-.3,0-.6,0-1.2.2-1.8.3-.4,0-.8.2-1.2.2,0,0-.2,0-.2,0,0,0-.2,0-.3.1-.5.2-1.4.4-1.2,1.2,0,.2,0,.3.1.3h0c0,0,.1.2.2.2.1,0,.3.1.4,0,0,0,0,0,0,0,.1,0,.3.1.4,0,.1,0,.2,0,.3-.1.1-.1.3-.1.5-.2.8-.1,1.5-.2,2.3-.3.8-.1,1.6-.2,2.3-.3h.5s0,0,0,0h.4c0,0,0,0,0,0h.5c0-.1.1-.2.1-.2h0c0,0,.2,0,.3,0l1.2-.2s0,0,0,0c-.5.2-.8.5-1.2.8-.2.2-.3.4-.4.5,0,0-.1.2-.2.2,0,0,0,0,0,0-.5.6-1.1,1.2-1.8,1.8-.2.2-.4.4-.7.6-.2.2-.4.4-.5.6-.4.5-.9.9-1.4,1.3-.1,0-.2.2-.4.3-.2.2-.5.3-.7.6,0,.1-.2.2-.3.4-.1.2-.2.3-.4.5-.1.1-.2.3-.2.5v.3c0,.2.1.3.3.4h.1c.1.2.2.2.4.2s0,0,0,0c.6,0,1.3-.8,3.1-2.5,1-1,2.4-2.3,2.9-2.5,0,0,.2,0,.2-.1.3-.3.6-.6,1-1,.6-.6,1.2-1.2,1.8-1.8.3-.2.6-.5.8-.7.1-.1.3-.3.3-.4h0c.3.2.5.4.8.5.2.1.4.2.6.4,0,0,.1.1.2.2.1.1.3.3.4.4.1.1.3.2.4.3.3.5.9.8,1.4,1.1.2.1.5.3.6.4,0,0,.1,0,.2.1,0,0,.2,0,.3.1.3.1.6.3,1,.2.2,0,.3-.1.4-.3.2-.2.3-.4.5-.6.1-.1.3-.2.4-.3.5-.4.9-1,1.3-1.5.2-.2.3-.4.5-.6.2-.3.6-.6,1-.9.9-.8,1.9-1.6,2.1-2.5h0c0-.2,0-.6,0-.6ZM313.8,136.3c-.3.2-.5.5-.7.8-.2.3-.4.5-.6.6,0,0-.2.1-.2.2-.4.5-.5.6-.6.7-.1,0-.2.1-.3.2-.2.2-.4.5-.6.7-.4-.3-1.5-1-3.1-2.2.7,0,1.3-.2,1.8-.4.2,0,.8,0,1.1-.1.4,0,.7,0,.9,0l1.5-.2s0,0,0,0h.3c0,0,.1-.1.2-.1,0,0,0,0,.1,0,0,0,0,0,0,0,0,0,0,0,0,0Z"/>
  <path d="M296,240.6s0,0,0,0c0,0,0,0,0,0,0-.1,0-.2-.1-.3,0,0,0-.1-.1-.2,0,0,0,0,0,0,0,0,0,0,0,0,0,0,0,0,0,0h0c0-.3,0-.4-.1-.5v-.3c-.2-.4-.3-1-.5-1.5-.3-.9-.5-1.4-.8-1.7-.3-.6-.5-1.2-.6-1.8,0-.1,0-.2-.1-.4h0c0-.2,0-.4,0-.4,0,0,0,0,0,0,0,0,0-.1,0-.2,0,0,0,0,0-.1v-.2c-.1-.4-.3-.8-.7-1,0,0-.1,0-.2,0,0,0,0,0,0,0-.1,0-.3,0-.4,0l-1,.2c-.3,0-.7.2-1,.3h-.3c-.4.2-.7.3-1,.4-.3,0-.7,0-1,.1-.4,0-.7,0-1.1.1-.3,0-.6,0-.8.1-.2,0-.4,0-.6.1,0,0,0,0-.1,0,0,0,0,0,0,0h-.3s-2.5.3-3,1.1c-.5.8,0,1.3.3,1.4.6.3,1.2.2,1.7,0l.7-.2c.2,0,.3-.1.5-.1,0,0,0,0,0,0h0c0,0,.2,0,.2,0,.1,0,.3,0,.4,0,0,0,.1,0,.2,0,.5-.1.8-.2,1.1-.2.2,0,.4,0,.6,0,0,0,0,0,0,0,.1,0,.2,0,.3,0l1.9-.3c.1,0,.3,0,.5-.1.2,0,.5-.1.7-.2.1,0,.2,0,.3,0h0c0,.2,0,.2,0,.3h0s0,0,0,0c0,.1.1.3.2.5,0,0,0,0,0,0v.4c.1,0,.2.1.2.2,0,0,0,0,0,0,0,0,0,.1,0,.2,0,0,0,.2.1.2.1.3.3.7.3,1,0,.2.1.5.3.8,0,0,0,.1.1.2,0,0,0,.1.1.2,0,0,0,0,0,0h0c0,.2.1.4.2.7,0,.2,0,.3.1.5,0,.2,0,.3.1.5,0,0,0,0,0,0,0,0,0,.2.2.3h0c0,.2,0,.2.1.3.1.3.2.6.3.9,0,.2,0,.3.1.5,0,.1,0,.2.2.3l.2.2s0,0,.1,0c.1,0,.3.1.4.1,0,0,0,0,.1,0,0,0,.1,0,.2,0s0,0,0,0h0c.2,0,.4-.1.5-.3h0c.4-.7,0-1.6,0-1.7,0,0,0-.2,0-.2ZM292.1,235.9h0s0,0,0,0h0Z"/>
  <path d="M289.8,236.3h0c-.1-.1-.3-.1-.4-.1-.5,0-.9.2-1.3.3,0,0,0,0,0,0,0,0,0,0-.1,0h-.2c0,0,0,0,0,0,0,0,0,0,0,0-.3,0-.5.1-.7.2h-.2c0,0-.1,0-.2,0,0,0,0,0,0,0-.9.1-1.9.3-2.8.6-.4,0-.8.2-1.2.3,0,0,0,0-.1,0h0c0,0-.2,0-.3.1-.1,0-.3,0-.4,0,0,0,0,0,0,0,0,0,0,0-.1,0,0,0-.2,0-.4,0h0s0,0-.1,0c-.3-.6-.8-1.8-1.8-4.1-.3-.8-.7-1.6-1-2.3l-.4-1c-.1-.3-.2-.6-.3-.8v-.3c-.2,0-.2-.1-.2-.2,0-.1-.2-.2-.2-.3,0,0-.1,0-.2,0,0-.1-.2-.2-.4-.3h-.1c-.3-.2-.7-.2-.8.1h0c-.4.8,0,1.8.4,2.7.5.8.9,1.7,1.2,2.6l.6,1.6c.1.3.2.5.3.8,0,.1.1.4.2.6,0,0,0,0,0,0v.3c.2.2.3.3.3.4,0,0,0,0,0,.1,0,0,0,0,0,0,0,0,0,0,0,0v.4c.1.1.1.3.2.4,0,.5.3,1.1.7,1.4.2,0,.3.1.4.1,0,0,0,0,0,0,0,0,.1,0,.2,0s0,0,0,0l2.1-.3c.4,0,.8-.1,1.2-.3h.5c.3-.2.6-.3.9-.4.1,0,.4,0,.6-.1.5-.1,1.3-.3,2-.4,2.1-.5,2.6-.8,2.8-1.2.1-.2.2-.5.2-.7,0-.4-.2-.7-.5-.9Z"/>
  <path d="M214.7,299.1h0c-.2,0-.5,0-.6.2-.1,0-.2.2-.3.3,0,0-.1.1-.2.2-.1.1-.3.3-.4.5-.2.4-.5.8-.7,1.2l-.8,1.4c-.3.3-.5.8-.6,1.2,0,.3-.2.6-.3.7-.1.1-.2.2-.2.4,0,.1-.1.4-.3.6,0-.2,0-.2,0-.2,0,0,0-.2,0-.2v-.4c-.2-.3-.4-.7-.5-1,0-.1,0-.3-.1-.4,0-.2,0-.3-.1-.5-.2-.6-.4-1.1-.6-1.7-.2-.5-.4-1-.6-1.5,0-.4-.2-.8-.3-1.1,0,0,0,0,0-.1l2.2-.8.8-.3,1.6-.5.5-.2c.8-.3.6-.9.6-.9-.4-1.1-2-.6-2.7-.4,0,0-.1,0-.1,0-.2,0-.3,0-.5,0-.3,0-.6.1-1,.2,0,0,.3-.1.4-.2.1,0,.3-.1.4-.2.3,0,.7-.1,1.9-.5.3,0,.5-.3.7-.6.1-.2.1-.5,0-.7-.1-.4-.6-.6-.7-.6-.1,0-.3,0-.5,0h-.2c-.2.1-.4.2-.6.2-.3,0-.5,0-.8.2h-.2c0,0,0,0,0,0h-.3c0,.1-.1.2-.1.2-.7.2-1.4.4-2.1.6-.2,0-.4.1-.7.2,0,0,0-.1,0-.1-.2-.6-.4-1.1-.6-1.6-.2-.5-.4-1-.6-1.5l-.2-.8s0,0,0,0v-.3c-.1,0-.2-.1-.2-.2,0-.4-.3-1.1-.7-2.2,0,0,0,0,0,0,.3.2.5.4.8.5l.8.4c.1,0,.2.1.3.2.2.1.4.2.6.3.2.1.5.2.7.3.4.1.7.3,1,.4,0,0,.2.1.3.2.6.4,1.3.9,2.1.7,0,0,.1,0,.2-.1h.1c.2-.3.2-.5.2-.8h0c0-.4-.2-.6-.4-.8,0-.1-.2-.2-.2-.3,0-.2-.1-.3-.3-.4-.8-.5-1.7-.9-2.6-1.2-.4-.2-.9-.4-1.3-.6-.2,0-.6-.3-1-.5-1.5-.9-2.7-1.5-3.4-1.3-.6.2-.7.6-.9.9,0,.1,0,.2,0,.3,0,.2.1.4.2.5,0,0,0,.1,0,.3l.2.7c0,.2.2.4.3.5,0,.1.1.2.2.3v.5c.1,0,.1,0,.1,0l.4,1.4v.4c.2.3.3.6.4.9,0,.3.2.7.3,1,0,.3.2.4.4.5,0,0,0,0,0,0,0,.2,0,.5.2.6,0,.1,0,.2,0,.4l1.4,4.4s0,0,0,0l.2.5.2.8s0,0,0,0v.2c.1.2.2.3.3.5,0,.2.2.4.2.5,0,0,0,.2,0,.3,0,.1.1.2.2.3.1.2.2.4.3.6,0,.1,0,.3,0,.6l1.1,3.3c0,0,0,.1.1.2.3.4.5.9.6,1.5,0,.2.1.4.2.6,0,.2.2.3.4.4h.2c0,0,.1,0,.2,0,0,0,.2,0,.3,0,.6-.3.9-1,1.1-1.4h.1c0-.2,0-.3.1-.3.1-.3.5-1.3.7-1.5,0,0,.1-.1.2-.2,0-.2.2-.4.3-.6.1-.2.3-.4.4-.7l.4-.9c.2-.2.4-.5.5-.7,0-.1.1-.3.2-.3,0,0,0-.1.1-.2,0-.1.2-.3.3-.6.6-1,.9-1.6.7-2,0-.3-.4-.4-.6-.4ZM207.2,296.5h0c0,0,.2-.1.4-.2l.9-.3c-.4.1-.7.2-1.1.4,0,0-.1,0-.2,0Z"/>
  <path d="M122.6,283.4c-.1,0-.3,0-.4,0h0c0,0-.2,0-.3,0-.1,0-.2.2-.3.3,0,0,0,0,0,0-.1,0-.2.2-.3.3,0,.1,0,.2,0,.3,0,.2,0,.3,0,.5-.3.7-.6,1.4-.8,2.2-.3.7-.6,1.4-.9,2.2l-.2.4s0,0,0,0l-.2.4s0,0,0,0v.5c-.1,0-.2,0-.2,0h0c0,.1-.1.2-.2.3l-.4,1.1s0,0,0,0c0-.5,0-1-.1-1.4,0-.2-.2-.5-.3-.6,0,0-.1-.2-.1-.3,0,0,0,0,0,0-.3-.8-.5-1.6-.7-2.4,0-.3-.1-.6-.2-.9,0-.2-.1-.5-.2-.7-.2-.6-.4-1.2-.5-1.8,0-.1,0-.3,0-.5,0-.3,0-.6-.2-.9,0-.1-.1-.3-.2-.4,0-.2-.2-.4-.2-.6,0-.2-.2-.3-.4-.4h-.2c-.2-.2-.3-.1-.5,0h-.2c-.1.1-.3.3-.3.4-.2.5,0,1.5.7,3.9.4,1.3.8,3.2.8,3.7,0,0,0,.2,0,.3.1.4.2.9.4,1.3.2.8.4,1.7.7,2.4,0,.4.1.7.3,1,0,.2.2.4.2.5h0c-.3.2-.6.3-.9.5-.2.1-.4.2-.6.3,0,0-.2,0-.3,0-.2,0-.4.1-.5.2-.2,0-.4.1-.5.2-.6,0-1.1.4-1.6.7-.2.1-.5.3-.7.4,0,0-.1,0-.2.1,0,0-.1.1-.2.2-.2.2-.5.4-.6.8,0,.2,0,.3,0,.5.1.3.2.5.2.8,0,.2,0,.3.1.5.1.6.4,1.3.7,1.9.1.2.2.5.3.7.1.3.2.8.3,1.3.2,1.2.5,2.4,1.2,3h0c.2.2.5.3.6.3,0,0,0,0,0,0,0,0,.2,0,.3,0,.3,0,.6-.2.7-.5,0-.1,0-.2.1-.4.2-.4.3-.9.4-1.3v-.3c.2-.4.3-.8.4-1.2l2.4-6.3s0,0,0,0c0,0,.2-.2.2-.4l.4-1c0-.2.2-.5.2-.8,0-.2.1-.4.2-.6.2-.4.4-.9.6-1.4.2-.5.4-.9.6-1.4l.4-1.3.2-.4c0,0,.1-.2.2-.3v-.3c.2,0,.2,0,.2,0v-.2c.1-.2.2-.4.2-.5,0-.1,0-.2,0-.3.2-.6.4-1.2.6-1.8.1-.4.2-.8.4-1.1,0,0,0-.2,0-.2,0,0,0-.2,0-.3.1-.5.3-1.4-.5-1.7ZM115.9,299.4c0,.2-.3.7-.4,1.1-.2.3-.3.7-.3.8l-.5,1.3s0,.1,0,.1c0,0,0,0,0,0v.3c-.1,0-.1.1-.1.2,0,0,0,0,0,.1,0,0,0,0,0,0,0,0,0,0,0-.1,0-.4-.2-.7-.3-1-.1-.3-.2-.5-.2-.8,0,0,0-.2,0-.3-.3-.6-.3-.8-.3-.8,0-.1,0-.2,0-.4-.1-.2-.3-.6-.3-.8.4-.3,1.6-.8,3.4-1.6-.2.6-.5,1.2-.6,1.8Z"/>
  <path d="M54.5,228.9c-.1,0-.3,0-.4,0-.3,0-.7.2-.9.3l-2.5,1.5s-.2.1-.3.2c-.8.4-3.1,1.7-3.9,2.2-.4,0-.7.3-1,.5,0,0-.2.1-.2.2h-.1c-.1.2-.2.2-.3.3.4-1.1,1.1-2.9,1.4-3.7,0-.2.2-.4.2-.6.3-.5.5-.9.7-1.4.1-.3.2-.6.4-.8.1-.2.3-.5.5-.9,1-1.7,2.4-4,1.6-5.3,0,0,0-.1-.1-.2l-.2-.2c-.2-.2-.5-.2-.7,0-.4.2-.5.6-.7.9,0,0,0,.1-.1.2,0,0,0,.2,0,.3,0,.4-.3.9-.6,1.4-.1.2-.3.5-.4.7-.1.3-.3.6-.4.9l-.2.5c0,0,0,.1-.1.2-.1.2-.2.3-.3.6-.2.3-.3.7-.3,1-.2.6-.3,1.1-.6,1.4,0,0-.2.2-.2.4,0,.7-1,3.3-1.3,3.6,0,0-.1.2-.1.2v.5c-.3.2-.4.5-.5.7-1.3,0-5.7-.4-6.1-.6-.1,0-.2,0-.4,0-.3.1-.8,0-1.3,0-.6-.1-1.2-.2-1.9,0l-1.3-.2c-.1,0-.3,0-.4,0-.3.2-.6.3-.8.6,0,0,0,0,0,0-.2.3-.2.7,0,1.1.2.4.6.7,3.5.5.9.2,1.9.3,2.8.3.7,0,1.3,0,2,.1.3,0,.6,0,.9,0,.2,0,.4,0,.6,0,0,0,.2,0,.3,0,0,0,.2,0,.3,0,0,0-.1,0-.2.1-.6.4-1.1.7-1.7.7h-.2c-.8-.1-1.2-.1-1.4-.1l-.8-.2c-.1,0-.2,0-.4,0-.4.2-1,.1-1.7,0-.9,0-1.7-.2-2.5.2-.3.2-.5.5-.6.8,0,.3,0,.6,0,.7.3.5.9.4,1.7.3.2,0,.3,0,.4,0,0,0,.1,0,.2,0,.3,0,.6,0,1,0,.4,0,.8,0,1.2,0-.1,0-.3.1-.4.2-.3,0-.6.2-.8.3-.2.1-.7.4-1.1.9-.7.8-.5,1.5-.3,1.8,0,0,.1.2.2.2h.2c0,.2.2.2.3.2s.2,0,.3,0c1.2-.7,2.4-1.4,3.6-2,.4-.2.9-.4,1.3-.7.2,0,.3-.2.4-.3,0,0,0,0,0,0l10.7-6.2,3.6-2c0,0,.1,0,.2-.1.2-.1.4-.2.6-.4,0,0,0,0,0,0l.4-.5c0-.1.1-.2.1-.4v-.3c0-.2-.1-.4-.3-.5h-.2Z"/>
  <path d="M19.2,141.1c.1,0,.2,0,.3.1,0,0,.2,0,.3,0,.1,0,.3,0,.5.1.2,0,.3.1.5.1h.2s0,0,0,0h.4l.9.2s0,0,0,0l4.6.7c.1,0,.2,0,.4,0,.2.1.4.2.6,0,0,0,0,0,0,0,.1,0,.3.2.6.3.3,0,.7,0,1,.1.3,0,.6,0,.9.1h.4c0,0,0,0,0,0h.8c0,0,.6.2.6.2,0,0,0,0,0,0h.3s.2,0,.2,0c0,0,.2,0,.3.1.2,0,.4.1.6.2h.8c0,.1.2.1.2.2.2,0,.4,0,.6,0,0,0,0,0,0,0,0,0,.2,0,.3,0,.3-.2.7-.4.8-1,.1-.8-.7-1.8-1.8-3.2-.3-.3-.5-.7-.7-.9-.2-.4-.5-.8-.7-1.2-.5-.8-1-1.6-1.6-2.4-.1-.1-.2-.2-.4-.2,0,0-.2,0-.3-.1-.2,0-.4-.2-.7-.3h-.1c-.2,0-.5,0-.6.2v.2c-.1,0-.2.1-.2.2-.1.8.5,1.4,1,1.9.1.1.2.2.3.3.2.3.4.6.6.9.1.2.3.5.4.7.1.2.3.4.4.5,0,0,.2.2.2.3l.5.8c.2.3.4.5.7.7,0,0,0,0,0,0-1.1-.2-1.8-.3-2.3-.3-.1,0-.2,0-.3,0h-.3c0,0,0,0,0,0h-.5s-.2,0-.2,0c-.5,0-1.1-.2-1.6-.3-.6-.1-1.1-.2-1.7-.3,0,0,0,0-.1,0,0-.2,0-.4,0-.7,0-.7.2-1.5.3-2.1v-.5c.1,0,.1,0,.1,0v-.2c0-.3,0-.6,0-.8,0-.2,0-.4,0-.6v-.2c0-.2,0-.3,0-.5,0-.1-.3-.5-.7-.6-.3,0-.6,0-.8.3-.2.2-.3.4-.3.6-.2,1.2-.2,1.7-.2,1.9,0,0,0,.2-.1.4,0,.2,0,.4-.1.5,0-.4,0-.7,0-1,0-.2,0-.3,0-.5,0,0,0,0,0-.2.1-.7.4-2.4-.8-2.6,0,0-.7,0-.8.7l-.2,1.7-.6,2.9v.7c-.2,0-.2,0-.2,0-.3,0-.7-.2-1.1-.1-.5,0-1.1-.2-1.6-.3-.6-.1-1.2-.3-1.8-.4-.2,0-.3,0-.5,0-.2,0-.3,0-.4,0-.3,0-.7-.2-1-.2h-.4c0,0-.1,0-.2,0,0,0-.1,0-.3,0,.2-.2.4-.3.5-.3.2,0,.3-.1.4-.2.1-.1.4-.3.7-.4.4-.2.8-.4,1.1-.8l1.3-1c.4-.3.7-.6,1.1-.9.2-.2.3-.4.4-.5,0-.1.1-.2.2-.2.1,0,.2-.2.3-.3,0-.2,0-.4,0-.6h0c0-.4-.2-.6-.5-.7-.5,0-1,.3-1.9,1-.2.2-.4.3-.5.4,0,0-.1,0-.1.1,0,0-.2.1-.3.2-.2.1-.5.3-.7.6l-.8.6c-.2.2-.4.3-.6.5-.2.2-.4.3-.5.4,0,0-.2.1-.2.2-.2.2-1,.7-1.3.9,0,0-.1,0-.2.2v.2c-.5.2-1.1.7-1.3,1.3,0,.1,0,.3,0,.4v.2c.2.2.3.3.5.3.2,0,.4,0,.6,0,.6,0,1.1.1,1.6.4,0,0,.1,0,.2,0l3.5.6c.2,0,.4,0,.6,0,.2,0,.4.1.6.2ZM24.4,139.8c0-.3.1-.7.2-1.1v.9c-.2.2-.2.3-.2.4h0c0,0,0-.1,0-.2Z"/>
  <path d="M59.2,49.4c.3.3.6.7.9,1l.3.2c.3.3.6.5.9.9l4.5,5.1s0,0,0,0c0,0,0,.2.2.4l.7.9c.2.2.4.4.6.6.2.1.3.3.4.4.3.4.6.7.9,1.1.3.4.6.8,1,1.2l.3.4.6.6.3.4c0,0,0,.2.2.3l.2.3s0,0,0,0h.1c.1.3.3.4.4.5,0,0,.2.1.2.2.4.5.8.9,1.3,1.3.3.3.6.6.8.9,0,0,.1.1.2.1,0,0,.2.1.3.2.3.2.7.6,1.2.6s.4,0,.5-.2c.1-.1.2-.2.2-.3h0c0,0,0-.2,0-.3,0-.1,0-.3-.2-.4,0,0,0,0,0,0,0-.1,0-.3-.2-.4,0,0-.2-.1-.3-.2-.1,0-.3-.2-.4-.3-.5-.6-1-1.2-1.5-1.8-.5-.6-1-1.2-1.5-1.8l-.3-.4s0,0,0,0l-.3-.3s0,0,0,0l-.4-.4h0c0,0,0-.2,0-.2,0,0,0-.2-.1-.2l-.4-.4s0,0,0,0l-.4-.5s0,0,0,0c.4.3.9.4,1.3.6.2,0,.5,0,.7,0,.1,0,.2,0,.3,0,.8.1,1.6.3,2.5.5.3,0,.6.1.9.2.3,0,.5.1.8.2.6.1,1.2.2,1.8.4.1,0,.3,0,.4.2.3.1.6.2.8.3.1,0,.3,0,.4,0,.2,0,.4,0,.6,0,.2,0,.4,0,.5-.1l.2-.2c.1-.1.2-.3.2-.4v-.2c0-.2,0-.3-.1-.4-.4-.4-1.4-.7-3.8-1.3-1.3-.3-3.2-.7-3.6-1.1,0,0-.1,0-.2-.1-.4,0-.9-.2-1.3-.3-.8-.2-1.7-.4-2.5-.5-.3-.2-.7-.2-1-.3-.2,0-.4,0-.5,0h0c0-.4,0-.7,0-1,0-.2,0-.5,0-.7,0,0,0-.2,0-.3,0-.2,0-.4,0-.6,0-.2,0-.4,0-.6.2-.5.2-1.2.1-1.7,0-.3,0-.5,0-.8,0,0,0-.2,0-.2,0,0,0-.2,0-.3,0-.3-.1-.6-.4-.9-.1-.1-.3-.2-.4-.2-.3,0-.5,0-.8-.1-.2,0-.3,0-.5-.1-.6-.2-1.3-.2-2-.3-.3,0-.5,0-.8,0-.3,0-.8-.2-1.3-.3-1.2-.3-2.4-.7-3.2-.4h0c-.2,0-.5.3-.5.3,0,0,0,0,0,0-.3.2-.4.7,0,1.1,0,0,.2.2.3.3ZM62.5,49.9c.4.1.7.2,1,.2.3,0,.6,0,.8.2,0,0,.2,0,.3,0,.6,0,.8.1.9.1.1,0,.2.1.3.1.3,0,.7,0,.9,0,0,.4,0,1.4-.2,3.8-.4-.5-.9-1-1.3-1.3-.1-.1-.5-.6-.7-.9-.2-.3-.5-.6-.5-.7l-1-1.1s0,0,0,0l-.2-.2c0,0-.1-.1-.2-.1,0,0,0,0,0-.1,0,0,0,0,0,0,0,0,0,0,.1,0Z"/>
  <path d="M282.9,205.4c2-5.3,3.5-10.1,4.6-14.5.2-.7.3-1.3.5-2,1-4.2,2.1-8.6,2.6-13,.4-3.3.2-6.6,0-9.8-.1-1.8-.2-3.7-.2-5.5,0-1.3,0-2.6,0-3.9,0-3.7.1-7.5-.4-11.3-.4-3.4-1.4-6.8-2.3-10.1-.4-1.5-.9-3.1-1.3-4.7-.4-1.7-.8-3.6-1.1-5.3-.6-3.1-1.2-6.4-2.4-9.5-1.2-3.3-3-6.3-4.7-9.1-.8-1.4-1.7-2.9-2.4-4.3-.5-1-1-2-1.5-3-1.8-3.5-3.6-7-5.9-10.3-2.6-3.8-5.6-7.2-8.6-10.4l-1.1-1.3c-3.6-4-7.1-7.5-10.7-10.7-4-3.5-8.2-6.5-12.1-9.2-.7-.5-1.4-1-2.1-1.5-3.4-2.3-6.9-4.8-10.7-6.7-.7-.3-1.3-.7-2-1-3.8-2-7.7-4-11.8-5.6-4.2-1.6-9.4-3.5-14.5-4.8-3.3-.8-6.8-1.1-10.1-1.3-1.7-.1-3.4-.3-5-.5-4.9-.6-9.9-1.2-15-1.2h-2.1c-4.1,0-8.7,0-13.3.6-3.4.4-6.8,1.4-10.1,2.4-1.5.4-3.1.9-4.7,1.3-5,1.3-10,3.2-14.4,4.8-1.5.6-3,1.1-4.4,1.6-3.2,1.1-6.6,2.3-9.7,3.9-3.9,2.1-8,4.6-12.9,8-4,2.7-7.9,5.8-11.9,9.5-2.9,2.6-5.4,5.5-7.8,8.3-.8,1-1.6,1.9-2.5,2.9-2.7,3.1-6.2,7.2-9.4,11.9-2.8,4.1-5.7,8.3-8.1,12.9l-.5,1c-2.1,4.1-4.3,8.3-6,12.7-1.9,5-3.4,9.9-4.5,14.5-1.1,4.4-1.6,8.9-2.1,13.3l-.2,1.8c-.5,4.1-1.1,9.5-1,15.2v1.8c0,4.4,0,8.9.6,13.4.6,4.8,1.3,9.9,2.6,15,1.2,4.7,2.7,9.6,4.6,14.6,1.8,4.6,3.7,9.5,6.1,14,1.6,3,3.7,5.8,5.7,8.4,1,1.3,2.1,2.7,3.1,4.1,1,1.4,1.9,2.9,2.8,4.4,1.7,2.8,3.6,5.7,5.8,8.2,2.6,2.9,5.6,5.5,8.5,7.9.9.8,1.9,1.6,2.8,2.4,3.5,3.1,7.5,6.2,12.1,9.3,3.1,2.1,6.4,3.7,9.6,5.3h0c1.2.6,2.5,1.3,3.7,1.9,4.3,2.2,8.9,4.5,13.8,6.4,1.7.6,3.4,1.4,5.1,2.2,2.9,1.3,5.9,2.7,9.1,3.5,4.7,1.2,9.7,1.8,14.5,2.3h.6c3.4.5,6.8.3,10.1.2,1.7,0,3.4-.2,5.1-.2,1.6,0,3.3,0,4.9.2h.4c1.8.1,3.6.2,5.4.2s3.1,0,4.5-.3c4.6-.6,9.5-1.5,15-2.9,4.7-1.2,9.6-2.7,14.5-4.6,5.2-2,10.1-4.5,13.8-6.4,4.3-2.3,8.9-4.8,13.2-7.7,4.2-2.9,8.2-6.4,11.8-9.6h0c3.7-3.4,7.5-6.8,10.9-10.6,2.9-3.3,5.3-6.9,7.7-10.4v-.2c.5-.6.9-1.2,1.3-1.8,3-4.4,5.6-9.1,7.7-13.1,2.3-4.4,4.7-8.9,6.5-13.8ZM266.2,230.6c-.4.6-.9,1.3-1.3,2-2.3,3.4-4.7,6.9-7.4,10-3.2,3.7-7,7-10.6,10.3h0c-3.6,3.3-7.4,6.6-11.5,9.5-4.1,2.9-8.6,5.3-12.8,7.5-3.6,1.9-8.5,4.4-13.5,6.3-4.8,1.8-9.6,3.4-14.2,4.5-5.4,1.3-10.2,2.3-14.6,2.8-3.1.4-6.2.2-9.4,0-1.8,0-3.6-.2-5.4-.2h-.1c-1.7,0-3.5,0-5.2.2-3.2.1-6.5.3-9.6,0h-.6c-4.7-.6-9.5-1.2-14.1-2.3-2.9-.7-5.8-2-8.6-3.3-1.7-.8-3.5-1.6-5.2-2.2-4.7-1.8-9.2-4-13.4-6.2-1.3-.7-2.5-1.3-3.8-1.9h0c-3.1-1.6-6.3-3.2-9.2-5.1-4.5-3.1-8.3-6-11.8-9.1-.9-.8-1.9-1.6-2.8-2.4-2.8-2.4-5.7-4.9-8.2-7.6-2.1-2.3-3.8-5.1-5.5-7.8-.9-1.5-1.9-3-2.9-4.5-1-1.5-2.1-2.9-3.1-4.2-1.9-2.5-3.9-5.1-5.4-7.9-2.3-4.4-4.2-9.2-5.9-13.7-1.9-4.8-3.4-9.6-4.5-14.2-1.2-5-2-10-2.5-14.7-.5-4.3-.5-8.7-.5-13v-1.8c0-5.5.5-10.8,1-14.8l.2-1.8c.5-4.3,1-8.7,2-12.9,1.1-4.6,2.6-9.3,4.4-14.2,1.6-4.3,3.8-8.4,5.9-12.4l.5-1c2.3-4.4,5.1-8.5,7.9-12.5,2.4-3.5,5.2-7.1,9.2-11.6.8-.9,1.6-1.9,2.5-2.8h0c2.3-2.8,4.8-5.7,7.5-8.1,4-3.5,7.8-6.5,11.6-9.2,4.8-3.3,8.8-5.8,12.6-7.8,2.9-1.5,6-2.6,9.3-3.8,1.5-.5,3-1,4.5-1.6,4.5-1.7,9.2-3.5,14-4.7,1.6-.4,3.3-.9,4.8-1.3,3.3-1,6.4-1.9,9.6-2.3,4.2-.5,8.6-.5,12.9-.5h2c5,0,10,.6,14.8,1.2,1.7.2,3.5.3,5.2.5,3.2.2,6.5.5,9.6,1.2,5,1.2,10.1,3.1,14.2,4.7,3.9,1.5,7.7,3.5,11.4,5.4h.1c.6.4,1.3.7,1.9,1,3.6,1.9,7,4.2,10.3,6.5.7.5,1.4,1,2.1,1.5,3.9,2.6,8,5.6,11.8,8.9,3.6,3.2,7,6.6,10.5,10.5l1.1,1.3c2.9,3.2,5.9,6.5,8.4,10.1,2.1,3.1,3.8,6.4,5.7,9.9h0c.5,1.1,1,2,1.5,3,.8,1.5,1.7,3,2.5,4.5,1.6,2.8,3.3,5.7,4.5,8.7,1.1,2.9,1.7,6,2.2,9,.3,1.8.7,3.7,1.1,5.5.4,1.6.9,3.2,1.3,4.8.9,3.3,1.8,6.4,2.2,9.6.4,3.6.4,7.3.3,10.9,0,1.3,0,2.6,0,4,0,1.9.1,3.8.3,5.7.2,3.1.4,6.2,0,9.2-.5,4.2-1.6,8.5-2.6,12.6-.2.7-.3,1.3-.5,1.9-1.1,4.3-2.5,9-4.5,14.2-1.8,4.7-4.1,9.1-6.3,13.4-2.1,4-4.6,8.6-7.5,12.8Z"/>
  <path d="M329.5,153.1c-.1-2.5-.8-4.9-1.4-7.2-.5-1.8-1-3.6-1.2-5.3-.2-1.6-.3-3.3-.4-4.9-.2-2.5-.4-5.1-.9-7.7-.5-2.4-1.5-4.8-2.4-7-.7-1.6-1.3-3.3-1.8-4.9-.5-1.7-.8-3.4-1.1-5.3-.4-2.4-.7-4.8-1.6-7.2-.9-2.4-2.3-4.6-3.6-6.7-.9-1.5-1.8-3-2.6-4.5-1.3-2.8-2.9-5.4-4.5-7.9-.6-1-1.3-2.1-1.9-3.1-.9-1.6-1.6-3.4-2.3-5.1-.9-2.2-1.8-4.6-3.2-6.6-1.5-2.1-3.3-3.8-5.1-5.5-1.3-1.2-2.7-2.5-3.8-3.8-2.4-2.9-5.3-6.3-8.5-9.5-1.2-1.2-2.3-2.6-3.4-3.9-1.6-1.9-3.3-3.9-5.2-5.6-1.9-1.7-4.1-3-6.2-4.2-1.5-.9-3.1-1.8-4.5-2.9-1.4-1-2.7-2.2-4-3.4-1.8-1.6-3.7-3.3-5.9-4.7-2.2-1.4-4.5-2.4-6.8-3.3-1.6-.7-3.2-1.4-4.8-2.2-1.4-.7-2.8-1.6-4.2-2.4-2.2-1.3-4.5-2.7-7-3.8-1.5-.6-3-1.4-4.5-2.1-2.3-1.2-4.7-2.3-7.2-3.2-4.1-1.4-8.2-2.6-12.3-3.7-4.9-1.3-8.9-2.2-12.5-2.8-3-.5-6-.8-8.9-1-1.3-.1-2.6-.2-3.8-.3-1.1-.1-2.3-.2-3.4-.4-3.1-.3-6.2-.7-9.4-.8-2.8,0-5.6.2-8.4.4-1.5.1-3,.3-4.5.3-1.5,0-3,.1-4.5.1-2.7,0-5.6.1-8.4.5-2.5.3-4.8,1.1-7.1,1.9-1.7.6-3.5,1.2-5.3,1.6-1.7.4-3.5.5-5.3.7-2.4.2-5,.5-7.4,1.2-3.4,1-6.7,2.2-9.9,3.5-.7.3-1.4.5-2.2.8-2.9,1.1-5.8,2.5-8.5,3.8h0c-1,.5-2,1-3,1.4-3.4,1.6-7.4,3.5-11.3,5.7-2.4,1.3-4.5,2.9-6.6,4.5-1.2.9-2.5,1.9-3.8,2.7-1.5,1-3.1,1.8-4.8,2.6-2.1,1.1-4.4,2.2-6.3,3.7-2.1,1.7-4,3.6-5.9,5.5-1.1,1.1-2.2,2.3-3.4,3.3-1.9,1.7-3.5,3.8-5.1,5.7-1,1.3-2.1,2.7-3.2,3.9-.8.8-1.6,1.7-2.4,2.5-2.1,2.2-4.2,4.4-6.1,6.8-1.1,1.4-2.4,2.7-3.6,3.9-1.7,1.7-3.5,3.5-4.9,5.6-1.4,2.1-2.3,4.4-3.2,6.6-.7,1.7-1.3,3.4-2.2,5-.8,1.4-1.6,2.7-2.5,4.1-1.4,2.2-2.8,4.4-3.9,6.9-1.2,2.6-2.1,5.3-3,7.9-.4,1.3-.9,2.6-1.4,3.9-1.6,4.4-2.9,8.3-3.9,12-1,3.4-1.6,6.9-2.3,10.3l-.4,2c-.3,1.4-.6,2.9-1,4.4-.6,2.6-1.2,5.3-1.6,8.1-.2,1.4-.4,2.9-.6,4.3-.4,2.7-.8,5.5-.9,8.3,0,1.1,0,2.2-.1,3.3-.1,3.1-.3,6.3-.1,9.4.1,2.5.7,4.9,1.3,7.3.4,1.7.9,3.5,1.1,5.2.2,1.1.3,2.3.4,3.5.3,3,.7,6,1.4,9.1.3,1.4.6,2.8.8,4.2.5,2.7,1,5.5,1.8,8.3.7,2.4,1.9,4.6,3,6.8.8,1.6,1.6,3.2,2.3,4.8,1.1,2.9,2.6,5.7,3.9,8.4.5,1,1,2.1,1.5,3.1.8,1.6,1.4,3.2,2,4.8.9,2.3,1.8,4.7,3.1,6.9,2.1,3.6,4.5,7,6.9,10.4l.2.3c2.2,3.1,4.7,6.3,7.8,10.1,1.7,2.1,3.7,3.8,5.6,5.5,1.2,1.1,2.4,2.2,3.6,3.4l.7.7c2.7,2.7,5.4,5.6,8.4,8.2.9.8,1.8,1.6,2.7,2.4,2.2,2,4.5,4.1,7,5.9,1.1.8,2.2,1.6,3.2,2.5,2.2,1.8,4.6,3.6,7.1,5.1,4.1,2.6,7.7,4.7,11.1,6.4,2.5,1.3,5.2,2.4,7.8,3.4,1.3.5,2.7,1.1,4,1.6l1.1.5c3.5,1.5,7,3,10.7,4.3,1.3.5,2.7,1,4,1.5h0c2.6,1,5.3,2,8,2.7.8.2,1.5.4,2.3.6,3.3.9,6.7,1.8,10.1,2.4,3.8.7,8,1.3,12.7,1.7,1,.1,2,.2,3.1.3,3.2.4,6.4.7,9.7.8.2,0,.3,0,.5,0,2.3,0,4.6-.4,6.9-.8,1.8-.3,3.6-.6,5.4-.7,1.8,0,3.6,0,5.4.2,2.4.2,5,.3,7.5,0,2.6-.3,5.2-1,7.7-1.7,1.6-.4,3.2-.9,4.9-1.2,4.4-.9,8.8-2.1,12.4-3.2,2.5-.7,4.8-1.8,7.1-2.8,1.5-.7,3.1-1.4,4.7-2,.7-.2,1.3-.5,2-.7h.4c3.1-1.3,6.3-2.5,9.4-3.9,1.6-.8,3.5-1.3,5.2-1.8,2.3-.7,4.6-1.4,6.8-2.6,2.6-1.4,5-3.1,7.4-4.8,1.1-.7,2.1-1.5,3.2-2.2,2.1-1.4,3.9-3.2,5.6-4.9,1.3-1.2,2.5-2.5,3.9-3.6,1.4-1.1,3-2,4.6-3,2.1-1.2,4.2-2.5,6-4.1,3-2.7,5.7-5.6,8.9-9,2.7-2.8,5.3-6,8.2-9.7,2.3-2.9,4.4-6.1,6.5-9.1l.9-1.3c.4-.6.8-1.2,1.2-1.8l.2-.3c1.9-2.8,3.8-5.6,5.5-8.6,1.6-2.8,2.9-5.8,4.2-8.7.4-.9.8-1.9,1.3-2.8.5-1.1,1.1-2.2,1.6-3.4,1.3-2.6,2.6-5.4,3.6-8.2,1-2.6,1.6-5.3,2.3-8,.3-1.4.7-2.9,1.1-4.3,1-3.4,1.6-7,2.3-10.4l.4-2c.2-1.1.5-2.3.7-3.4.6-2.9,1.3-6,1.6-9,.5-4,.9-8.3,1-12.6,0-1.4.1-2.9.2-4.3.2-2.8.3-5.6.2-8.5ZM326.5,161.4c0,1.4-.2,2.9-.2,4.3-.1,4.3-.6,8.5-1,12.4-.3,2.9-1,5.9-1.6,8.8-.2,1.1-.5,2.3-.7,3.4l-.4,2c-.6,3.4-1.3,6.9-2.3,10.2-.4,1.5-.8,2.9-1.1,4.4-.6,2.6-1.3,5.2-2.2,7.7-1,2.7-2.3,5.4-3.5,8-.5,1.1-1.1,2.3-1.6,3.4-.4.9-.8,1.8-1.2,2.7h0c-1.3,2.9-2.6,5.8-4.1,8.5-1.6,2.9-3.5,5.7-5.4,8.4l-.2.3c-.4.6-.8,1.2-1.2,1.8l-.9,1.3c-2,3-4.1,6.1-6.3,8.9-2.8,3.6-5.5,6.7-8.1,9.5-3.2,3.4-5.9,6.2-8.8,8.9-1.6,1.5-3.5,2.6-5.5,3.8-1.6,1-3.3,2-4.9,3.2-1.5,1.2-2.8,2.5-4.2,3.8-1.6,1.6-3.3,3.3-5.2,4.5-1.1.7-2.2,1.5-3.3,2.2-2.3,1.6-4.7,3.3-7.2,4.6-1.9,1-4,1.7-6.2,2.3-1.9.5-3.8,1.1-5.6,2-3,1.4-6,2.5-9.2,3.7l-.6.2c-.6.2-1.1.4-1.7.6-1.7.6-3.4,1.4-5,2.1-2.3,1-4.4,2-6.7,2.7-3.6,1-7.8,2.2-12.2,3.1-1.7.4-3.4.8-5,1.3-2.4.6-4.9,1.3-7.3,1.6-2.2.3-4.6.1-6.9,0-1.9-.1-3.8-.3-5.7-.2-1.9.1-3.9.4-5.7.8-2.3.4-4.6.8-6.8.7-3.1,0-6.4-.4-9.5-.8h-.2c-1-.1-1.9-.2-2.9-.3-4.7-.5-8.8-1-12.5-1.7-3.3-.6-6.7-1.5-9.9-2.3-.8-.2-1.6-.4-2.3-.6-2.6-.7-5.2-1.7-7.7-2.6-1.4-.5-2.8-1-4.2-1.5-3.6-1.2-7.1-2.7-10.5-4.2l-1.1-.5c-1.4-.6-2.7-1.1-4.1-1.7-2.5-1-5.1-2-7.5-3.3-3.3-1.7-6.9-3.8-10.9-6.3-2.4-1.5-4.6-3.3-6.8-5-1.1-.8-2.2-1.7-3.3-2.5-2.4-1.8-4.6-3.8-6.8-5.8h0c-.9-.8-1.7-1.6-2.6-2.4-2.9-2.5-5.5-5.2-8.3-8l-.7-.7c-1.2-1.2-2.5-2.4-3.7-3.5-1.8-1.7-3.7-3.4-5.3-5.3-3.1-3.8-5.6-6.9-7.7-9.9l-.2-.3c-2.3-3.3-4.7-6.7-6.8-10.2-1.2-2-2-4.2-2.9-6.5-.6-1.7-1.3-3.4-2.1-5-.5-1.1-1-2.1-1.6-3.2-1.3-2.6-2.7-5.3-3.8-8.1-.7-1.8-1.5-3.4-2.4-5.1-1.1-2.1-2.1-4.2-2.8-6.3-.8-2.6-1.3-5.3-1.8-8-.3-1.4-.5-2.8-.8-4.2-.6-2.9-1-5.9-1.3-8.8h0c-.1-1.2-.3-2.4-.4-3.5-.2-1.9-.7-3.7-1.1-5.5-.6-2.3-1.1-4.5-1.2-6.8-.2-3,0-6.1.1-9.2,0-1.1,0-2.2.1-3.3,0-2.7.5-5.4.9-8,.2-1.4.4-2.9.6-4.4.3-2.6.9-5.2,1.5-7.7.3-1.5.7-3,1-4.5.1-.7.3-1.4.4-2,.6-3.3,1.3-6.8,2.2-10.1,1-3.6,2.3-7.5,3.9-11.8.5-1.4,1-2.8,1.4-4,.9-2.6,1.8-5.2,2.9-7.6,1-2.3,2.4-4.4,3.7-6.5.9-1.4,1.7-2.8,2.6-4.2,1-1.7,1.7-3.5,2.4-5.3.8-2.1,1.7-4.3,2.9-6.1,1.3-1.9,2.9-3.6,4.5-5.2,1.3-1.3,2.6-2.7,3.8-4.1,1.8-2.3,3.9-4.5,5.9-6.6.8-.8,1.6-1.7,2.4-2.5,1.2-1.3,2.3-2.7,3.4-4,1.5-1.9,3-3.8,4.8-5.4,1.2-1.1,2.3-2.3,3.5-3.4,1.8-1.8,3.6-3.7,5.6-5.2,1.7-1.3,3.7-2.3,5.8-3.4,1.7-.8,3.4-1.7,5.1-2.8,1.3-.9,2.7-1.9,3.9-2.8,2-1.5,4.1-3,6.3-4.3,3.8-2.1,7.8-4,11.1-5.6,1-.5,2-1,3.1-1.4,2.7-1.3,5.5-2.6,8.3-3.7.7-.3,1.5-.5,2.2-.8,3.2-1.2,6.5-2.4,9.7-3.4,2.2-.6,4.6-.9,6.9-1.1,1.9-.2,3.8-.3,5.6-.7,1.9-.4,3.8-1.1,5.6-1.7,2.2-.8,4.4-1.5,6.5-1.8,2.6-.3,5.4-.4,8.1-.4,1.5,0,3,0,4.6-.1,1.5,0,3.1-.2,4.6-.3,2.3-.2,4.8-.4,7.1-.4s.6,0,.9,0c3,0,6.1.4,9.1.8h0c1.1.1,2.3.3,3.4.4,1.3.1,2.6.2,3.9.3,2.9.2,5.9.5,8.7,1,3.6.6,7.5,1.5,12.3,2.8,4,1.1,8.1,2.3,12.1,3.6,2.3.8,4.6,2,6.9,3.1,1.5.7,3,1.5,4.6,2.2,2.3,1,4.5,2.3,6.7,3.6,1.4.8,2.9,1.7,4.3,2.5,1.6.9,3.3,1.6,5,2.3,2.2.9,4.4,1.9,6.4,3.1,2,1.2,3.8,2.8,5.5,4.4,1.4,1.2,2.7,2.5,4.2,3.6,1.5,1.1,3.2,2.1,4.8,3,2,1.2,4.1,2.4,5.8,3.9,1.8,1.5,3.4,3.5,4.9,5.3,1.1,1.4,2.3,2.8,3.6,4,3.1,3.2,5.9,6.5,8.3,9.4,1.2,1.5,2.7,2.8,4,4.1,1.7,1.6,3.4,3.2,4.7,5,1.2,1.7,2,3.8,2.9,6,.7,1.8,1.4,3.8,2.5,5.5.6,1.1,1.3,2.1,1.9,3.2,1.5,2.5,3.1,5,4.4,7.7.8,1.7,1.8,3.2,2.7,4.8,1.2,2,2.5,4.1,3.4,6.3.8,2,1.1,4.3,1.5,6.6.3,1.9.6,3.8,1.1,5.7.5,1.8,1.3,3.5,1.9,5.2.9,2.2,1.8,4.3,2.3,6.5.5,2.4.7,4.9.9,7.3.1,1.6.2,3.4.5,5,.3,2,.8,3.9,1.3,5.7.6,2.3,1.2,4.4,1.3,6.5.1,2.7,0,5.5-.2,8.1Z"/>
  <path d="M217.6,35.6c.5.2,2.1-1,3-1.8,0,.2,0,.6.1.9.2,1.7.3,2.3.8,2.5,0,0,.2,0,.3,0s0,0,0,0h.1c.2,0,.3-.1.4-.2,0-.1.1-.3.1-.4,0-.4,0-.7,0-1.1,0-.1,0-.3,0-.4,0,0,0-.1,0-.2,0-.2-.3-1.8-.3-2.4.2-.1.4-.3.6-.4,1.2-.8,1.4-1,1.4-1.2.1-.2.2-.5.2-.8,0-.2,0-.3-.1-.5,0-.2-.1-.4-.2-.8,0-.2-.1-.4-.2-.6,0,0-.1-.2-.1-.3,0,0,.3-.2.5-.3.2,0,.4-.2.6-.3.3-.2.5-.4.8-.5.3-.2.6-.4.8-.6.1,0,.3-.2.4-.4,0,0,.1-.3,0-.5,0-.2-.2-.4-.4-.4h-.1c-.2-.1-.4-.1-.6,0h-.1c-.3.3-.7.5-1.1.6-.1,0-.2.1-.3.2-.1.1-.5.4-.9.6,0,0,0,0,0,0,0-.3,0-.5,0-.7,0-.7-.1-2-.8-2.3-.2-.1-.6,0-.7,0-.1,0-.2.3-.3.4,0,.4.1,1.1.2,1.4,0,.3,0,.7.2,1.1,0,.3.2.8.1,1-.1.1-.5.3-.7.4,0,0-.2.1-.2.2,0,0-.4.3-.6.4-.2.1-.4.3-.6.4-.1.1-.2.3-.2.5,0,.4.1.8.3,1.1,0,.3.2.5.2.7,0,0,0,.1,0,.2,0,0,0,.2,0,.3,0,.1.2.5.2.7-.2.3-.8.6-1.2.9-.8.5-1.5.9-1.8,1.6-.2.5,0,.8.3,1ZM221.4,29.5c.1,0,.3-.1.5-.3,0,0,.2-.1.4-.2,0,0,0,0,.1,0v.5c.1.3.2.6.3.8,0,0,0,0,0,0l-.2.2c-.3.1-.6.4-.8.6,0,0,0,0,0,0,0-.2,0-.4-.1-.5-.1-.3-.2-.6-.3-.9,0,0,0,0,0,0Z"/>
  <path d="M286.4,99.3c.3,0,.7-.2.9-.3l1.2-.6c.5-.3,1-.5,1.5-.8.5-.3,1-.5,1.5-.8l1-.5c0,0,.1,0,.2-.1,0,0,0,0,.2-.1.1,0,.3-.1.5-.2.3,0,.6.2.9.4.3.2.7.4,1.2.5.2,0,.3,0,.4,0,0,0,.2,0,.3,0,.1,0,.3,0,.4-.1.2,0,.3-.2.4-.4.1-.2.1-.4,0-.7-.2-.3-.7-.5-.9-.6-.3-.1-.5-.2-.8-.3l.5-.2h0c.2,0,.4,0,.6-.3,0,0,0,0,0,0,0,0,0,0,0,0,.1,0,.2-.1.4-.2.3-.2.6-.4.7-.6.2-.3.3-.6.1-.9-.2-.3-.5-.5-1.1-.3,0,0-.2,0-.3.1l-1.3.7c.3-.6.5-1.2.3-1.6,0,0,0-.1-.1-.2-.1-.1-.3-.2-.5-.2h-.1c-.2,0-.4,0-.5.2h0c0,0,0,0,0,0,0,0,0,.1-.1.2,0,.1-.1.3-.2.4h0c0,.2,0,.3-.1.4,0,.1-.2.3-.3.5-.1.2-.2.4-.3.6,0,.1,0,.3,0,.4,0,0,0,.1,0,.2,0,0,0,0,0,.1-.4.2-.7.3-1.1.5h-.2c0,.1,0,.1,0,.2h0c0,0,0,0-.1.1,0,0,0,0,0,0-.2.1-.5.2-.7.4-.3.1-.6.3-.9.4l-.4.2c-.6.3-1.3.7-2,1,0,0,0,0,0,0,0,0,0,0-.1,0-.1,0-.2,0-.3.2-.1,0-.4.2-.6.4-.3.4-.4.8-.2,1.2.1.3.4.4.6.4Z"/>
  <path d="M310.2,190.7l-2.6-.6s0,0,0,0c.3-.1.6-.3.7-.5,0,0,0,0,0,0,0,0,.1-.2.2-.4,0-.5-.2-.9-.6-1,0,0-.1,0-.2,0-.1,0-.2,0-.4,0h-.2c0,0,0,0-.1.1h0s0,0-.1,0c0,0,0,0,0,0,0,0,0,0,0,0,0,0,0,0-.1,0h0s0,0,0,0c0,0-.2,0-.3.2-.3.2-1.1.6-1.3.7-.1,0-.3,0-.4,0h0s0,0,0,0c-.1,0-.2,0-.3,0-.2,0-.3,0-.5,0,0,0,0,0,0,0,0,0,0,0,0,0h0s-.1,0-.2,0c0,0-.1,0-.2,0,0,0,0,0,0,0h0s0,0,0,0l-2-.4c0,0-.1,0-.2,0-.2,0-.3,0-.5,0-.1,0-.3,0-.4,0h0c0,0-.1,0-.2,0,0,0,0,0,0,0,0,0,0,0,0,0-.2,0-.6,0-.9.2-.2.1-.4.4-.4.6,0,.3,0,.6.3.8.1.1.3.1.3.1h.6c.1.1.3.2.4.2,0,0,.2,0,.3,0,0,0,0,0,0,0h0s0,0,0,0c0,0,0,0,.1,0h.1s0,0,0,0c0,0,0,0,0,0,.1,0,.3,0,.4,0,.1,0,.3,0,.4,0,.2,0,.4,0,.6,0,.2,0,.3,0,.5,0,0,0,0,0-.1,0h-.2c0,.1,0,.2,0,.2,0,0,0,0-.1,0,0,0,0,0,0,0-.1.1-.4.3-.5.7,0,.1,0,.2,0,.3,0,0,0,0,0,0h0s0,0,0,.2c0,.2.2.4.5.5h0s0,0,.1,0c.1,0,.3,0,.4-.1.3-.2,1.7-1,1.9-1,0,0,0,0,0,0,0,0,.2,0,.3-.1,0,0,.2-.1.3-.2,0,0,.1,0,.2,0,0,0,0,0,0,0,0,0,0,0,0,0,0,0,.2,0,.3,0l.9.2c.3,0,.6.1.8.1,0,0,0,0,.1,0,0,0,0,0,0,0,0,0,0,0,.1,0,0,0,0,0,.1,0,0,0,0,0,0,0,.1,0,.2,0,.4,0,0,0,.2,0,.3,0h.5c.1.1.2.2.3.2.1,0,.3,0,.4,0,0,0,.3,0,.4,0,.2,0,.4,0,.7-.1,0,0,0,0,.1-.1,0,0,0,0,0,0,0,0,.1-.2.2-.3,0-.2,0-.4-.1-.6-.1-.2-.3-.3-.5-.4ZM304.8,191.3s0,0,0,0h0s0,0,0,0ZM306.9,188.5s0,0,0,0c0,0,0,0,.1,0h0s0,0-.1,0Z"/>
  <path d="M256.7,272c.1,0,.3,0,.4,0,0,0,0,0,.1,0,0,0,.2,0,.3-.2.3-.3.4-.8.1-1.1,0-.1-.2-.2-.3-.2,0,0,0,0,0,0,0,0-.1,0-.2,0,0,0-.1,0-.2,0,0,0,0,0,0,0,0,0,0,0,0,0,0,0,0,0,0,0,0,0,0,0,0,0,0,0,0,0,0,0,0,0,0,0,0,0,0,0,0,0,0,0,0,0-.1,0-.2,0,0,0,0,0,0,0,0,0-.1,0-.2,0-.2,0-.9-.1-1-.2,0,0-.2-.1-.4-.2h0c0,0-.1-.2-.2-.2,0,0-.2-.2-.3-.3,0,0,0-.1-.1-.2,0,0,0,0-.2-.1,0,0,0,0,0,0,0,0,0,0,0,0h0s0,0,0,0h0s-1-1.3-1-1.3c0,0,0,0-.1-.1,0-.1-.2-.2-.3-.3,0,0-.2-.2-.3-.3,0,0,0,0-.1-.1,0,0,0,0,0,0,0,0,0,0,0,0-.2-.2-.5-.4-.8-.4-.2,0-.5,0-.7.2,0,0-.3.3-.2.7,0,.2.1.4.2.4l.3.4c0,0,.1.1.2.2,0,0,0,.1.1.2,0,0,0,0,0,0h0c0,0,0,0,0,.1,0,0,0,0,.2.1l.4.5c.1.1.2.3.4.4,0,0,0,0,0,0,0,0,0,0,0,0,0,0,0,0-.1,0,0,0-.1,0-.1,0-.2,0-.4,0-.6.2,0,0,0,0-.1.1,0,0,0,.1-.1.2,0,0,0,0,0,0-.1.2,0,.6,0,.8.1.1.3.2.5.2.3,0,1.5.2,1.7.3,0,0,.1,0,.2,0,0,0,.2,0,.3,0,0,0,0,0,.1,0,0,0,0,0,0,0,0,0,0,0,.1.1l.5.6c.2.2.3.4.5.5,0,0,0,0,0,0,0,0,0,0,0,0,0,0,0,0,0,0h0c0,.1,0,.2,0,.2,0,0,0,0,0,0,0,0,0,0,.2.1,0,0,0,0,.1.1l.3.3c0,0,0,.1.1.2,0,0,.1.2.2.3,0,0,.1.2.2.3.1.1.3.2.5.3,0,0,.1,0,.2,0s0,0,0,0c0,0,0,0,.1,0,0,0,.2,0,.3-.1.3-.3.4-.8.1-1.1l-1.2-1.4ZM251.1,267.1c0,0,0,.1,0,.2,0,0,0-.1,0-.2,0,0,0,0,0,0ZM251.4,270s0,0,0,0c0,0,0,0,0,0,0,0,0,0,0,0ZM253.8,269.3h0s.1-.1.1-.1h-.1Z"/>
  <path d="M167.2,298.8c0,0,0-.1-.1-.2-.3-.3-.6-.6-.9-1,0-.1-.3-.6-.8-.6h0c-.2,0-.3,0-.4.2h-.1c-.3.5-.7.9-1,1.4-.4.4-1.5,1.5-1.5,2.1,0,0,0,0,0,0,0,.2.2.5.4.6,0,0,.2,0,.3,0,.6,0,1-.5,1.4-1,0,0,0,0,.1-.1,0,0,0,.1,0,.2,0,0,0,.1,0,.2,0,.1,0,.3,0,.5v.3c0,.2,0,.4,0,.7v.2c0,0,0,.2,0,.4v.2s0,.5,0,.5v.2c0,0,0,.2,0,.3s0,.1,0,.2c0,0,0,0,0,0,0,.2,0,.3,0,.5,0,0,0,0,0,0,0,.1,0,.2,0,.4,0,0,0,0,0,.1,0,0,0,0,0,.1,0,.1,0,.2,0,.4,0,.2,0,.3,0,.5,0,.2,0,.4,0,.5,0,.1,0,.2,0,.3,0,.1,0,.3,0,.4,0,0,0,.2,0,.2,0,.2,0,.3,0,.5,0,.1,0,.2,0,.3,0,.1,0,.3,0,.4,0,.2,0,.3,0,.5,0,0,0,.2,0,.3,0,.1,0,.2.1.3,0,.2.2.3.5.5,0,0,.2,0,.3,0h0c.3,0,.5-.2.6-.3.2-.3.2-.6.1-.7,0,0,0-.2,0-.4,0-.1,0-.2,0-.3,0,0,0,0,0,0,0,0,0-.2,0-.3,0-.3,0-.6,0-.9,0-.3,0-.6,0-.9,0,0,0,0,0,0,0,0,0,0,0-.1h0c0,0,0,0,0,0,0,0,0-.2,0-.3,0-.1,0-.2,0-.2h-.4s0,0,0,0h.4c0,0,0-.1,0-.1v-.2s0,0,0,0c0,0,0,0,0,0v-.2s0-.1,0-.2v-.5s0,0,0,0c0-.1,0-.3,0-.4,0,0,0-.2,0-.3,0,0,0-.1,0-.1,0,0,0-.2,0-.2v-.7c0,0,.1-.2.1-.4,0-.7,0-1.4,0-2.1,0,0,0,0,0,0,0,0,0,.1.1.2,0,0,.2.2.2.3.2.2.3.4.6.6,0,0,0,0,.2,0,0,0,.2.2.5.2h.3c.1,0,.3,0,.4-.1h0c.1-.2.2-.3.2-.5,0-.3-.2-.6-.9-1.3-.2-.2-.5-.6-.6-.7ZM164.5,307.1h0c0,0,0-.1,0-.1h.1c0,.1,0,.1,0,.1ZM164.8,307.3h0s0,0,0,0h0s0,0,0,0Z"/>
  <path d="M79.7,264.3c0-.1-.2-.3-.3-.4,0,0,0,0,0,0-.1,0-.2-.1-.4-.2,0,0,0,0,0,0-.2,0-.4.1-.5.2-.2.2-.2.5-.2.9,0,.1,0,.3,0,.4l-.5-.4s0,0-.1,0l-.2-.2c-.9-.7-1.3-.3-1.5-.1-.2.2-.2.7.1,1,0,0,.1.1.2.2l.9.7c.2.1.3.3.5.4-.1.2-.2.3-.4.5,0,.1-.2.3-.3.4h0s0,0,0,0v.2c-.2,0-.2,0-.2,0,0,0,0,0-.1.1,0,0,0,0,0,0h0s-.4.4-.4.4c0,0,0,0,0,0,0,0-.1.1-.2.2,0,0-.1.2-.1.2,0,0,0,0,0,0,0,0,0,0-.1,0,0,0-.1.1-.2.2-.3,0-.8,0-1,.1h-.1s0,0-.1,0c0,0,0,0,0,0h-.5c0,0-.2,0-.2.1-.2,0-.4,0-.6.1-.2,0-.3,0-.5,0-.1,0-.3,0-.5,0h-.1c-.2,0-.3,0-.5,0,0,0,0,0-.2,0h-.2s0,0-.1,0c0,0,0,0,0,0-.1,0-.2,0-.3.2,0,0,0,0-.1.1-.2.2-.3.5-.2.8,0,0,0,0,0,0h0c0,0,0,.1,0,.2,0,0,0,0,0,0,0,0,0,0,0,.1,0,0,0,.2,0,.2,0,.3,0,.6,0,.9,0,.2-.1.5-.1,1,0,.3,0,.6,0,.8v.2s0,.1,0,.2c0,0,0,0,0,0h0s0,0,0,0c0,0,0,0,0,0,0,.1,0,.2,0,.3,0,0,0,0,0,0,0,0,0,0,0,0,0,0,0,0,0,.1,0,.1,0,.7.4,1,.1,0,.2.1.4.1s.1,0,.2,0c0,0,.1,0,.2,0,0,0,0,0,0,0,.1,0,.2-.1.2-.2,0,0,0,0,0-.1h0c0-.2,0-.3,0-.4v-.3c0-.1,0-.3,0-.4,0,0,0,0,0-.1,0,0,0-.2,0-.3,0,0,0-.2,0-.3,0,0,0-.2,0-.3,0-.1,0-.2,0-.3h0c0,0,0-.1,0-.1,0,0,0,0,0-.1,0-.2,0-.4,0-.5,0-.1,0-.3,0-.4,0,0,0-.1,0-.2,0,0,0-.1,0-.2,0,0,0,0,0,0v-.2c0,0,0-.1,0-.2,0,0,.2,0,.2,0,.1,0,.2,0,.3,0h.9c0-.1,0-.1.1-.1,0,0,0,0,0,0,.1,0,.2,0,.3,0,.1,0,.3,0,.5,0,0,0,0,0,0,0,.1,0,.2,0,.3,0,0,0,.1,0,.2,0,0,0,0,0,.1,0,0,0,0,0,0,0h.4c.2,0,.6,0,1-.4,0,0,0,0,.1-.1,0,0,0,0,0,0,0,0,0,0,0,0,0,0,0,0,0,0,0,0,.1-.1.2-.2,0,0,0,0,0,0v-.2c.5-.4.6-.5.7-.6,0,0,.1,0,.2-.1,0,0,0,0,0-.1,0,0,0,0,0,0,0,0,0,0,0-.1,0,0,.1-.1.2-.2.1-.1.2-.3.3-.4,0,0,.1-.2.2-.3.1,0,.2-.1.3-.2,0,0,0,0,0-.1,0,0,0-.1.1-.2,0,0,0,0,0-.1.1,0,.4-.1.5-.3,0,0,0,0,0-.1,0-.1.1-.2.2-.3h0c0-.2,0-.3,0-.4,0-.3,0-.5,0-.7,0-.3,0-.6,0-1,0-.2,0-.4-.1-.5ZM71.7,273.8h0s0,0,0,0c0,0,0,0,0,0ZM71.8,271.4s0,0,0-.1h0s0,0,0,.1c0,0,0,0,0,0Z"/>
  <path d="M30.6,190.4h.5c.2-.1.3-.2.4-.3v-.2c.2-.1.3-.3.2-.5,0,0,0-.2,0-.2-.2-.2-.4-.3-.8-.4,0,0-.2,0-.2,0,0,0,0,0-.1,0-.8,0-1.6-.1-2.4,0,0,0,0-.1,0-.2.3-.2.6-.3.9-.5,2.1-1.2,2.3-1.5,2.3-1.9,0,0,0,0,0,0,0-.2-.1-.3-.3-.4h-.2c-.1-.2-.3-.2-.5-.2-.2,0-.4.2-.6.2,0,0-.2.1-.3.2,0,0-.2,0-.2.2-.2.2-1.3.7-1.9,1.1h0c0,0-.1,0-.2.1,0,0-.1,0-.2,0,0,0,0,0,0,0-.1,0-.2.2-.2.2-.1,0-.3.2-.4.3,0,0-.1,0-.2,0-.1,0-.3,0-.4,0-.2,0-.3,0-.5,0,0,0,0,0,0,0,0,0,0,0-.1,0,0,0,0,0-.1,0,0,0-.2,0-.3,0h0s0,0-.1,0c-.3,0-.5.2-.6.3,0,0-.2.2-.3.2h-.1c-.1.2-.3.3-.4.4,0,0-.1,0-.2,0,0,0-.1,0-.2.1-.9-.1-1.7-.2-2.5-.2h0c0,0-.2,0-.2,0-.2,0-.3,0-.5,0,0,0-.2,0-.3,0,0,0-.2.1-.3.2-.2.2-.2.5-.2.6,0,0,0,.1,0,.2,0,.1.1.2.2.3.1,0,.3.1.4.2,0,0,.2,0,.3,0,0,0,.1,0,.2,0,.3,0,.6,0,.7,0,0,0,0,0,0,0,0,0,.1,0,.1,0h.4s0,0,0,0c0,0,0,0,.1,0,0,0,0,0,0,0,0,0,0,0,0,0,0,0,0,.1,0,.2,0,0-.1,0-.2.2,0,0,0,0-.1,0,0,0,0,0,0,0-.1,0-.2,0-.3.1,0,0-.1,0-.1,0h0c0,0,0,0-.1.1,0,0,0,0,0,0-.5.3-.7.7-.7,1.2,0,0,0,.1,0,.2,0,.2.3.4.6.4s0,0,.1,0c.3,0,.5-.2.6-.3h.1c0-.1.1-.2.2-.2.7-.4,1.4-.7,2.1-1.1h0s0,0,.1,0c0,0,.2,0,.2,0,0,0,.2,0,.3,0,.6.1.9.2,1.2.2.3,0,.6-.3.7-.4h.1c0-.2,0-.2.1-.2.2,0,.3-.1.4-.3.1,0,.2-.2.4-.2,0,0,.2,0,.3,0,0,0,0,0,0,0,0,0,.2,0,.3,0,0,0,.2,0,.3,0h.2c.1,0,.2,0,.4,0h.2c.3,0,.6,0,.9,0,.1,0,.3,0,.4,0,0,0,0,0,.1,0,0,0,0,0,0,0,0,0,0,0,0,0,0,0,.6,0,.8,0Z"/>
  <path d="M32.7,92.6s0,0,0,.1c.4,1.2.7,2.2,1.2,3.1,0,0,0,.1.1.2,0,0,.2.2.3.3.4.2.8,0,1-.3,0,0,0-.2,0-.2h0c0-.2,0-.3,0-.4,0-.1-.3-.8-.5-1.5h.1c0,0,0,.1,0,.1,0,0,.2,0,.5.3l.6.3c.7.4,1.6.9,2.2,1.1.2,0,.4.2.7.4.2.1.4.2.6.3.2.1.4.2.7.3.2,0,.4.2.6.3,0,0,0,0,.1,0,.3.2.5.3.7.3,0,0,.1,0,.2,0,0,0,.2,0,.2.1,0,0,0,0,0,0,0,0,.2.1.3.2.1,0,.2.1.3.1,0,0,.1,0,.2,0h0c.1.1.3.2.6.2s.1,0,.2,0c.4-.1.5-.4.6-.5.1-.2.1-.4,0-.6,0-.2-.2-.3-.4-.4-.2,0-.3-.1-.5-.1,0,0-.1,0-.2-.1,0,0-.3-.2-.4-.2-.1,0-.2-.1-.3-.2,0,0-.2,0-.2-.1,0,0-.2,0-.3-.1-.1,0-.3-.1-.4-.1,0,0,0,0,0,0-.1-.1-.3-.2-.4-.2-.6-.3-1.3-.6-2-1-.5-.3-1-.5-1.5-.8-.5-.3-1-.6-1.5-.8-.1,0-.2,0-.3-.1,0,0,0,0-.1,0-.1,0-.2,0-.3-.1l1.5-.4h0c.2,0,.6-.1.9-.7,0-.1,0-.2,0-.3,0-.2-.2-.5-.4-.6-.4-.2-.8,0-1,0-.2,0-1,.2-1.6.4-1.7.3-2.3.5-2.6.9-.1.2-.1.4,0,.6,0,0,0,.1,0,.2Z"/>
  <path d="M104.2,26c0,.1.1.2.2.3,0,0,0,.1.1.2,0,0,0,0,0,.1,0,0,0,.1,0,.2,0,.2,0,.4.1.4,0,0,0,.1,0,.1,0,0,0,0,0,0h0c0,.2,0,.3.1.4l1.3,2.9c.1.2.2.5.3.9.2.6.4,1.1.7,1.5,0,.1,0,.2.2.4,0,0,0,.2.1.3,0,0,0,.2.1.3,0,0,0,.2.1.2,0,0,0,.1.1.2l.4.8c0,0,0,.2.1.2,0,0,0,.1.1.2,0,.2.3.7.6.8,0,0,.2,0,.3,0s.2,0,.3,0c.3-.1.5-.5.4-.8,0,0,0-.1,0-.2,0,0,0-.1,0-.2,0-.2-.2-.4-.3-.6l-.2-.4c0,0,0-.1-.1-.2,0,0,0,0,0-.1v-.3c-.1,0-.1-.1-.2-.2,0,0-.3-.5-.3-.6,0,0,0,0,0,0h0c0-.2,0-.2,0-.2l-.9-2.1s0,0,0-.1c0-.1,0-.2-.1-.3h0c0-.2,0-.3-.1-.4,0,0,0,0,0,0,0,0,0,0,0-.1,0,0,.2,0,.2,0,0,0,0,0,.1,0l.4.2c.1.1.3.2.4.2,0,0,0,0,.1,0,0,0,.2,0,.2,0,.1,0,.3,0,.5,0,.2,0,.3-.3.4-.5,0-.2,0-.4,0-.5-.2-.4-.9-.8-3-1.6-.1,0-.2,0-.3,0h0c0,0,0-.1,0-.2,0,0,0,0,0,0,0-.1,0-.3-.2-.5.4.1.5.2.5.2,0,0,0,0,.2,0h.3c.2.4.8.8,1.3.6.2-.1.4-.3.5-.5,0-.2,0-.5,0-.7,0-.1-.1-.2-.3-.3-.2,0-.5-.3-1-.5-.5-.2-1.3-.6-1.4-.7,0,0-.1,0-.2,0,0,0-.2,0-.3-.2-.4-.3-1-.6-1.5-.3-.2,0-.4.3-.4.5,0,.2,0,.4,0,.6,0,.1.1.3.2.4Z"/>
</svg>