<?xml version="1.0" encoding="UTF-8"?>
<svg id="Layer_1" xmlns="http://www.w3.org/2000/svg" version="1.1" viewBox="0 0 658.1 422.1">
  <!-- Generator: Adobe Illustrator 30.2.1, SVG Export Plug-In . SVG Version: 2.1.1 Build 1)  -->
  <path d="M59.9,280.2v-.6c0-.8-.4-1.3-1.3-1.4v1.4c-.4,0-.6-.2-.6-.6-.9.4-1.6.6-2.1.6v1.9h1.4c0-.9.9-1.3,2.6-1.3Z"/>
  <path d="M29.6,344.7v.6h.6c1.1-.9,2-1.3,2.7-1.3v-1.3c-2.3.3-3.4.9-3.4,1.9Z"/>
  <path d="M29,342v1.4c.9,0,1.3-.5,1.3-1.4v-1.3c-.7,0-1.1.4-1.3,1.3Z"/>
  <path d="M73.4,272.1h-2.1c-.7,0-1.1.4-1.3,1.3h2.1c.9,0,1.3-.4,1.3-1.3Z"/>
  <path d="M71.3,285.5v-2.6l-.6-1.4-3.4,1.4c0,.2.3,1,.8,2.6h.6v-1.9h1.9v1.9h.6Z"/>
  <path d="M109.3,205.2h1.3v-2.1l-2.6.8c0,.9.4,1.3,1.3,1.3Z"/>
  <path d="M100.9,278.1v-1.9h-1.3v-2.1h2.1v-.6h-1.4c6.9-29.3,10.9-44,11.8-44,0-.4-.3-.6-.8-.6l2.1-10.8v-1.9h-.6v1.3h-1.4c1.3-1.9,2.4-4.4,3.4-7.4-.4-.9-.6-1.5-.6-1.9h-1.3l-3.4,1.9c-1.8,0-2.7-.6-2.7-1.9.3,0,1.2-.2,2.7-.6-1.1-1.8-2-2.7-2.7-2.7l.6-3.4-.6-2.7c1,0,1.4-.4,1.4-1.3v-1.4h-1.4v.8c-3.1,1.6-6.2,4.2-9.4,8.1-.8,3.6-3,7-6.8,10.1-.9,5.8-1.8,8.7-2.7,8.7-6.9,29.3-11.3,44.7-13.1,46v.6h2.7l-1.9,4-1.4-.6c0,.5.2,1.2.6,2.1-1.1,6.3-2.7,10.6-4.7,12.7,0,.4.2.6.6.6,0,1.2-.6,3.2-1.9,6.1h.6l-.6,4.7v6.1l-2.7,7.4c0,.4.4.6,1.3.6l-3.4,17.5c.5,0,.8.2.8.6-.5,0-.8.2-.8.6l.8,1.3c-.5,0-.8.9-.8,2.7-.7,0-1.1-.4-1.3-1.3l.6-1.4-1.3-.6v-1.9l-.6-1.4,1.9-3.4h-1.3c-2.4-9.3-4-14-4.7-14-1.3-1.7-2.6-7.1-4-16.2v-5.3l1.3.6v-2.1c-2,0-3.3-1.8-4-5.3l.6-1.3c.4,0,.6.2.6.6l1.4-.6,1.3.6.6-4.7h-1.3l-2.1,3.2h-.6c-.8,0-3-6-6.8-18.1h1.4v-1.4l-1.4.6c0-.3-2.3-7.2-6.8-20.8h.8l-2.7-5.5.6-1.3c-2.7-2.7-4.2-4.7-4.7-6.1l1.3-.6c0-1.6-.4-5-1.3-10.1.4,0,.6-.2.6-.6l-1.3-5.3.6-1.3c-2.5,0-5.7-3.2-9.5-9.5l-1.3.6-.6-3.4.6-1.3c-1-3.1-1.9-4.7-2.7-4.7-2.1,0-5-3.2-8.7-9.5,0,1.1-.9,2.7-2.7,4.7l.6,4c0,1-.4,1.4-1.3,1.4,1.3,2.3,2.9,3.4,4.7,3.4v1.9h-.6l-2.1-1.3h-.6c0,2.3.7,3.6,2.1,4,0,.4-.2.6-.6.6,1.3,13.1,2.6,20.5,4,22.2-.4,0-.6.2-.6.6v.6l1.9,9.5c-.4,0-.6.2-.6.6.9,4.4,2,7.1,3.4,8.1v.8h-1.4v1.9c0,1.4,2.5,13,7.4,34.9h-.6c1.4,3.8,2.1,6.3,2.1,7.4l-.6,2.7c1.1,1.3,3.3,9.8,6.6,25.6h-.6c.6,2.9,1.3,5.3,2.1,7.4h-.6c.9,2.8,1.3,4.5,1.3,5.3,0,1.4-1.3,2.1-4,2.1v1.3h3.4c.9,0,1.3.5,1.3,1.4v1.9h-2.7v2.1l3.4-.6c0,.6.5,3.1,1.4,7.4-.4.7-.6,1.8-.6,3.2-1,0-1.4-.6-1.4-1.9h-.6l-3.4.6v-1.3c-.8,0-1.2.4-1.3,1.3v.6c1.3,0,1.9.5,1.9,1.4v.6c-2-1.4-3.6-2.1-4.7-2.1l-1.3.6c0-.4-.3-.6-.8-.6s-1.1.5-1.3,1.4v3.4c.9,0,1.3.4,1.3,1.3.5,0,.8-.2.8-.6l1.9,1.3h.6l1.4-.6-.6-1.3v-.8l4-.6h.6c0,.5-.2,1.2-.6,2.1v.6l2.6-2.1-.6,3.4h2.7c-.3,1.4-1.7,2.1-4,2.1v1.3l3.4-.6v1.3h-2.1v2.1h1.4v1.3h-1.4v.6c2.6,0,4.2.3,4.7.8,0-.5.3-.8.8-.8h.6v1.4c0,.2-.5.8-1.4,1.9,1.8,0,2.7.5,2.7,1.4-.4,0-1.1-.2-1.9-.6-.6,0-1.1.9-1.4,2.6v.6c1,0,1.4-.4,1.4-1.3l2.6,1.3c.8,2.8,3,8,6.8,15.6.9,0,1.3-.7,1.3-2.1h.8c.9,5,2.4,8.4,4.7,10.1h.6c.9,0,1.8-1.8,2.7-5.5h.6c0,.7.4,1.6,1.3,2.7v2.1l-1.3,1.9v3.4c1.4,1.6,2.1,3.2,2.1,4.7v4c0,2.8-1.8,7.1-5.5,12.9v.6h.6c2.9,0,7.4-8.5,13.5-25.6h.6c.9,0,1.3.4,1.3,1.3,1.4-.3,2.1-1.7,2.1-4v-6.6c1.1-6.5,2.5-11.2,4-14.2l-.6-1.4c.7-.9,2.7-8.5,6.1-22.9-.5,0-.8-.2-.8-.6.5,0,1.2-1.6,2.1-4.7,1-12.6,2.3-18.8,4-18.8v-.6c-1.4,0-2.1-.5-2.1-1.4v-.6c1.1,0,1.8-.9,2.1-2.7,2.3-3,3.4-6.1,3.4-9.4l-.6-1.4c1.1,0,2-2.5,2.6-7.4,0-.3-.2-2.1-.6-5.3h1.4v-1.9c.9-3.8,1.7-6.5,2.6-8.2h-.6c.8-3.1,1.9-6,3.4-8.7h.6v1.3h.6ZM12.9,201.5l.6-1.4c.9,0,1.3.5,1.3,1.4h-1.9ZM16.2,237.8c-.8,0-1.3-.5-1.4-1.4v-1.9h2.1l-.6,3.4ZM21.6,264.7h-1.3c.4-.9.6-1.6.6-2.1h.6v2.1ZM31,234.5c-.7,0-1.4-.9-2.1-2.7h1.3c1,0,1.4.4,1.4,1.3l-.6,1.4ZM31.7,350.8v-2.1h.6c0,.5.2,1.2.6,2.1h-1.3ZM35.7,362.3v-1.3h.6c1.4.7,2.1,1.3,2.1,1.9l-2.7-.6ZM41,304.3c-.6,0-1.3-.9-1.9-2.6.4,0,.6-.5.6-1.4.9,0,1.3.5,1.3,1.4v2.6ZM76.7,279.5h-.6v-3.4h1.3c-.4.7-.6,1.8-.6,3.4Z"/>
  <rect x="71.3" y="275.5" width="1.4" height="1.9"/>
  <path d="M71.3,268.1c0-.5-.2-.8-.6-.8l.6-1.3-.6-1.3c-1.1,1.3-2,1.9-2.6,1.9v1.4c1,0,1.8.2,2.6.6,0-.4.2-.6.6-.6Z"/>
  <path d="M69.3,272.8c0-1.4.6-2.1,1.9-2.1,0-.7-.4-1.1-1.3-1.3h-3.4c1,1.1,1.4,2.3,1.4,3.4h1.3Z"/>
  <path d="M66.6,272.8c-.8,0-1.2.4-1.3,1.3v1.4h1.3v-2.7Z"/>
  <rect x="61.9" y="323.2" width="1.3" height="2.1"/>
  <path d="M66,280.2c0-.5.2-1.2.6-2.1,0-.6-.9-1.3-2.7-1.9h-.6v1.9c.4,0,.6-.2.6-.6,1,0,1.4.5,1.4,1.4l-.6,1.3h1.3Z"/>
  <path d="M61.9,288.2c-.9.4-1.6.6-2.1.6.5.9.8,1.6.8,2.1h1.3v-2.7Z"/>
  <path d="M69.3,276.8c0-.8-.4-1.2-1.3-1.3h-.8c0,.2.3,1,.8,2.6.9,0,1.3-.4,1.3-1.3Z"/>
  <path d="M25.6,332v1.9h.6l1.4-.6-.6-2.7c-.8,0-1.3.5-1.4,1.4Z"/>
  <path d="M29,321.2h-.6c-.8,0-1.2.4-1.3,1.3h1.9v-1.3Z"/>
  <path d="M28.3,342.8h-.6c-.8,0-1.3.4-1.4,1.3h.8c.9,0,1.3-.4,1.3-1.3Z"/>
  <path d="M21.6,337.3h1.3c.7,0,1.6-1.1,2.7-3.4h-1.3c-1,.3-1.9,1.4-2.7,3.4Z"/>
  <path d="M27,330.6c.9-.4,1.5-.6,1.9-.6v-1.3h-.6c-.8,0-1.2.4-1.3,1.3v.6Z"/>
  <path d="M22.9,375.8h.8c.9,0,1.3-.5,1.3-1.4h-.6c-.8,0-1.3.5-1.4,1.4Z"/>
  <path d="M26.2,344.1h-1.3c0,.5-.2,1.2-.6,2.1l1.9,1.3v-1.3l-.6-1.4c.4,0,.6-.2.6-.6Z"/>
  <path d="M20.9,324.6v.6h1.9v-.6l-.6-1.4c-.7,0-1.1.5-1.3,1.4Z"/>
  <rect x="62.6" y="319.1" width="1.3" height="2.7"/>
  <path d="M6.1,183.3v.6h1.3c.7,0,1.4-.9,2.1-2.7-.3-.8-.8-3.9-1.4-9.4.5,0,.8-.2.8-.6-.7-1.8-1.4-2.7-2.1-2.7,0,.4.2,1.1.6,2.1,0,.3-.6,2.1-1.9,5.3.4,4,.6,6.5.6,7.4Z"/>
  <path d="M57.3,285.5v-.6h-1.4v2.1c1,0,1.4-.5,1.4-1.4Z"/>
  <path d="M27,184c-.8,0-1.3.4-1.4,1.3v.8h1.4v-2.1Z"/>
  <path d="M52.5,277.5l-.6,1.4v.6h.6c1,0,1.4-.5,1.4-1.4s-.5-1.1-1.4-1.3c0-.4.3-.6.8-.6l-.8-1.4c-.8.5-1.6.8-2.6.8v2.6l1.3-.6h1.3Z"/>
  <path d="M25.6,360.2v-.6h-.6l-1.3.6.6,1.4c.9,0,1.3-.5,1.3-1.4Z"/>
  <path d="M27,190.7c.4,0,.6-.2.6-.6l1.3.6v-1.3h-2.7l.8,1.3Z"/>
  <rect x="14.2" y="186.7" width="2.1" height="1.3"/>
  <path d="M0,182c.5.8,1,2.8,1.4,6h.6l1.3-.6c-1-1.5-1.7-3.5-1.9-6.1L0,182Z"/>
  <path d="M39.7,395.2h.6c1,0,1.4-.5,1.4-1.4h-2.1v1.4Z"/>
  <path d="M37.7,381.7v.6c0,1,.5,1.4,1.4,1.4h.6c-.7-1.4-1.4-2.1-2.1-2.1Z"/>
  <path d="M28.3,356.8v.8c1.8-.7,2.7-1.4,2.7-2.1v-.6c-1.8.7-2.7,1.3-2.7,1.9Z"/>
  <path d="M57.9,276.2h-1.4v1.9c.3,0,1.2-.2,2.7-.6,0-.8-.4-1.2-1.3-1.3Z"/>
  <path d="M63.9,271.5v-1.4c-.4,0-1.1-.2-1.9-.6h-.6l.6,1.3v.8h-.6l-1.4-.8-.6,1.4,3.4.6c.9,0,1.3-.4,1.3-1.3Z"/>
  <path d="M32.3,365c0,.9-.7,1.3-2.1,1.3v1.3c.8,0,1.9.7,3.4,2.1,0-1-.2-1.9-.6-2.7l.6-1.3-1.3-.6Z"/>
  <path d="M29,363.6h.6v-1.9h-2.6c.7,1.3,1.3,1.9,1.9,1.9Z"/>
  <path d="M24.9,369v.6h2.1v-.6l-.8-1.4c-.7,0-1.1.5-1.3,1.4Z"/>
  <path d="M39.1,375.8v-.8c-.4,0-.6.3-.6.8l-1.4-.8h-.6l.6,3.4h1.4c0-1,.2-1.8.6-2.6Z"/>
  <path d="M27.7,358.9v1.3h1.3c.9,0,1.3-.4,1.3-1.3h-2.6Z"/>
  <rect x="24.9" y="362.3" width="2.1" height="1.3"/>
  <rect x="157.5" y="178.7" width="1.4" height="2.7"/>
  <rect x="156.9" y="175.3" width="1.4" height="1.9"/>
  <path d="M201.4,252.8v1.4h.6v-2.1l-1.9-10.8c.4,0,.6-.2.6-.6-1,0-2.8-4.5-5.5-13.5h1.4v-.6h-2.1v-2.1h1.4v-1.9h-.8v1.3h-.6c-1.5-2.8-2.6-5.7-3.4-8.8h.6c-.2-.4-.5-1-.7-1.6.7,0,1.1-.5,1.1-1.4h-1.6c-.5-1.4-.9-3.1-1.4-5.1v-2.1h-1.4c.4-3.2.6-5,.6-5.3-.6-4.9-1.5-7.4-2.6-7.4l.6-1.4c0-3.2-1.1-6.3-3.4-9.3-.3-1.8-1-2.7-2.1-2.7v-.6c0-1,.7-1.4,2.1-1.4v-.6c-1.7,0-3.1-6.3-4-18.8-1-3.2-1.6-4.8-2.1-4.8,0-.4.2-.6.6-.6,0-.4-3.1-13.2-9.4-38.4v-6.8c-.3-2.7-1-4-2.1-4-.2.9-.6,1.3-1.3,1.3h-.8c-6.1-17.1-10.6-25.6-13.5-25.6h-.6v.6c3.6,5.8,5.5,10.1,5.5,12.9v4c0,1.5-.7,3-2.1,4.7v3.4l1.4,2.1v1.9c-1,1.1-1.4,2-1.4,2.7h-.6c-.9-3.6-1.8-5.5-2.7-5.5h-.6c-2.2,1.7-3.8,5.1-4.7,10.1h-.8c0-1.3-.4-1.9-1.3-1.9-3.7,7.5-6,12.7-6.8,15.5l-2.7,1.4c0-1-.5-1.4-1.3-1.4v.6c.3,1.8.8,2.7,1.3,2.7.9-.4,1.6-.6,2.1-.6,0,.9-.9,1.3-2.7,1.3l1.4,2.1v1.3h-.8c-.4,0-.6-.2-.6-.6-.6.4-2.2.6-4.7.6v.8h1.3v1.3h-1.3v2.1h1.9l-.6,1.3-1.3-.6h-1.4v1.3c2.8.3,4.2,1,4.2,2.1h-2.7l.6,3.4-2.7-2.1v.6c.4.9.6,1.6.6,2.1h-.6l-4-.6v-.6l.6-1.4-1.3-.6h-.6l-2.1,1.3c0-.4-.2-.6-.6-.6,0,1-.5,1.4-1.4,1.4v3.4c0,.9.5,1.3,1.4,1.3s.6-.2.6-.6l1.3.6c1.2,0,2.8-.7,4.8-2.1v.8c0,.9-.7,1.3-2.1,1.3v.6c0,1,.5,1.4,1.4,1.4v-1.4l3.4.6h.6c0-1.3.4-1.9,1.3-1.9,0,1.5.2,2.6.6,3.4-.9,4.3-1.3,6.8-1.3,7.4l-3.4-.6v1.9h2.7v2.1c-.2.9-.6,1.3-1.4,1.3h-3.4v1.4c2.8,0,4.2.6,4.2,1.9s-.5,2.7-1.4,5.5h.6c-.8,2.1-1.4,4.5-1.9,7.4h.6c-3.3,15.8-5.5,24.4-6.8,25.6,0,.3.2,1.2.6,2.7-.5,4.1-1.2,6.1-1.9,6.1,0,.4.2.6.6.6,0,.8-2.5,12.5-7.4,35.1v2.7h1.3v.6c-1.4,1-2.5,3.8-3.4,8.2,0,.4.2.6.6.6l-1.9,9.5v.6c0,.4.2.6.6.6-1.4,1.7-2.7,9.2-4,22.3.4,0,.6.2.6.6-1.4.4-2.1,1.8-2.1,4h.6c1.1-.9,1.8-1.3,2.1-1.3h.6v1.9c-1.8,0-3.4,1.1-4.7,3.4.9.2,1.3.6,1.3,1.4l-.6,4c1.8,2,2.7,3.5,2.7,4.7,3.8-6.3,6.7-9.5,8.7-9.5s1.7-1.6,2.7-4.7l-.6-1.3.6-3.4,1.4.6c3.8-6.3,6.9-9.5,9.4-9.5l-.6-1.3c1-3.4,1.4-5.2,1.4-5.5,0-.4-.3-.6-.8-.6,1-5.1,1.4-8.5,1.4-10.1l-1.4-.6c.5-1.4,2.1-3.4,4.8-6.1l-.6-1.3,2.6-5.5h-.6c4.5-13.7,6.8-20.6,6.8-20.9l1.3.6v-1.3h-1.3c3.7-12.2,6-18.3,6.8-18.3,1.8,1,2.7,2.1,2.7,3.4h1.3l-.6-4.7-1.3.6-1.4-.6c0,.4-.2.6-.6.6,0-.4-.2-.6-.6-.6,1-4.5,2.4-6.8,4-6.8l.6-1.3h-.6l-1.3.6v-4c8.9-1,14.3-1.4,16.1-1.4l-.6,1.4v.6c1.4,2.1,2.1,3.9,2.1,5.3-.4,0-.6.3-.6.8,1.9,2.2,3.5,6.4,4.7,12.7-.4.9-.6,1.6-.6,2.1l1.3-.6,2.1,4h-2.7v.6c1.8,1.3,4.1,6.5,6.8,15.6,1,0,1.9,2.9,2.7,8.7,3.6,3.1,5.9,6.5,6.8,10.1,3.1,3.8,6.2,6.5,9.4,8.2v.6h1.4v-1.4l-1.4-1.9c0-1,.5-1.4,1.4-1.4-1-1.5-1.4-2.8-1.4-4,.7,0,1.6-.9,2.7-2.7-.2,0-1.1-.2-2.7-.6,0-1.1.9-1.8,2.7-1.9l3.4,1.9h1.4c0-.4.2-1.1.6-1.9-1-3-2.2-5.5-3.4-7.5h1.3ZM127.3,151.7h-.8v-2.1h1.4c-.4.9-.6,1.6-.6,2.1ZM108.3,300.8l-.6-1.3h1.9c0,.9-.5,1.3-1.3,1.3ZM109.6,266.3v-1.9c0-1,.5-1.4,1.4-1.4l.6,3.4h-2.1ZM116.4,238h-.6c0-.4-.2-1.1-.6-1.9h1.3v1.9ZM125.2,269.1h-1.3c.6-1.8,1.3-2.7,1.9-2.7l.6,1.4c0,.9-.5,1.3-1.3,1.3ZM131.3,139.5h-.6v-1.3c1.6-.4,2.4-.6,2.6-.6,0,.6-.6,1.3-1.9,1.9ZM136,198.9c-.2.9-.6,1.3-1.3,1.3,0-.9-.2-1.3-.6-1.3.6-1.8,1.3-2.7,1.9-2.7v2.7ZM155.6,184.8v1.9h-2.1c1.4-8.6,2.7-12.9,4-12.9h.8l-2.1-3.4.6-1.3v-2.1c1,0,1.4-.4,1.4-1.3h-.8c.5-.9.8-1.5.8-1.9h.6c0,1.7.2,2.6.6,2.6l-.6,1.4c0,.4.2.6.6.6,0,.4-.2.6-.6.6l3.4,17.5-6.8-1.9ZM171,224.5v-3.4h.6c0,1.6.3,2.7.8,3.4h-1.4Z"/>
  <path d="M123.9,158.4c0,.9.4,1.3,1.3,1.3v-1.3c-.2-.9-.6-1.3-1.3-1.3v1.3Z"/>
  <path d="M164.3,227.9h-1.3c0,1.1-.4,2.3-1.3,3.4h3.4c.9,0,1.3-.4,1.3-1.3-1.4,0-2.1-.7-2.1-2.1Z"/>
  <path d="M152.2,215c-.2-.9-.6-1.3-1.4-1.3v2.1h1.4v-.8Z"/>
  <path d="M147.4,221.1h-.6v.6l.6,1.4h-1.3l-1.3-.6v2.6c1,0,1.8.3,2.6.8l.8-1.4c-.5,0-.8-.2-.8-.6,1,0,1.4-.4,1.4-1.3-.2-1-.6-1.4-1.4-1.4Z"/>
  <path d="M150.8,221.1c.5,0,1.2.2,2.1.6,0-.4.2-.6.6-.6v1.4c1,0,1.4-.5,1.4-1.4v-.6c-1.8,0-2.7-.4-2.7-1.3h-1.4v1.9Z"/>
  <path d="M157.5,227.9l-3.4.6.8,1.4,1.3-.6h.6v.6l-.6,1.3h.6c.9-.4,1.6-.6,2.1-.6v-1.3c-.2-1-.6-1.4-1.4-1.4Z"/>
  <path d="M151.6,222.6v1.9h1.3c.9,0,1.3-.4,1.3-1.3-.2,0-1-.2-2.6-.6Z"/>
  <rect x="109" y="313" width="2.1" height="1.3"/>
  <path d="M121.2,311.5h2.7v-1.3h-1.4c-.9.2-1.3.6-1.3,1.3Z"/>
  <path d="M102.2,317h-1.3v.6c0,1-.2,3.4-.6,7.4,1.3,3.2,1.9,5,1.9,5.5-.4.9-.6,1.6-.6,2.1.7,0,1.4-.9,2.1-2.7,0-.4-.3-.6-.8-.6l1.4-10.9-2.1-1.3Z"/>
  <path d="M123.1,142.8v.8c0,.6.9,1.3,2.7,1.9v-.6c0-.7-.9-1.4-2.7-2.1Z"/>
  <path d="M159,210.4v-.6c-1,0-1.4-.5-1.4-1.4h-1.3c0,.9-.4,2-1.3,3.4.4,0,1.1.3,1.9.8,0-1.4.7-2.1,2.1-2.1Z"/>
  <path d="M120.5,315.7c0,.9.4,1.3,1.3,1.3v-2.1h-1.3v.8Z"/>
  <path d="M96.2,313c-.5,3.3-1,5.3-1.4,6.1l1.4.6c.3-2.6.9-4.6,1.9-6.1l-1.3-.6h-.6Z"/>
  <path d="M127.9,157.8v-1.4c-.7,0-1.6-.4-2.7-1.3h-.6v.6c0,1,1.1,1.7,3.4,2.1Z"/>
  <path d="M161.7,222.6c-.5-.9-.8-1.6-.8-2.1h-1.3l.6,1.3c0,1-.5,1.4-1.3,1.4,0-.4-.2-.6-.6-.6v1.9h.6c1.8-.7,2.7-1.3,2.7-1.9Z"/>
  <path d="M167,227.2h-1.9c0,.9.4,1.3,1.3,1.3h2.1c-.2-.9-.6-1.3-1.4-1.3Z"/>
  <path d="M161.7,225.2h-1.4v1.4c0,.9.5,1.3,1.4,1.3v-2.7Z"/>
  <path d="M196.8,266.3l2.7.8v-2.1h-1.4c-.9.2-1.3.6-1.3,1.3Z"/>
  <path d="M166.4,232.7c-.4,0-.6-.3-.6-.8-.8.5-1.7.8-2.7.8v1.3c.7,0,1.6.7,2.7,2.1l.6-1.4-.6-1.3c.4,0,.6-.2.6-.6Z"/>
  <rect x="166.4" y="223.2" width="1.3" height="1.9"/>
  <path d="M163,215c0,.3-.2,1.2-.6,2.7l3.4,1.4.6-1.4v-2.7h-.6v2.1h-2.1v-2.1h-.6Z"/>
  <path d="M162.3,225.2h.6c.9,0,1.3-.4,1.3-1.3,0-.9-.5-1.3-1.3-1.3,0,.2-.2,1-.6,2.6Z"/>
  <path d="M160.9,204.9v.8c0,.9.5,1.3,1.4,1.3l.6-1.3-1.3-.8h-.8Z"/>
  <path d="M117.8,163.1h-1.4c.9,2.1,1.8,3.2,2.7,3.4h1.4c-1.2-2.2-2.1-3.3-2.7-3.4Z"/>
  <path d="M119.1,126.1h.6c0-1-.5-1.4-1.3-1.4h-.6c0,1,.4,1.4,1.3,1.4Z"/>
  <path d="M122.5,157.8h.6c0-1-.5-1.4-1.3-1.4h-.6c0,1,.4,1.4,1.3,1.4Z"/>
  <path d="M121.8,169.8c.4-1.6.6-2.5.6-2.7l-1.3-.6h-.6v2.1c0,.9.4,1.3,1.3,1.3Z"/>
  <path d="M118.4,140.2l1.3.6h.8v-.6c-.2-1-.6-1.4-1.4-1.4l-.6,1.4Z"/>
  <path d="M121.2,153l-2.1,1.4c.4.9.6,1.5.6,1.9h1.4c0-.4-.2-.6-.6-.6l.6-1.3v-1.4Z"/>
  <path d="M123.1,171.9h.8v-1.4c-.5,0-1.2-.2-2.1-.6v.6c0,1,.4,1.4,1.3,1.4Z"/>
  <rect x="119.7" y="136.9" width="2.1" height="1.3"/>
  <path d="M134.7,116.6h-.6c-1,0-1.4.5-1.4,1.3v.6c.7,0,1.4-.6,2.1-1.9Z"/>
  <path d="M135.3,105h-.6v1.4h1.9c0-1-.5-1.4-1.3-1.4Z"/>
  <path d="M124.5,138.8v-1.9h-.6c-.7,0-1.4.6-2.1,1.9h2.7Z"/>
  <path d="M133.2,124.7c0,.4.3.6.8.6v-.6c-.5-.9-.8-1.5-.8-1.9.5,0,.8-.3.8-.8h-2.1l-.6,3.4h.6l1.3-.6Z"/>
  <path d="M122.5,140.2v1.3h2.7c-.2-.9-.6-1.3-1.3-1.3h-1.4Z"/>
  <path d="M127.3,135.4l1.3-.6-.6-1.3c.4-.8.6-1.7.6-2.7-1.5,1.3-2.6,1.9-3.4,1.9v1.4c1.4,0,2.1.4,2.1,1.3Z"/>
  <path d="M120.5,132.7c.9,0,1.3-.4,1.3-1.3v-.6h-2.1c.5.9.8,1.5.8,1.9Z"/>
  <path d="M123.1,179.3h.8v-1.3h-2.1c0,.9.4,1.3,1.3,1.3Z"/>
  <path d="M117.1,177.3l.6-1.3v-.6h-2.1v.6c0,.9.5,1.3,1.4,1.3Z"/>
  <path d="M204,189.2c2.8-.4,4.2-1.1,4.2-1.9-.3,0-1.7.2-4.2.6v1.3Z"/>
  <path d="M204,187.2c.9-.5,1.6-.8,2.1-.8v-1.3h-2.1v2.1Z"/>
  <path d="M202.6,170l-.6-1.4c-.8,0-1.3.5-1.4,1.4v.6h.8l1.3-.6Z"/>
  <rect x="203.4" y="176.1" width="1.3" height="2.1"/>
  <path d="M202.6,178.2c-1.2,0-2.6.5-4.2,1.4l.8,1.4c2.3-1.2,3.4-2.2,3.4-2.9Z"/>
  <path d="M203.4,185.8c-1.6.4-2.6.6-2.9.6v.8h.8c1.4,0,2.1-.5,2.1-1.4Z"/>
  <path d="M244.8,136.7h-2.1v1.4h.6c1,0,1.4-.5,1.4-1.4Z"/>
  <path d="M244.2,134.7h-3.5v2.1c.8-.4,1.9-.6,3.5-.6v-1.4Z"/>
  <path d="M200.5,190v-2.7h-.6l-1.4.6c.5.9.8,1.6.8,2.1h1.3Z"/>
  <path d="M243.4,127.8v2.1l1.4-.6c0-.8-.5-1.3-1.4-1.4Z"/>
  <rect x="206.8" y="168.5" width="2.9" height=".6"/>
  <path d="M224.8,47l-.8-1.4c.6-.5,1.6-3.3,2.9-8.3l-1.4-.6c-2.8,4.7-4.2,7.9-4.2,9.6v3.5c2.1-.9,3.2-1.8,3.5-2.7Z"/>
  <path d="M241.3,53.1h-.6c-.8,0-1.3.5-1.4,1.4h2.1v-1.4Z"/>
  <path d="M240.7,57.3c-.8,0-1.3.5-1.4,1.4h2.1l-.6-1.4Z"/>
  <polygon points="195.1 202.4 195.7 203.7 197.2 203.1 196.4 201.7 195.1 202.4"/>
  <path d="M199.9,199.6h-1.4v1.4h2.9c0-.8-.5-1.3-1.4-1.4Z"/>
  <path d="M199.9,198.9c2.3-.3,3.5-1,3.5-2.1l-3.5.6v1.4Z"/>
  <path d="M269,241v1.4c0,1,.5,1.4,1.4,1.4v-4.2c-.8,0-1.3.4-1.4,1.3Z"/>
  <rect x="260.7" y="241.8" width="1.4" height="4.2"/>
  <path d="M244.8,145c.9,0,1.3-.5,1.3-1.4-1,0-1.9-.2-2.7-.6l-.6,1.4c.5,0,1.2.2,2.1.6Z"/>
  <path d="M265.5,218.9l-3.4.8c0-.9-2.3-1.3-6.9-1.4l-1.4.6c-4.2-.8-6.2-1.9-6.2-3.4-.3,0-3.2.2-9,.6,0-1.8.9-5.1,2.7-9.7-2.8-4.9-4.2-8.6-4.2-11v-2.1l2.1-10.3h-.6c.7-1.4,1.4-2.1,2.1-2.1l-.6-1.4v-9.6c0-1,.7-1.4,2.1-1.4l-.8-3.5v-6.2l.8-6.9c-1.4,0-2.1-.4-2.1-1.3v-2.9h1.3v1.4h1.4v-.6c0-1-.9-1.4-2.7-1.4v-6.2c.8,0,1.9.5,3.4,1.4l2.1-3.5v-.6h-.6l-4.2,2.1-1.4-.8c0-.4.3-.6.8-.6l-.8-6.9v-4.8l-.6-3.5c.4,0,.6.2.6.6,1,0,1.4-.4,1.4-1.3h-2.1v-3.5l-.6-1.3h.6c-1-17.1-2.3-25.6-4.2-25.6h1.4c.8-6.5,1.7-9.7,2.7-9.7l-.6-1.3v-.8l.6-3.4-1.4-.8c-3.2-6-5.3-9-6.2-9v-2.7l.8-1.4c-.5,0-.8-.2-.8-.6v-.6l.8-1.4c-3.7-2.9-6-5.9-6.9-9h.6c-.4-.9-.6-1.6-.6-2.1-2.8,1.2-4.8,4-6.2,8.3,1.6,2.3,2.8,3.4,3.4,3.4l-.6,1.4c-1.1-1-1.8-1.4-2.1-1.4h-.6v.8l.6,3.4c-1,0-1.6,1.9-2.1,5.6h.6l-1.3,11c.4.8.6,1.7.6,2.7h-1.4v8.3l-.6,1.4h.6l-.6,1.3v3.5l1.4,2.1v.6c-1.9.2-2.9,1.8-2.9,4.8v10.4l.8,1.4c-.6,0-1.1.9-1.4,2.7h.6c0,.4-.2.6-.6.6,0,1,.2,2,.6,2.9l-.6,1.3c.4,0,.6.3.6.8v.6l-.6,1.4h.6l-1.3,6.9.6,1.3-.6,1.4h.6c0,.8-.4,1.9-1.3,3.5,0,1.6.2,2.7.6,3.4-.4,3.2-.6,5.8-.6,7.7v9.6l-.8,1.4h.8c0,.9-.5,2.5-1.4,4.8l.6,1.4c-.4,5-1.1,7.5-2.1,7.5h-1.3l-1.4-.6c0,.4-.2.6-.6.6v.8c3.2.6,4.8,1.5,4.8,2.7-.8,0-1.3.5-1.4,1.4l-1.3-.8h-1.4v1.4h3.5v2.7c0,2.4-.7,4.5-2.1,6.2l-1.4-.6v2.1h-1.4v-.8l1.4-2.1v-.6h-1.4l-1.3.6v-1.3h-.8c-1.4.7-2.1,1.4-2.1,2.1-1.1-1-1.8-1.4-2.1-1.4h-2.7c-.8,0-1.2.5-1.3,1.4l.6,3.4,1.3-.6c0,.5.3,1.2.8,2.1.4,0,.6-.2.6-.6.4,0,.6.2.6.6l1.4-.6-.6-1.4v-.6c.4.4,2.3.6,5.5.6,0,.3-.4,1-1.3,2.1.4,0,1.1-.2,2.1-.6h.6v1.3h-1.4v1.4h2.1c0,1-1.6,1.4-4.8,1.4v.6c.5,0,1.2.2,2.1.6,0-.4.2-.6.6-.6,1,0,1.4.5,1.4,1.4h-2.7v.6c0,.3.4,1,1.3,2.1h-1.3v.6c3.6.3,5.5,1,5.5,2.1-1.4,0-2.1.5-2.1,1.4,1.4,0,2.1.4,2.1,1.3-.4,0-1.1-.2-2.1-.6-.6,1-1.3,1.4-2.1,1.4v1.3c.5,0,1.2-.2,2.1-.6,1.1,0,2.1,1.9,2.9,5.6h-.8l2.9,9.6h.6l1.3-.6c0,2.3.5,5.1,1.4,8.3,0,.2-.2,1.1-.6,2.7v.6c1.5-.9,2.9-1.3,4.2-1.3h2.1l-2.1,4c.4,0,.9.7,1.3,2.1,0,5.2-3.2,10.3-9.6,15.2v.8c3.5,0,10.4-6.2,20.6-18.7h.8v1.4h.6c.4,0,1.6-1.2,3.5-3.5h3.4c2.4,0,7.3.5,14.5,1.4.4,0,.6.4.6,1.3.5,0,.8-.2.8-.6.3,0,3.2.2,9,.6,3.6,0,5.5-1.1,5.5-3.4.5,0,.8.2.8.6.9-.4,1.6-.6,2.1-.6v-3.5l-.8-1.3c.7-1,1.4-1.4,2.1-1.4v-.6l-.6-1.4c1.6-1.8,2.8-2.7,3.5-2.7v-2.1c-2-3.7-5.7-5.6-11.2-5.6ZM208.2,205.8c-1.4-.7-2.1-1.4-2.1-2.1v-.6c1.4.7,2.1,1.4,2.1,2.1v.6ZM216.5,118.2c0,.9-.5,1.3-1.4,1.3v-.6c0-.8.5-1.3,1.4-1.4v.8ZM217.8,96h-1.3v-2.7h2.1c0,.3-.3,1.2-.8,2.7ZM226.1,155.4l-.6,1.3c-.8,0-1.3-.4-1.4-1.3v-.8l.8-1.3c.9,0,1.3.4,1.3,1.3v.8ZM233.8,94.7l-.8,1.3c-.8,0-1.2-.4-1.3-1.3v-1.4c.9.4,1.6.6,2.1.6v.8Z"/>
  <path d="M195.7,207.2h-2.1v1.3h.8c.9,0,1.3-.4,1.3-1.3Z"/>
  <path d="M202.6,205.8c-.8,0-1.2.5-1.3,1.4l-1.4-.8h-.6c1.4,1.6,2.1,2.7,2.1,3.5h1.3c0-.5-.2-1.2-.6-2.1l.6-1.4v-.6Z"/>
  <path d="M197.8,201.7v1.4l.6,1.4c1,0,1.4-.5,1.4-1.4s-.5-1.3-1.4-1.4h-.6Z"/>
  <path d="M194.4,201h1.9v-1.4h-.6c-.8,0-1.2.5-1.3,1.4Z"/>
  <path d="M203.4,215.6v2.1c0,.9.4,1.3,1.3,1.3,0-1.4.5-2.1,1.4-2.1v-.6c-.5,0-1.2-.2-2.1-.6h-.6Z"/>
  <path d="M202.6,221v.6c.8,1.4,1.5,2.1,2.1,2.1v-.6c-.7-1.4-1.4-2.1-2.1-2.1Z"/>
  <rect x="201.3" y="232.1" width="2.7" height=".8"/>
  <rect x="361.3" y="26" width="2.7" height=".6"/>
  <path d="M362,43.1v-2.1c0-.8-.4-1.3-1.3-1.4,0,1.4-.5,2.1-1.4,2.1v.6c.5,0,1.2.3,2.1.8h.6Z"/>
  <path d="M362.8,37.7v-.8c-.8-1.3-1.5-1.9-2.1-1.9v.6c.7,1.4,1.4,2.1,2.1,2.1Z"/>
  <path d="M297.8,45.1v-.6l-2.7.6v1.4h1.4c.9,0,1.3-.5,1.3-1.4Z"/>
  <path d="M272.6,84l-1.4-.6h-.6c0,.7-.4,1.6-1.3,2.7v.6h2.7c0-1,.2-1.9.6-2.7Z"/>
  <path d="M272.6,92.2h2.1c0-.5.2-1.2.6-2.1h-1.4c-.8,0-1.2.5-1.3,1.4v.6Z"/>
  <path d="M270.6,91.6h1.4l.6-3.5c-2.2,0-3.5.3-4.2.8,1.4,1.1,2.1,2,2.1,2.7Z"/>
  <rect x="274.7" y="93.5" width="1.3" height="2.1"/>
  <path d="M371.6,49.9h-.6c-.8,0-1.3.5-1.4,1.4h2.1v-1.4Z"/>
  <polygon points="370.2 56 369.5 54.7 368.2 55.3 368.9 56.8 370.2 56"/>
  <path d="M375,45.1h-.6c-.8,0-1.3.5-1.4,1.4h2.1v-1.4Z"/>
  <path d="M362.8,48.6c0,.4.2,1.1.6,1.9l-.6,1.4v.6c.9,0,1.3-.4,1.3-1.3l1.4.6h.6c-1.4-1.5-2.1-2.6-2.1-3.4h-1.3Z"/>
  <path d="M368.9,58.7h.6c1,0,1.4-.4,1.4-1.3h-2.1v1.3Z"/>
  <path d="M365.5,58.7h1.3v-1.3h-2.7c0,.9.5,1.3,1.4,1.3Z"/>
  <path d="M365.5,55.3c0,1,.4,1.4,1.3,1.4h.6v-1.4l-.6-1.3c-.8,0-1.2.4-1.3,1.3Z"/>
  <path d="M263.8,103.8c.4,0,1.1.3,1.9.8h.8l-.8-1.4h-1.9v.6Z"/>
  <path d="M270.6,94.9c.4.9.6,1.6.6,2.1h1.4v-1.4l-.6-1.3-1.4.6Z"/>
  <path d="M256.3,97.7h-.8c-.7,0-1.1.4-1.3,1.3v.8h2.1v-2.1Z"/>
  <path d="M256.9,109.2v2.1c0,1,.4,1.4,1.3,1.4h.8c-1-1.5-1.4-2.6-1.4-3.5h-.6Z"/>
  <path d="M257.6,97.7v-2.1l-1.3.6c0,1,.4,1.4,1.3,1.4Z"/>
  <path d="M246,117.4c-.8,0-1.3.5-1.4,1.4h2.1l-.6-1.4Z"/>
  <rect x="256.3" y="99.7" width="1.3" height="2.1"/>
  <path d="M254.2,113.4v.6l-.6,1.4,1.3.6h.6c0-.5.3-1.2.8-2.1-1-1.8-1.6-2.7-2.1-2.7h-2.1v.6c0,1,.7,1.4,2.1,1.4Z"/>
  <path d="M256.3,105.8h1.9l1.4-.6-.6-4.2c-.6,0-1.5,1.3-2.7,3.5v1.3Z"/>
  <path d="M261.1,107.3l-1.4-.8v1.4c1,0,1.9.2,2.7.6l.6-1.3-.6-1.4c-.8,0-1.2.5-1.3,1.4Z"/>
  <path d="M266.5,97v.6h.6c1.4,0,2.1.7,2.1,2.1h.6v-3.5c-1,0-1.9-.2-2.7-.6l-.6,1.4Z"/>
  <path d="M269.9,93.5l-.6-1.3c-.8,0-1.3.4-1.4,1.3v1.4h.6c1,0,1.4-.5,1.4-1.4Z"/>
  <path d="M261.1,92.2l.6,1.3,1.3-.6,1.4.6c0-.9.9-1.3,2.7-1.3,0-.9-1.4-1.8-4.2-2.7,0,.4.3,1.1.8,2.1,0,.4-.9.6-2.7.6Z"/>
  <path d="M263.8,101.8v-2.1c-2.3.3-3.5,1-3.5,2.1v1.3h1.4c0-.9.7-1.3,2.1-1.3Z"/>
  <path d="M262.4,98.3v-.6h-2.1v2.1h.8c.9,0,1.3-.5,1.3-1.4Z"/>
  <rect x="261.1" y="94.3" width="1.3" height="1.9"/>
  <path d="M366.1,77.1c-2.3,1.2-3.4,2.1-3.4,2.7,1.2,0,2.6-.4,4-1.3l-.6-1.4Z"/>
  <path d="M365.5,59.5c-2.3.3-3.5.9-3.5,1.9l3.5-.6v-1.3Z"/>
  <path d="M363.4,89.5c.9,0,1.3-.5,1.3-1.4v-.6h-.6l-1.3.6.6,1.4Z"/>
  <path d="M325.1,199.3c1,0,1.4-.5,1.4-1.4h-2.1l.6,1.4Z"/>
  <path d="M349,206.9v2.7l-.6,1.3h1.4l.6-4.7v-1.4c-.9.4-1.6.6-2.1.6l.6,1.4Z"/>
  <path d="M340.8,209.6l.8,1.3c-.6.5-1.5,3.2-2.7,8.2l1.3.8c2.8-4.7,4.2-7.9,4.2-9.6v-3.4c-2.1.9-3.2,1.8-3.5,2.7Z"/>
  <rect x="360.7" y="79.9" width="1.3" height="2.1"/>
  <path d="M361.3,71c-.9.4-1.6.6-2.1.6v1.4h2.1v-2.1Z"/>
  <path d="M361.3,69c-2.8.5-4.2,1.2-4.2,2.1,2.4-.4,3.8-.6,4.2-.6v-1.4Z"/>
  <path d="M362,72.5c.3,0,1.2-.3,2.7-.8v-.6h-.6c-1.4,0-2.1.5-2.1,1.4Z"/>
  <path d="M366.1,68.3h-1.4v2.7h.8l1.3-.6c-.4-.9-.6-1.6-.6-2.1Z"/>
  <path d="M351.7,130.4v-.6c7.8-2.8,12.4-4.2,13.8-4.2,0,.5.2.8.6.8h.6c6.5,0,11.5-1.8,15.1-5.5,6.8-1.4,10.3-2.6,10.3-3.5l-.8-1.3,2.7-4.8v-4h.8c2.7,0,4-1.6,4-4.8-.4,0-.6-.2-.6-.6l1.3-.8c0-1-.2-1.9-.6-2.7,0-.8,1.2-2.6,3.4-5.5v-2.1l-.6-1.3c-2.4,2.6-9.7,4.6-21.8,6.1-.5,0-1.2-.2-2.1-.6-1,.4-8.5,2-22.5,4.8-.8,0-1.3-.5-1.4-1.4v-3.4l.6-1.4h-.6c0-.9.5-2.4,1.4-4.7l-.8-1.4c.5-5,1.2-7.5,2.1-7.5h1.4l1.3.8c0-.5.3-.8.8-.8v-.6c-3.2-.6-4.8-1.5-4.8-2.7.9,0,1.3-.4,1.3-1.3l1.4.6h1.3v-1.4h-3.4v-2.7c0-2.3.7-4.4,2.1-6.1l1.3.6v-2.1h1.4v.8c0,.2-.5.8-1.4,1.9v.8h1.4l1.3-.8v1.4h.8c1.3-.7,1.9-1.4,1.9-2.1l2.1,1.4h2.7c1,0,1.4-.5,1.4-1.4l-.8-3.4-1.3.6c0-.4-.2-1.1-.6-2.1-.5,0-.8.3-.8.8-.4,0-.6-.3-.6-.8l-1.3.8.6,1.3v.6c-.4-.4-2.3-.6-5.5-.6l1.3-2.1c-.4,0-1.1.3-1.9.8h-.8v-1.4h1.4v-1.3h-2.1c0-1,1.6-1.4,4.8-1.4v-.6c-.5,0-1.2-.2-2.1-.6,0,.4-.2.6-.6.6-.8,0-1.3-.5-1.4-1.4h2.7v-.6l-1.3-2.1h1.3v-.6c-3.6-.3-5.5-1-5.5-2.1,1.4,0,2.1-.4,2.1-1.3-1.4,0-2.1-.5-2.1-1.4.5,0,1.2.3,2.1.8.6-1,1.3-1.4,2.1-1.4v-1.3c-.5,0-1.2.2-2.1.6-1.1,0-2-1.8-2.7-5.5h.6l-2.7-9.6h-.6l-1.4.6c0-2.9-.6-6-1.9-9.5h-1.4c-.4,0-1.8,1.3-4,4,0-1.8-.5-2.7-1.4-2.7,1.9-2.2,3.3-4.2,4.2-6.1-.5,0-1-.7-1.4-2.1,0-5,3.2-10,9.6-14.9V0c-3.6,0-10.4,6.1-20.5,18.4h-.6v-1.3h-.6c-1.1,0-2.5,2.3-4.2,6.8,0,.4.5,2.7,1.4,6.9,0,3.5-2.1,10.5-6.2,21.2,2.8,4.9,4.2,8.6,4.2,10.9v2.1l-2.1,10.3h.6c-.7,1.3-1.4,1.9-2.1,1.9l.8,1.4v9.5c0,1-.7,1.4-2.1,1.4l.6,3.4v7.5l-.6,4.8h-5.5l-1.4-.6c-.8,1-5.5,1.9-14.3,2.7-.8,0-1.2-.5-1.3-1.4v-2.7l.6-1.3h-.6l.6-3.5-.6-1.3c.3-5.5,1.3-8.2,2.7-8.2v-1.4h-1.4v-.6l1.4-2.1h-1.4v-1.3c0-2,.5-3.8,1.4-5.5-.5-1-.8-1.6-.8-2.1l.8-3.4c-.5,0-.8-.3-.8-.8l1.4-.6-.6-3.4v-7.5l-.8-3.4c-.8,0-1.2.4-1.3,1.3h-.6c.9-1.5,1.3-2.8,1.3-4v-4.2l-.6-1.3c-1.1,0-2.7.9-4.8,2.7h-2.1v-2.1h1.4v-.6c-.7-1.4-1.4-2.1-2.1-2.1l-1.3.6.6-4.8v-.6h-1.4l.8-3.4v-.6l-6.2,5.5c-2.4,8.1-4.9,14.4-7.5,19.1l.8,3.4c-1.6,13.7-2.7,20.5-3.5,20.5v1.3h.8l1.3-.6c0,.4-.2,1.1-.6,2.1l.6,1.3c0,1-.7,1.4-2.1,1.4,0,.9.5,1.3,1.4,1.3l-.6,1.4v1.3l.6,1.4h-.6c0,1,.2,1.9.6,2.7l-1.4,6.8h-.6c0-1-.7-2.3-2.1-4h2.1v-2.1c-3.2,1-5,1.4-5.5,1.4h-1.3l-1.4-.8-.6,1.4v.6c.7,0,1.6.5,2.7,1.4l1.3-.8v.8l1.4-.8c0,.5.2,1.2.6,2.1-.4,0-.6.2-.6.6v1.4l1.3,2.1c.5,0,1.2-.3,2.1-.8h.6c0,1-2.7,1.7-8.2,2.1v-2.1h-1.9c0,.5.2,1.2.6,2.1,0,.3-1.6,1-4.8,2.1l-1.3-.6c0,.7-1.4,2-4.2,4l.6,1.4c-4.5.5-6.8,1.4-6.8,2.7v1.3c2.7,2.6,4,4.9,4,6.9h-.6l-2.1-1.4c-.8,0-1.2.5-1.3,1.4v.6h1.3v.6c-.9.9-1.6,1.6-2.2,2.3,0,0-.2,0-.3,0v.4c-.6.7-.9,1.2-.9,1.5,0,.9-.9,1.3-2.7,1.3v.8c.5.5,1,.9,1.5,1.4v.2h.3c.4.3.8.6,1.3.9,0,0,0,.2,0,.4l-1.4-.6h-.6c-.8,0-1.3.5-1.4,1.4v.6l4.2-.6v-.8c2.8,1.7,6,2.6,9.4,2.6,0-.5.2-.8.6-.8h4.8l1.3.8c0-.9,1.2-1.3,3.5-1.4,1,0,1.9.2,2.7.6,2.1-.9,4.1-1.3,6.1-1.3s1.1.2,2.1.6c0,1-.5,1.4-1.4,1.4.8,1,1.5,3.4,2.1,7.4h-.6c.9,3.5,1.3,5.5,1.3,6.2v.6h-1.3v-.6c-1.8-2.7-2.7-5-2.7-6.9h-.8v1.4c.6,5.2,1.5,9,2.7,11.6,2.3,11.5,4.4,24.2,6.2,38.2,0,3.9-.3,9.6-.8,17.1.5,0,.8.2.8.6,1.3,0,2.2-2.3,2.7-6.9h.6c0,1.4.7,2.1,2.1,2.1l-.8,6.1c0,1,.3,1.4.8,1.4,2.7,3.7,4,6.4,4,8.2v6.9l-1.3,1.9.6,1.4c-.6,0-1.3,1.6-2.1,4.8h.8c2.9,0,5.7-9.4,8.2-28.1h1.9l1.4-.6c-1.4-7.7-2.1-12.2-2.1-13.6v-2.1c0-2.3.2-5.7.6-10.3-.4,0-.6-.2-.6-.6.4,0,.6-.2.6-.6v-1.4c0-1-.2-1.9-.6-2.7.4-.8.6-1.7.6-2.7v-.6l-.6-3.4c.4,0,.6-.7.6-2.1l-.6-1.4c.4,0,.6-.2.6-.6v-3.4l-.6-3.5c.4,0,.6-.2.6-.6-.4-.9-.6-1.6-.6-2.1l.6-3.4c-.4,0-.6-.2-.6-.6l.6-1.4c-.7,0-1.1-4.5-1.3-13.6v-4l.6-1.4c-.9-.4-1.6-.6-2.1-.6v-.6c4.6,0,6.9-.9,6.9-2.7h1.3l4.2.6c2.9-1.4,4.9-2.1,6.1-2.1s3.6.5,8.2,1.4v3.4l.8,1.4h-.8c1,16.8,2.3,25.2,4.2,25.2h-1.4c-.8,6.4-1.7,9.6-2.7,9.6l.8,1.3v.6l-.8,3.5,1.4.6c3.2,5.9,5.2,8.8,6.1,8.8v2.7l-.6,1.4h.6c0,.4-.2,1.1-.6,1.9v.8c3.7,2.9,6,5.8,6.8,8.8h-.6c.4.9.6,1.6.6,2.1,2.8-1.2,4.8-3.9,6.2-8.2-1.7-2.3-2.9-3.5-3.5-3.5l.8-1.3,1.9,1.3h.8v-.6l-.8-3.4c1,0,1.6-1.8,2.1-5.5h-.6l.6-3.4v-.8l-.6-1.3c.6,0,1-1.6,1.3-4.8l-.6-3.4h1.4v-8.2l.6-1.4h-.6l.6-1.3v-3.5l-1.4-1.9v-.8c1.8,0,2.7-1.6,2.7-4.7v-10.3l-.6-1.4c.6,0,1.1-.9,1.4-2.7h-.8c0-.4.3-.6.8-.6,0-1-.3-1.9-.8-2.7l.8-1.4c-.5,0-.8-.2-.8-.6ZM357.2,52.6c1.4.7,2.1,1.4,2.1,2.1v.6c-1.4-.7-2.1-1.4-2.1-2.1v-.6ZM280.2,95.6h-.8v-2.7l1.4.6c-.4,1-.6,1.6-.6,2.1ZM334.1,163.9c-.9-.5-1.6-.8-2.1-.8v-.6l.6-1.3c1,0,1.4.4,1.4,1.3v1.4ZM349,163.9h-1.9c.4-1.6.6-2.6.6-2.7h1.3v2.7ZM350.4,138.6c0,1-.5,1.4-1.4,1.4v-.6c0-.8.5-1.3,1.4-1.4v.6Z"/>
  <rect x="355.9" y="88.8" width="2.7" height=".6"/>
  <path d="M393.4,114.7v.8h1.4v-2.1c-.8,0-1.3.4-1.4,1.3Z"/>
  <path d="M324.5,203.5h.6c1,0,1.4-.5,1.4-1.4h-2.1v1.4Z"/>
  <path d="M504.2,215.1l.5.2c.1-.3.5-.7,1-1.1l-1-.4-.5,1.3Z"/>
  <path d="M433.4,225.5c.3.1.7.5,1.1,1l.7-.7-1.7-.7v.4Z"/>
  <path d="M443.3,228.4l-1.3-.5c-.2.6,0,1,.5,1.2l1.3.5c.2-.5,0-.9-.5-1.2Z"/>
  <path d="M466.3,232.5c1.5.3,2.4.2,2.7-.5-1.5-.3-2.4-.2-2.7.5Z"/>
  <path d="M479.1,229.1l.5.2c.6.2,1,0,1.2-.5h-.4c-.6-.4-1-.2-1.3.3Z"/>
  <path d="M439.4,85.3l-1.7-.7-.5,1.3h.4c1.1,0,1.7-.3,1.9-.7Z"/>
  <path d="M521.2,201.7c-.7-.3-.9-1-.7-2.2.6.2,1.1-.4,1.7-1.8l.5.2-.3.8.5.2c.6-1.4,1.4-3.1,2.4-5-.2,0-.3-.3-.2-.6.2,0,.4,0,.6-.3-.9-.4-1.1-1.2-.5-2.6l-.8-.3-.7,1.7h-.4c0-.1,1.1-2.8,1.1-2.8l-1.3-.5.5-1.2.4-2.4h1.2c.4-1.1.5-1.9.4-2.5l.7.8c.1-.3.2-.8.2-1.5.8-1.4,1.7-1.9,2.6-1.5.1-.3,0-.5-.3-.7,0-.2.3-.3.6-.2.3-.6.3-1.3.2-2,.5-.4.9-.9,1.2-1.5l.5-1.3c.8-2.1.9-3.4,0-4v-.4c.1,0,.8.7.8.7l.5.2,1-2.5c-.6-.2-1,.1-1.4,1l-.5-.2c.2-.4,0-1.5-.3-3.2l.5.2c.2,0,.5.5,1,1.4l.7-4.2-1-.4-.3.8h-.4c.1-.5.1-1,0-1.7l.8-.7c0-3.4.2-7.1.9-11.1l-.5-.2v.4c-.5.9-.7,2.2-.7,3.8-.5-.2-.6-1.6-.3-4.2.2,0,.4,0,.5-.2l.2-.5v-1s.7.7.7.7l.5-1.2-.8-.3c.1-.3.3-.4.6-.3.4-2.6.3-3.9-.3-4.2l-.3.8-.5-.2c.4-1.1.4-1.8-.2-2l1-2.5c-.6-.2-.8-.5-.7-.8-1-1.2-1.5-2.9-1.5-5.1h-1c1.4-3.4,1.4-6.4,0-8.9l-.5-.2v1c.1,0-.4,1.3-.4,1.3l-.8-.9h-1c.1-.2.5-.6,1-1-.7-1.1-1.2-2.1-1.6-3,.3-.4.6-.8,1-1.3l.4,1.1.3-.8-.2-.9c2.5-3.2,5-6.3,7.6-9.3,4.8-1.7,7.8-4.2,9.1-7.5.4-1,.3-1.7-.3-2h-1.3c-.3-.4.1-2,1.3-5,2.2-9.9,2.9-15.8,2.2-17.7l-1.1-.4c-.6,4.6-1.1,7.3-1.4,8.1-1.7,4.3-4.1,6.6-7.1,7.1l-1.3,3.3.2,1.3-3.4.5c.7-1.8,1.2-3.5,1.4-5l-1.1-.4c-4,.7-6.3,1.9-7,3.5l-.5-.2.4-1.1-1.1-.4h-1.3c-6.5,2.9-9.9,4.2-10.3,4.1-.6-.2-1.1-.9-1.7-2l-.5-.2c0,.7,0,1.6-.6,2.8l.4.2c-.2,0-.4,0-.6,0,.2-.6-.1-1-1-1.4v-.4c.1,0,1,.3,1,.3l.2-.5-2-1.3h0c0,0,.2-.2.3-.2-.2,0-.7-.2-1.5-.3v-.3c-.1,0-.4-.4-.9-1l-.7,1c-.1,0-.3,0-.4,0l-.2.5c.1,0,.2.1.3.2l-.3.4c-.5-.5-.9-.8-1.2-.9l.2-.5c.9.4,1.4.2,1.7-.3l-.5-.2c-.2-1.4-.5-2.2-1-2.4,0,.2-.2.3-.3.3l.5-1.3-1-.4-.2.6c-.2.5-.2.8,0,1.1-.4,0-.9-.2-1.5-.4v.4c-.1,0,1.2.5,1.2.5l-.2.5-2.2-.9.7-1.7-1.7-.7-.5,1.2-2.7-1.1v-.4c1,.4,1.6,0,2-.8l.2-.5-2.2-.9c0,.2,0,.7.3,1.7l-1.3-.5-.2.5.8.3-.3.8c-.1-.4-1.2-1-3.2-1.8v-.4c.1,0,2.3.9,2.3.9l.2-.5c-.6-.3-1.2-.6-1.7-1.1-.6,0-1.2,0-1.8-.3l-.2.5.8.3v.4c-.1,0-1.8-.7-1.8-.7-.5-.8-.8-1.3-1-1.4,0-.2.3-.3.6-.2v-1.2c0,0,1.6.7,1.6.7v-.4c.1,0-.7-.3-.7-.3-3.8-1.4-5.9-1.7-6.2-.9.3.1.7.4,1.2.9,1.5,0,2.5,0,3,.2h.4c-.5.6-.8,1-.9,1.3l-.5-.2-.7-.8c-.2.6-2.5.3-6.7-.7-.6-.3-.8-.8-.5-1.6-.4-.2-1,.2-1.9,1.2-.3-.1-.7-.5-1.1-1h-1c-.3,0-.7-.3-1.1-.9h-1c0,.1-.7-.7-.7-.7-.4.9-2.7.8-7-.3-.6-.2-.7-.7-.4-1.5h-.4c-.1.2-.9.7-2.2,1.5.2,0,.3.3.2.5h-.4c0-.1-.7-.8-.7-.8-1.4,0-2.3.4-2.5,1l-.8-.3.8-.7-1-.4-.3.8-.7-.8c-.4,1-1.5,1.4-3.4,1.2,0-.2,0-.4-.3-.6-1.7.5-3.8.8-6.4,1v1c.4,0,.6,0,.7-.2l.5.2c-8.1,1.9-12.3,3.1-12.5,3.6l-.5-.2.9-.8v-.4c.1,0-.7-.3-.7-.3-1.9.5-2.9.9-3,1.3v.4c-.1,0,.2.1.2.1,1,0,1.6-.3,1.8-.7l.5.2c-2.4,1.4-3.9,2-4.3,1.8l.2-.5.8-.7-.7-.8c-.5-.2-.9,0-1.2.6-.3-.1-.4-.4-.3-.7-.5-.2-.9,0-1.2.5l-.2.5c.2,0,.4,0,.6-.3l.8.9c-.9.4-1.4.8-1.6,1.3l-.8-.3.8-.7.3-.8-.8-.3c-.4.9-1.4,1.7-3,2.3-3.8,4.8-6.3,7-7.6,6.5-.1.3,0,.5.3.7-3.5,2.9-5.9,4.1-7.4,3.5l-.2.5v1c-.2,0-.4,0-.5.3l-.7-.8-.5-.2c-.6,1.4-1.1,2.1-1.7,1.8-.1.3,0,.5.3.7-1.6,1.5-2.6,2.6-2.9,3.3l-.2.5v1c-.4-.2-1,.2-1.9,1.2v1s-1,.1-1,.1c-2.2,2.8-3.6,4.2-4.1,4,0,.2,0,.4.3.6-1,.5-3.2,3-6.6,7.4v1c-.2-.1-.7.5-1.6,1.8h.4c-.3.9-1,1.7-1.9,2.5.7.3.9,1,.7,2.2l-.8-.3c-.1.3,0,.5.2.6,0,.2-.3.3-.5.2-.1.3,0,.5.2.6,0,.2-.3.3-.5.2l-.2,3-.8.7c-.1.3-.1.8,0,1.5-.3-.1-.5,0-.6.2l1,.4c-1.1,3.6-1.3,6.2-.6,7.9-.3-.1-.5,0-.7.3v.4c.7.3.9,1.8.6,4.4.6,2,.7,5.4.4,10.2.4,8.8,1.2,13.5,2.5,14l-.8.7.8.3.3-.8v-1c.5.2.7.6.5,1.2l-.2.5-.8.7,1.3,2c.2,3.4.9,5.4,2.1,5.9l-.8.7v.4c.2.1.4,0,.5-.2l.7.7h1c.1-.3,0-.6-.2-.7v-.4c.9,2,1.5,3.1,1.8,3.2,0,.2-.3.3-.5.2v1s1.4.5,1.4.5l1,1.4c-.1.3-.4.4-.7.3.1.2.2.3.4.5-.6.6-1.1.7-1.7.5l-.2.6,1.1.4c-.1.3-.4.4-.8.2-.2.4,0,.7.4.8-.2.1-.3.2-.5.3-.4-1.8-.7-2.7-.9-2.8-.1.3-.5.7-1,1.1.5.2.8,1,.9,2.3-.7.4-1.2.7-1.5.8-.3-.4-.6-.8-1.1-1.3h-.4c.4.6.6,1.2.7,1.8-3.5,3.6-6,5.5-7.5,5.7-.1.3-.2.9-.1,1.8l-9.4,6.7c-.2.4,0,.7.2.8l-5.6,4.6-.2.5.6.2h1.3c0,0,0,1.1,0,1.1l-.2.6-1.1-.4c-1.8-.7-3.7.2-5.4,2.7-.2,2.6-.4,4.2-.6,4.8l.6.2c3-1.7,6.2-1.9,9.5-.6,3.3-2.4,5.4-3.5,6.3-3.1,4.7-.6,7.6-.7,8.8-.3l.8,1c1.2-2.9,2.4-4.1,3.8-3.5l1.1-2.7c2.5-2,3.8-3.2,3.9-3.5v-1.2c2.7-.2,6.1-1.6,10.3-4.2,1.8,1.8,3.8,3.1,6.1,4,2.7,3.4,5.1,5.5,7,6.3l1.3.5c.6.2,1,0,1.2-.5.6.3,1.1.6,1.5,1.2l4.7.8-.2.5c.3.1.5,0,.7-.3.2,0,.3.3.2.6.8.3,2.4.6,4.7.9l1.5,1.6h1c0-.1.7.7.7.7.6.2,1,0,1.2-.5l2,1.2-.2.5c-1.1-.4-1.8-.4-2,.2l-2.7-1.1-.3.8-.8-.3.8-.7-4.3-1.7c-.1.3-.5.7-1,1.1,0,.7,0,1.2,0,1.5,1.1-.1,1.7-.4,1.9-.8v-1c-.1,0,1.5.7,1.5.7v.4c-.1,0-1-.3-1-.3l-.4,1c.3.1.5,0,.7-.3,2.6,1.4,4.1,2.3,4.4,2.7l.5-1.3.7.8c.6.3,1.1.1,1.3-.5l.7.7,2.2.9.3-.8-.8-.3c0-.2.3-.3.5-.2v-1.1s.9.3.9.3l-.5,1.3,2.2.9c.6.2,1,0,1.2-.5l1.3.5c.6-.1,1.2,0,1.9.2l-.2-2,.7-.7.5.2-.8.7-.2.5c.3.1.7.4,1.2.9.2,0,1.6.1,4,0-.1.3,0,.5.3.7,2.3,0,3.6-.2,3.9-1,0,0,.4.5.9,1.3l.3-.8.5.2c-.4.9,0,1.5.8,1.9.1-.3.7-.4,1.7-.3v-1c-.1,0,4.7.4,4.7.4l-.3.8.5.2c.4-1,1.3-1.5,2.6-1.5l2,1.3c.1-.3,0-.5-.3-.7l.2-.5.7.8.3-.8c.3.1.4.3.3.6.2,0,.7,0,1.7-.3l.7.8.3-.8c.3.1.4.3.3.6.3.1,1.4-.4,3.2-1.7l.7.7c1.5-.2,3.4-1.3,5.7-3.2l-.5-.2.2-.5c.3.1.4.4.3.7l6.1-2.6v-1c-.1,0,.8.4.8.4.1-.3,0-.5-.3-.7l.2-.5.7.8.3-.8v-1c2.1-.5,3.5-1.1,4.2-1.8l-.8-.3.2-.5c.2-.6.7-.7,1.5-.4l.2-.5-.8-.3v-.4c.1,0,1.5.5,1.5.5v-1.2c0,0,0-.4,0-.4.6.3.8.8.4,1.7,1-.6,1.7-.8,2.2-.7l.5-1.3-.8-.3-.3.8-1.8-.7v-.4c1.1-.5,1.6-.8,1.6-.9.2,0,.3.3.2.5,1,0,1.6-.3,1.8-.7l-.8-.3c1.9-1.9,3.2-2.8,3.9-2.5v-1s.3-.8.3-.8c.7.3,1.4-.2,1.9-1.3v-1s1.7.7,1.7.7l-1,1.5-.8-.7c-.1.3-.1.8,0,1.5-.5.4-.9.9-1.2,1.5l-.5,1.3c-1.1-.4-1.8-.4-2,.2l-.3.8c.6.2.7.8.3,1.7l.5.2h1c0-.4,0-.6-.3-.7,1.9-1.9,3.2-2.8,4-2.4v-1c.8-.5,1.3-.9,1.5-1.4l.7.8.2-.5v-1c.3.2,1.2-.8,2.6-3,0-.2,1.5-.8,4.2-1.8l.7-1.7ZM531.9,157.2l-.5,1.3-.7-.7c.2-.5.6-.7,1.2-.6ZM529.9,172.4v-.4c.1,0,1,.3,1,.3l-.5,1.3c-.5-.2-.6-.6-.5-1.3ZM526.7,133.6l-.2.5-1-.4v1c.1,0,0,.4,0,.4-.5-.2-.7-.6-.5-1.2l.7-.7,1,.4ZM524.3,125.7c.5.9,1,1.4,1.4,1.5l-.3.8c-.4-.8-.9-1.3-1.4-1.5l.3-.8ZM523.7,124.8s0,0,0,0h0s0,0,0,0ZM397.9,210.1l-1.1-.4,1.7-1.1.9.9c-.3.7-.8.9-1.5.7ZM449.7,104.9c.3.1.8.2,1.5.2l-.3.8c-.3-.1-.8-.1-1.5,0l.4-1ZM435.3,110.8c.1-.3,1.4-1,3.9-2h.4c-1,1.2-2.5,2-4.4,2.4l.2-.5ZM434.3,113.5l2.4.4-.2.5c-.2.6-.6.7-1.2.5l.3-.8c-.3-.1-.5,0-.6.2l-.8-.3v-.4ZM432.6,115.3l.4-1,1.7.7c-.9.7-1.6,1.6-2,2.7-.2,0-.3-.3-.2-.5-.3-.1-.5,0-.6.2l-.5-.2,1.6-1.3c-.3-.1-.4-.3-.3-.6ZM431.1,115.1l.8-.7h.4c-.5.6-.8,1-.9,1.3l-.5-.2.2-.5ZM428,117.9c.5-.5.8-.9.9-1.2l.5.2-.2.5c-.5.4-.9.8-1,1h-.4c0-.1.1-.5.1-.5ZM427.5,121.8c.3-.7.7-1.3,1.2-1.6v-1c-.1,0,1.2-1,1.2-1l.7.8c-1.5,2.4-2.6,3.4-3.2,3.2v-.4ZM415.6,175.9c-1.4-3.3-2.4-6.8-3-10.4-2.3-3.3-2.1-8.3.5-14.9l2.1-5.2v-1c-.1,0,.3.2.3.2,0-.2.4-1.5.9-3.7,2-4.9,5.9-10.7,11.9-17.3,2.6-4.2,7.8-8.5,15.6-12.8,7.8-3.4,11.8-5.4,12-5.9l-1-.4.3-.8,1,.4-.3.8c.4-1,7.1.2,20.1,3.5,5.1,2,9.4,5.4,13,10.1-8.2,7.2-12.5,10.7-12.9,10.5-4.7,4-7.7,5.9-9.1,5.6v1.3c0,0-1-.4-1-.4-.6-1.1-1-1.6-1.1-1.7l-.5-.2v1.3c0,0-.6,1.7-.6,1.7l-1.1-.4-.2.5c0,.2,0,.8.5,2l-3.4-2.5c-.2.5-.8,1-1.9,1.6l-.2.6c.3.1,1.1.8,2.2,2.1l-.2.5-.5-.2c-.5-.6-1.2-1-2-1.3l-.2.5.2,1.3-.8-1-.6-.2-.4,1.1.2,1.3-1.3.2c.1-1.4.2-2.2.3-2.4l-.5-.2-.9,2.2c-1-.4-1.3-1.2-.9-2.3-1.4.1-2.1.5-2.4,1l-.2.5h1.3c0,0-.4,1-.4,1l-1.6-.6-.4,1c1.4.6,2,1.2,1.7,1.9l2.8.6-.4,1.1c-.5,1.2-2.1,2.6-4.8,4.3l-1.3-1.8-.5-.2-.7,1.7,1.6.6-.2.5c0,.2-.6.5-1.7,1.1-1.2-1.3-2.1-2.1-2.7-2.3l-.2.6c-.2.6.3,1.4,1.5,2.4-.7,1.8-1.7,2.6-3,2.6-2.2,2.7-3.7,3.9-4.6,3.8-1.9,2.2-5.4,5.2-10.4,8.9-5.2,3.4-8.5,5.9-10,7.5ZM461.4,139.2l-.2.6c-.3-.1-.9-.2-1.8-.1l.4-1.1,1.6.6ZM453.1,142.8l-.2.6-.9.8-.9-.9c.2-.6.7-.8,1.5-.7l.5.2ZM431.5,195.7v.5s-.6-.5-.6-.5c-.1-.2-.3-.3-.5-.4h-.2c0,0-.8-.6-.8-.6,1.1-.6,2.1-1.2,3.2-1.7.6.2.8,1.2.7,2.8l-.2.6c-.3-.1-.4-.4-.2-.8l-1.3.2ZM439.2,205.7l-1.2-.5v1s-2.4-1.4-2.4-1.4c.2-.5.9-.7,2.2-.7.4.5.9.9,1.5,1.2v.4ZM443,210.3c-.3-.1-.8-.2-1.5-.2l.3-.8,1.3.5-.2.5ZM441.4,206.6c.1-.3.2-.8.2-1.5.2,0,.7.5,1.5,1.2l-.3.8-1.3-.5ZM445.5,207.8l-1.3-.5v.4c-.1,0,1.2.5,1.2.5l-.2.5-1-.4-.7-.8.8-.7,1.3.5-.2.5ZM445.7,208.3l.8-.7.8.3-.2.5c-.3-.1-.8-.2-1.5-.2ZM449.2,226.3c-.9-.4-1.4-.2-1.7.3-.4-.5-.8-.9-1.1-1,.2-.6,1.3-.7,3.2-.3l-.4,1ZM471.2,222.5c-.9-.4-1.4-.2-1.7.3l-.8-.3.2-.5c.9.4,1.4.2,1.7-.3l.8.3-.2.5ZM473.8,223.5h-.4c0-.1,1.4-1.1,1.4-1.1l.5.2-1.5.9ZM475.3,221c.2-.4.9-.6,2.2-.5-.2.4-.9.6-2.2.5ZM477.1,227.8h-.4c0-.1,2.4-1.2,2.4-1.2l-.8-.3.2-.5.5.2.7.8c-.7.8-1.5,1.2-2.5,1ZM480.7,224.1l-1.3-.5.8-.7c.6.2.7.6.5,1.2ZM483.2,221.7c-.1.3,0,.5.2.6l-.2.5-.7-.8h-1c.2-.3.9-.6,2.2-.5,0,.2-.3.3-.5.2ZM505.5,152.8c-.3-.1-.5,0-.6.2l-.2.5c.6.2-.4,5.2-2.9,14.9l-.5-.2c-.3.7-.3,1.7-.2,2.9-.2,0-.4,0-.6.3l-1.9,4.7c-2.3,5.7-7.3,11.1-14.9,16.1-1.7,2-3,2.9-4,2.4l-.7,1.8c1.9-.5,2.9-1,3-1.3l.5.2c-4.4,4.8-9.3,8.1-14.5,9.7l-.7-.8c-.4.9-1.2,1.4-2.6,1.5-1.3.9-2.7,1.4-4.2,1.4-6-1.6-9.9-2.6-11.9-2.8l-1.5-1-2-.4c0-.2,0-.4-.2-.5,0,.2-.3.3-.6.2l-3.5-1.4-4-2,.3-.9c-.6-.2-1.1-.9-1.7-2l-.5-.2c-.1.9.2,1.9,1.1,3l-3.3-2.4c1,0,2-.8,2.9-2.2l-1.7-1.9c1-2.5,2.9-3.2,5.7-2.1l.4-1.1c-.3-.1-.9-.2-1.8-.1l-.5-.2,2.6-2,.8,1,.5.2c2.4-3.4,5.9-6,10.6-7.7.1-.3.1-.9,0-1.8,4.5-3.6,6.9-5.4,7.1-5.3,3.3-3.5,7.4-6.7,12.4-9.3l-.2-1.3c.2-.4,2.2-.8,6.1-1.2-.1.3,0,.6.4.7l.5.2c.2-.4.2-1,.1-1.8,2.3-1.8,3.6-3,3.8-3.5l-.5-.2c.4-1,1.1-2.2,2-3.5.3-.7,1.2-.8,2.6-.2l.4-1.1-.5-.2-1.3.2c.8-1.2,1.3-1.8,1.3-2l2.2.9c1.2-2.9,3.9-4.7,8.3-5.4,2.1-2.8,4.1-5,5.8-6.6,1.6,3.9,2.5,7.7,2.9,11.5l-.5-.2.2,2.2ZM505.8,96.6c0-.1.1-.2.2-.3.2.2.3.5.4.8-.2-.2-.4-.4-.6-.5ZM509,97.5l-.8-.3v1s-.8-.3-.8-.3v-.3c.4-.3.6-.6,1-.8l.9.4-.2.5ZM510.6,99.9l-.2.5h0c0,0-.8-.7-.8-.7l.2-.5.8.7h0ZM511.2,209.3c-.3.8-.8,1.1-1.3.9l1.2-2,.5.2-.4,1ZM512.9,203.4c0,.2,0,.4.3.6-1,1-1.6,1.4-2,1.3l1.7-2.8.7.7c-.1.3-.4.4-.7.3Z"/>
  <path d="M531.7,177.8l.2-.5c.1-.3.2-.8.2-1.5-.5-.2-.9,0-1.3.6.6.3.9.7.6,1.2h.4Z"/>
  <path d="M390.2,190.2c0,2,.3,3.1.8,3.3h.4c-.5-1.3-.6-2.3-.3-2.9l-.8-.3Z"/>
  <path d="M392.9,187.3l-.9,4.7.8.3c.1-.3.5-.7,1-1.1-.2-2-.3-3.2-.1-3.5l-.8-.3Z"/>
  <path d="M389.9,187.1l-.2.5c-.2.6,0,1,.6,1.2l.2-.5c.2-.5,0-.9-.6-1.2Z"/>
  <path d="M527.1,185.5l.5.2c0,.2-.1.8-.2,1.9h.4c0,.1,1.3-3.2,1.3-3.2l-.8-.3-.5,1.2-.5-.2.5-2.3-.5-.2c-.4.9-.9,1.9-1.6,3v1c0,.2-.4.7-1,1.5l-.3.8c.6.2,1.5-.9,2.7-3.4Z"/>
  <path d="M432.7,85.7l.2-.5c-1,.2-1.6.4-1.7.8v.4c.8,0,1.4-.3,1.5-.7Z"/>
  <path d="M413.5,99l-.5-.2c-.5-.2-.9,0-1.2.6l.5.2c.6.2,1,0,1.2-.6Z"/>
  <path d="M415.4,97.9l-.5-.2c-.5-.2-.9,0-1.2.5l-.2.5c1.1-.1,1.7-.4,1.9-.8Z"/>
  <path d="M504.9,86.2l-.5-.2c-.5-.2-.9,0-1.2.6h.4c.6.4,1.1.2,1.3-.4Z"/>
  <path d="M384.6,166.4l-.8-.3c-.5-.2-.9,0-1.2.6.6.2.7.6.5,1.2l.8.3c.1-.3,0-.5-.2-.6l.7-.7.2-.5Z"/>
  <path d="M409.2,215.8c-1.5-.6-2.8-1.3-3.8-1.9h-.4c0-.1-.1.2-.1.2.2,0,.6.4,1,1l3.1,1.2.2-.5Z"/>
  <path d="M384.9,160.5c-.5-.2-.9,0-1.2.5l-.4,1c.6.2,1,0,1.2-.6l.3-.8Z"/>
  <rect x="415.2" y="218.1" width=".4" height="1.9" transform="translate(58.3 524.1) rotate(-68.3)"/>
  <rect x="410.4" y="216.3" width=".4" height="1.8" transform="translate(57 518.4) rotate(-68.3)"/>
  <rect x="409.5" y="217.4" width=".4" height="1.9" transform="translate(55.4 518.3) rotate(-68.3)"/>
  <path d="M425.9,223l-1.6-1.2c-.1.3-.3.4-.6.3l-.5-.2.8-.7c-1.4-.6-2-1.2-1.8-1.8-.7,0-1.2,0-1.5,0l-.2.5c.2,0,.7.4,1.5,1-.1.3-.3.4-.6.3,0,.2,0,.7.3,1.7l-1.3-.5.5-1.3-.8-.3v1c.1,0,0,.5,0,.5l-2.2-.9v.4c.7.3,1,.8.7,1.3l.5.2h1c0,.2,0,.4.3.5l.3-.8c.6.3,1.1.6,1.5,1.2l.5.2c.1-.3,0-.5-.3-.7.5-.4.9-.8,1-1.1.6.2.7.8.3,1.7l.8.3.5-1.3,2.7,1.1-.2.5-1.3-.5-.3.8v1c1.8,0,2.9.2,3.5.4v-.4c-.6-.3-1.1-.7-1.5-1.2.2-.6,1.1-.6,2.5,0l.2-.5-1.3-.5c-2.1-.5-3.3-.8-3.6-.9Z"/>
  <rect x="423.4" y="224" width=".4" height="1.8" transform="translate(58.2 535.5) rotate(-68.3)"/>
  <path d="M417,221.1l-.8-.3c0,.2-.4.6-.8,1.1l3,1.2v-.4c.1,0-2-.9-2-.9l.7-.7Z"/>
  <path d="M356.8,221.2l-.4,1,.6.2c1.3-1.5,2.5-2.1,3.7-1.6l.2-.5c.3-.6,0-1.2-.7-1.5-.6-.2-1.7.6-3.5,2.4Z"/>
  <path d="M377,231.6l-.6-.2-.4,1.1,1.6.6c.2-.6,0-1.1-.5-1.5Z"/>
  <path d="M374.2,235.5l.6-1.6h-1.3c-.3.8,0,1.3.7,1.6Z"/>
  <path d="M357.3,228l-1.5,3.7-1,.8,1.1.4c3.1-4.1,5.1-5.9,6-5.6.4-1,.5-2.2.2-3.7-1.1-.4-2.7,1-4.8,4.3Z"/>
  <path d="M396.3,215.7l-.6-.2-.4,1.1,1.7.7c.3-.6,0-1.1-.7-1.5Z"/>
  <path d="M515.3,94.3l.9-.9-.5-.2c-1.4.1-2.1.5-2.4,1l-.2.5,2.2.9v-1.3Z"/>
  <path d="M519.7,91.1l-2.2-.9-.4,1.1c.2,0,1,.2,2.4.3l.2-.5Z"/>
  <path d="M525.1,87l.2-.5c.2-.6,0-1.1-.7-1.5l-.6-.2c.1,1.3.5,2,1.1,2.2Z"/>
  <path d="M440.3,151.9l-.6-.2c-.3.7,0,1.2.7,1.5l.6.2c.2-.6,0-1.1-.7-1.5Z"/>
  <path d="M439.9,196.5c-.3-.1-.4-.4-.2-.8l-1.3.2c0,.8,0,1.6-.4,2.4l1.1.4v-1.3c0,0,.9-.9.9-.9Z"/>
  <path d="M438.6,193.4l-.5-.2h-1.3c.1-.3,0-.5-.3-.6l-.4,1.1c.3.1.8.5,1.4,1.1l.5.2.6-1.6Z"/>
  <path d="M434.2,151.4l-.5-.2-.2.5v1.3c0,0,1.4-.2,1.4-.2.2-.6,0-1-.7-1.4Z"/>
  <path d="M440.1,199.1l-.2.5c-.3.7,0,1.2.7,1.5l.2-.6c.2-.6,0-1-.7-1.4Z"/>
  <path d="M442.6,149.2l.2-.6c.2-.6,0-1.1-.7-1.5l-.2.6c-.3.7,0,1.2.7,1.5Z"/>
  <path d="M440.5,145.1l-1.1-.4c-.1,1.7.3,3.2,1.4,4.3.5-2.3.5-3.6-.3-3.9Z"/>
  <path d="M485.6,156.4l-.5-.2h-1.3c.1-.3,0-.5-.4-.7l-.4,1c.4.2.9.6,1.4,1.3l.5.2.6-1.6Z"/>
  <path d="M439.8,149.9l-.4,1.1.5.2c.7.3,1.2,0,1.5-.7v-1.3c-.7-.3-1.2,0-1.6.7Z"/>
  <path d="M453.3,137.9l-.2.5c-.3.7,0,1.2.7,1.5l.2-.6c.2-.6,0-1-.7-1.4Z"/>
  <path d="M487.2,161.9l-.2.6c-.3.6,0,1.1.7,1.4l.2-.5c.3-.6,0-1.1-.7-1.5Z"/>
  <path d="M380,205l.2-.6c.2-.6,0-1.1-.7-1.5-2.5,1.9-4.1,2.7-4.6,2.5l-.2.6c1.2.5,2,1,2.5,1.5l.2-.5-.2-1.3c.9-.9,1.8-1.1,2.8-.7Z"/>
  <path d="M482.5,159.5l-.6-.2c-.1,1,.5,2.2,1.7,3.8l.6-1.6c-.6-.2-1.1-.9-1.7-1.9Z"/>
  <path d="M485.3,164.9l-.6,1.6,1.1.4.2-.5c.3-.6,0-1.1-.7-1.5Z"/>
  <path d="M481.5,163.4l.6.2.2-.6-.2-1.3-1.3.2c-.3.7,0,1.2.7,1.5Z"/>
  <path d="M479.6,165l-.4,1.1c1.1.4,1.5,1,1.3,1.8h1.3c0,0,.5.1.5.1l-1.7,1.1-.2.6c.8-.1,1.6,0,2.4.3l.4-1.1c.2-.5-1-1.8-3.5-3.9Z"/>
  <path d="M487,159.3c-.3-.1-.4-.4-.3-.7h-1.3c0,.8,0,1.6-.4,2.4l1.1.4v-1.3c0,0,.9-.9.9-.9Z"/>
  <path d="M446.1,145l.6.2c-.1-1.3-.5-2.1-1-2.4l-.2.6c-.3.7,0,1.2.7,1.5Z"/>
  <path d="M478,124.1l.2-.5c.3-.6,0-1.1-.7-1.5l-.6-.2c.1,1.3.5,2,1.1,2.2Z"/>
  <path d="M472.6,128.2l-2.2-.9-.4,1.1c.2,0,1,.2,2.4.4l.2-.6Z"/>
  <path d="M481.9,115.8c.3-.6,0-1.1-.7-1.5l-.5-.2-.2.5v1.3c0,0,1.3,0,1.3,0Z"/>
  <rect x="455.8" y="137.7" width="1.2" height="1.7" transform="translate(159 511.4) rotate(-68.3)"/>
  <path d="M476.4,114.1l.6-1.6-1.1-.4-.2.5c-.3.7,0,1.2.7,1.5Z"/>
  <path d="M482.4,124.1l.4-1.1-.6-.2c-.6-.2-1.1,0-1.5.7l-.2.5c.9,0,1.5,0,1.9.2Z"/>
  <path d="M484.2,121l.2-.5c.3-.6,0-1.1-.7-1.5l-.2.5c-.3.7,0,1.2.7,1.5Z"/>
  <path d="M457.1,130.1l.6-1.6-1.1-.4-.2.5c-.3.7,0,1.2.7,1.5Z"/>
  <path d="M437.1,158.1l.2-.5c.2-.6,0-1.1-.5-1.5l-.2.6c-.3.6,0,1.1.6,1.3Z"/>
  <path d="M468.3,131.5l.9-.9-.5-.2c-1.3.1-2,.5-2.2.9l-.2.6,2.1.8v-1.3Z"/>
  <path d="M454.8,137.3l.4-1.1-2.2-.9-.2.5.2,1.3c.8,0,1.4,0,1.8.1Z"/>
  <path d="M448.7,147.9h1.3c-.3-1.9-.7-2.9-1.3-3.1l-.6-.2-.4,1.1c1.1.4,1.5,1.2,1.1,2.2Z"/>
  <path d="M459.3,135.3l.5.2c.4-.9,1.1-1.6,2.1-2.2-.2,0-1.4-.4-3.5-.8l-.2.6c1.1.4,1.5,1.2,1.1,2.2Z"/>
  <rect x="455.1" y="133.8" width="1.7" height="1" transform="translate(162.7 508.3) rotate(-68.3)"/>
  <path d="M446.3,146.3v1.2c0,0,1.4,0,1.4,0,.3-.6,0-1.1-.7-1.5l-.5-.2-.2.6Z"/>
  <path d="M547,105.4h-1.4l-.6,4.8v1.4c.9-.5,1.6-.8,2.1-.8l-.6-1.3v-2.7l.6-1.4Z"/>
  <path d="M568.6,194.5h-3.5v2.1c.8-.4,1.9-.6,3.5-.6v-1.4Z"/>
  <path d="M567.2,204.3c.5,0,1.2.2,2.1.6.9,0,1.3-.5,1.3-1.4-1,0-1.9-.2-2.7-.6l-.6,1.4Z"/>
  <rect x="584" y="302.8" width="1.4" height="4.2"/>
  <path d="M637.8,284.7v-1.4h-1.4l-1.4.8c0-.5-.2-.8-.6-.8v.8l.6,1.3c-.4,0-.6.3-.6.8v.6h1.4c0-1.4.7-2.1,2.1-2.1Z"/>
  <path d="M627.4,295.1c.5,0,1.2.2,2.1.6.9,0,1.3-.5,1.3-1.4-1,0-1.9-.2-2.7-.6l-.6,1.4Z"/>
  <path d="M628.9,285.4h-3.5v2.1c.8-.4,1.9-.6,3.5-.6v-1.4Z"/>
  <rect x="656.2" y="391.4" width="1.4" height="4.2"/>
  <path d="M646.9,374l-3.4.8c0-.9-2.3-1.3-6.9-1.4l-1.4.6c-4.2-.8-6.2-1.9-6.2-3.4-.3,0-3.2.2-9,.6,0-1.8.9-5.1,2.7-9.7-2.8-4.9-4.2-8.6-4.2-11v-2.1l2.1-10.3h-.6c.7-1.4,1.4-2.1,2.1-2.1l-.6-1.4v-9.6c0-1,.7-1.4,2.1-1.4l-.8-3.5v-6.2l.8-6.9c-1.4,0-2.1-.4-2.1-1.3v-2.9h1.3v1.4h1.4v-.6c0-1-.9-1.4-2.7-1.4v-6.2c.8,0,1.9.5,3.4,1.4l2.1-3.5v-.6h-.6l-4.2,2.1-1.4-.8c0-.4.3-.6.8-.6l-.8-6.9v-4.8l-.6-3.5c.4,0,.6.2.6.6,1,0,1.4-.4,1.4-1.3h-2.1v-3.5l-.6-1.3h.6c-1-17.1-2.3-25.6-4.2-25.6h1.4c.8-6.5,1.7-9.7,2.7-9.7l-.6-1.3v-.8l.6-3.4-1.4-.8c-3.2-6-5.3-9-6.2-9v-2.7l.8-1.4c-.5,0-.8-.2-.8-.6v-.6l.8-1.4c-3.7-2.9-6-5.9-6.9-9h.6c-.4-.9-.6-1.6-.6-2.1-2.8,1.2-4.9,4-6.2,8.3,1.6,2.3,2.8,3.4,3.4,3.4l-.6,1.4c-1.1-1-1.8-1.4-2.1-1.4h-.6v.8l.6,3.4c-1,0-1.6,1.9-2.1,5.6h.6l-1.3,11c.4.8.6,1.7.6,2.7h-1.4v8.3l-.6,1.4h.6l-.6,1.3v3.5l1.4,2.1v.6c-1.9.2-2.9,1.8-2.9,4.8v10.4l.8,1.4c-.6,0-1.1.9-1.4,2.7h.6c0,.4-.2.6-.6.6,0,1,.2,2,.6,2.9l-.4.8c-1.7-.6-3.6-1-5.9-1l-3.4.8c0-.9-2.3-1.3-6.9-1.4l-1.4.6c-4.2-.8-6.2-1.9-6.2-3.4-.3,0-3.2.2-9,.6,0-1.8.9-5.1,2.7-9.7-2.8-4.9-4.2-8.6-4.2-11v-2.1l2.1-10.3h-.6c.7-1.4,1.4-2.1,2.1-2.1l-.6-1.4v-9.6c0-1,.7-1.4,2.1-1.4l-.8-3.5v-6.2l.8-6.9c-1.4,0-2.1-.4-2.1-1.3v-2.9h1.3v1.4h1.4v-.6c0-1-.9-1.4-2.7-1.4v-6.2c.8,0,1.9.5,3.4,1.4l2.1-3.5v-.6h-.6l-4.2,2.1-1.4-.8c0-.4.3-.6.8-.6l-.8-6.9v-4.8l-.6-3.5c.4,0,.6.2.6.6,1,0,1.4-.4,1.4-1.3h-2.1v-3.5l-.6-1.3h.6c-1-17.1-2.3-25.6-4.2-25.6h1.4c.8-6.5,1.7-9.7,2.7-9.7l-.6-1.3v-.8l.6-3.4-1.4-.8c-3.2-6-5.3-9-6.2-9v-2.7l.8-1.4c-.5,0-.8-.2-.8-.6v-.6l.8-1.4c-3.7-2.9-6-5.9-6.9-9h.6c-.4-.9-.6-1.6-.6-2.1-2.8,1.2-4.8,4-6.2,8.3,1.6,2.3,2.8,3.4,3.4,3.4l-.6,1.4c-1.1-1-1.8-1.4-2.1-1.4h-.6v.8l.6,3.4c-1,0-1.6,1.9-2.1,5.6h.6l-1.3,11c.4.8.6,1.7.6,2.7h-1.4v8.3l-.6,1.4h.6l-.6,1.3v3.5l1.4,2.1v.6c-1.9.2-2.9,1.8-2.9,4.8v10.4l.8,1.4c-.6,0-1.1.9-1.4,2.7h.6c0,.4-.2.6-.6.6,0,1,.2,2,.6,2.9l-.6,1.3c.4,0,.6.3.6.8v.6l-.6,1.4h.6l-1.3,6.9.6,1.3-.6,1.4h.6c0,.8-.4,1.9-1.3,3.5,0,1.6.2,2.7.6,3.4-.4,3.2-.6,5.8-.6,7.7v9.6l-.8,1.4h.8c0,.9-.5,2.5-1.4,4.8l.6,1.4c-.4,5-1.1,7.5-2.1,7.5h-.4c.4-.4.7-.8.7-1.1-.8,0-1.7.2-2.6.6l-.4-.2c0,.2,0,.3-.1.4-.1,0-.2.1-.3.2,0,0-.1,0-.2,0h0c-.2.2-.3.2-.5.3l.8,1.4c.4-.2.8-.5,1.2-.7,2.2.6,3.4,1.4,3.4,2.4-.8,0-1.3.5-1.4,1.4l-1.3-.8h-1.4v1.4h3.5v2.7c0,2.4-.7,4.5-2.1,6.2l-1.4-.6v2.1h-1.4v-.8l1.4-2.1v-.6h-1.4l-1.3.6v-1.3h-.8c-1.4.7-2.1,1.4-2.1,2.1-1.1-1-1.8-1.4-2.1-1.4h-2.7c-.8,0-1.2.5-1.3,1.4l.6,3.4,1.3-.6c0,.5.3,1.2.8,2.1.4,0,.6-.2.6-.6.4,0,.6.2.6.6l1.4-.6-.6-1.4v-.6c.4.4,2.3.6,5.5.6,0,.3-.4,1-1.3,2.1.4,0,1.1-.2,2.1-.6h.6v1.3h-1.4v1.4h2.1c0,1-1.6,1.4-4.8,1.4v.6c.5,0,1.2.2,2.1.6,0-.4.2-.6.6-.6,1,0,1.4.5,1.4,1.4h-2.7v.6c0,.3.4,1,1.3,2.1h-1.3v.6c1.2,0,2.3.2,3.1.4.6.7,1,1.3,1.2,1.8-.6.2-.9.6-.9,1.2,1.4,0,2.1.4,2.1,1.3-.4,0-1.1-.2-2.1-.6-.6,1-1.3,1.4-2.1,1.4v1.3c.5,0,1.2-.2,2.1-.6,1.1,0,2.1,1.9,2.9,5.6h-.8l2.9,9.6h.6l1.3-.6c0,2.3.5,5.1,1.4,8.3,0,.2-.2,1.1-.6,2.7v.6c1.5-.9,2.9-1.3,4.2-1.3h2.1l-2.1,4c.4,0,.9.7,1.3,2.1,0,1.2-.2,2.4-.5,3.5,1.8-.8,3.5-1.8,4.9-3.2,1.1-1.1,3-.9,4,0,.8-1,1.7-2,2.6-3.1h.8v1.4h.6c.4,0,1.6-1.2,3.5-3.5h3.4c2.4,0,7.3.5,14.5,1.4.4,0,.6.4.6,1.3.5,0,.8-.2.8-.6.3,0,3.2.2,9,.6,3.6,0,5.5-1.1,5.5-3.4,0,0,.2,0,.2,0,0,.9.3,1.6.6,2.1,0,.1,0,.2,0,.4v-.4c-.8,0-1.3.4-1.4,1.3v1.4c0,.8.4,1.2,1,1.4-.1,1.4-.2,2.6-.2,3.6v9.6l-.8,1.4h.8c0,.9-.5,2.5-1.4,4.8l.6,1.4c0,.9-.2,1.7-.3,2.4-.8.2-1.6.6-2.4,1.1l.8,1.4c.5-.3,1-.6,1.4-.8-.4,2.3-.9,3.4-1.6,3.4h-1.3l-1.4-.6c0,.4-.2.6-.6.6v.8c3.2.6,4.8,1.5,4.8,2.7-.8,0-1.3.5-1.4,1.4l-1.3-.8h-1.4v1.4h3.5v2.7c0,2.4-.7,4.5-2.1,6.2l-1.4-.6v2.1h-1.4v-.8l1.4-2.1v-.6h-1.4l-1.3.6v-1.3h-.8s0,0,0,0c.2.3.4.7.5,1.1.4,1.1-.3,2.6-1.3,3.1-.3.1-.5.3-.8.4.9.1,2.1.2,3.7.2,0,.3-.4,1-1.3,2.1.4,0,1.1-.2,2.1-.6h.6v1.3h-1.4v1.4h2.1c0,1-1.6,1.4-4.8,1.4v.6c.5,0,1.2.2,2.1.6,0-.4.2-.6.6-.6,1,0,1.4.5,1.4,1.4h-2.7v.6c0,.3.4,1,1.3,2.1h-1.3v.6c3.6.3,5.5,1,5.5,2.1-1.4,0-2.1.5-2.1,1.4,1.4,0,2.1.4,2.1,1.3-.4,0-1.1-.2-2.1-.6-.6,1-1.3,1.4-2.1,1.4v1.3c.5,0,1.2-.2,2.1-.6,1.1,0,2.1,1.9,2.9,5.6h-.8l2.9,9.6h.6l1.3-.6c0,2.3.5,5.1,1.4,8.3,0,.2-.2,1.1-.6,2.7v.6c1.5-.9,2.9-1.3,4.2-1.3h2.1l-.7,1.3c.8-.3,1.8,0,2.3.8,1.2,1.8,3.9,1.6,5.8,2.5.3-.1.5-.2.7-.3.5-.4,1.2-.5,1.8-.4.1-.1.2-.3.4-.4h.8v1.1c0,0,.1.2.2.3h.5c.4,0,1.6-1.2,3.5-3.5h3.4c2.4,0,7.3.5,14.5,1.4.4,0,.6.4.6,1.3.5,0,.8-.2.8-.6.3,0,3.2.2,9,.6,3.6,0,5.5-1.1,5.5-3.4.5,0,.8.2.8.6.9-.4,1.6-.6,2.1-.6v-3.5l-.8-1.3c.7-1,1.4-1.4,2.1-1.4v-.6l-.6-1.4c1.6-1.8,2.8-2.7,3.5-2.7v-2.1c-2-3.7-5.7-5.6-11.2-5.6ZM529.5,264.1c1.4.7,2.1,1.4,2.1,2.1-.1.1-.2.3-.3.5-1.2-.6-1.8-1.3-1.8-1.9v-.6ZM539.8,179.1c0,.9-.5,1.3-1.4,1.3v-.6c0-.8.5-1.3,1.4-1.4v.8ZM541.1,156.9h-1.3v-2.7h2.1c0,.3-.3,1.2-.8,2.7ZM549.5,216.4l-.6,1.3c-.8,0-1.3-.4-1.4-1.3v-.8l.8-1.3c.9,0,1.3.4,1.3,1.3v.8ZM557.1,155.6l-.8,1.3c-.8,0-1.2-.4-1.3-1.3v-1.4c.9.4,1.6.6,2.1.6v.8ZM589.6,360.9c-1.4-.7-2.1-1.4-2.1-2.1v-.6c1.4.7,2.1,1.4,2.1,2.1v.6ZM597.9,248.3h2.1c0,.3-.3,1.2-.8,2.7h-1.3v-2.7ZM596.5,273.9c0-.8.5-1.3,1.4-1.4v.8c0,.9-.5,1.3-1.4,1.3v-.6ZM607.6,310.5l-.6,1.3c-.8,0-1.3-.4-1.4-1.3v-.8l.8-1.3c.9,0,1.3.4,1.3,1.3v.8ZM615.2,249.7l-.8,1.3c-.8,0-1.2-.4-1.3-1.3v-1.4c.9.4,1.6.6,2.1.6v.8Z"/>
</svg>